<?xml version="1.0" encoding="utf-8"?>
<!-- Generator: Adobe Illustrator 25.2.3, SVG Export Plug-In . SVG Version: 6.00 Build 0)  -->
<svg version="1.1" id="svg10654" xmlns:svg="http://www.w3.org/2000/svg"
	 xmlns="http://www.w3.org/2000/svg" xmlns:xlink="http://www.w3.org/1999/xlink" x="0px" y="0px" viewBox="0 0 469 256.4"
	 style="enable-background:new 0 0 469 256.4;" xml:space="preserve">
<style type="text/css">
	.st0{fill:url(#path9417_2_);}
	.st1{fill:url(#path9417_3_);}
</style>
<g id="layer1_1_" transform="translate(0 -290.65)">
	
		<linearGradient id="path9417_2_" gradientUnits="userSpaceOnUse" x1="1.818989e-12" y1="418.8333" x2="468.9758" y2="418.8333" gradientTransform="matrix(-1 0 0 -1 468.9758 837.6666)">
		<stop  offset="0" style="stop-color:#F7017C"/>
		<stop  offset="1" style="stop-color:#05DEFF"/>
	</linearGradient>
	<path id="path9417_1_" vector-effect="none" class="st0" d="M341.5,547c5.5-0.2,10.8-2.5,14.7-6.5l106.6-106.7
		c8.3-8.3,8.3-21.8,0-30.1L356.1,296.9c-8.4-8.4-21.9-8.4-30.3,0c-8.4,8.4-8.4,21.9,0,30.3l70.2,70.2H21.4
		C9.6,397.4,0,406.9,0,418.7c0,11.8,9.6,21.4,21.4,21.4h374.9l-70.4,70.2c-8.5,8.2-8.8,21.7-0.6,30.2
		C329.5,544.9,335.4,547.2,341.5,547L341.5,547z"/>
</g>
</svg>
