<svg width="1450" height="1080" viewBox="0 0 1450 1080" fill="none" xmlns="http://www.w3.org/2000/svg">
<path opacity="0.5" d="M726.77 1083.56C680.299 1064.49 657.063 1054.95 640.359 1041.66C600.178 1009.69 579.147 959.377 584.616 908.318C586.889 887.091 596.425 863.855 615.496 817.384L775.335 427.907C794.406 381.436 803.942 358.201 817.235 341.496C849.211 301.316 899.519 280.285 950.579 285.753C971.805 288.026 995.041 297.562 1041.51 316.633L1430.99 476.472C1477.46 495.544 1500.7 505.079 1517.4 518.373C1557.58 550.349 1578.61 600.657 1573.14 651.716C1570.87 672.943 1561.33 696.178 1542.26 742.649L1382.42 1132.13C1363.35 1178.6 1353.82 1201.83 1340.52 1218.54C1308.55 1258.72 1258.24 1279.75 1207.18 1274.28C1185.95 1272.01 1162.72 1262.47 1116.25 1243.4L726.77 1083.56Z" fill="url(#paint0_linear)"/>
<path opacity="0.5" d="M662.061 -52.684C708.462 -33.4438 731.663 -23.8237 748.319 -10.4698C788.383 21.652 809.231 72.0363 803.577 123.075C801.227 144.294 791.607 167.494 772.366 213.896L720.594 338.755C701.354 385.156 691.734 408.357 678.38 425.012C646.258 465.077 595.874 485.925 544.835 480.271C523.616 477.92 500.416 468.3 454.014 449.06L188.443 338.942C142.041 319.702 118.841 310.082 102.185 296.728C62.1206 264.606 41.2725 214.222 46.9264 163.182C49.2769 141.964 58.8969 118.763 78.1371 72.3621L129.909 -52.4968C149.15 -98.8981 158.77 -122.099 172.124 -138.755C204.245 -178.819 254.63 -199.667 305.669 -194.013C326.887 -191.663 350.088 -182.042 396.489 -162.802L662.061 -52.684Z" fill="url(#paint1_linear)"/>
<defs>
<linearGradient id="paint0_linear" x1="807.548" y1="418.381" x2="1469.66" y2="907.639" gradientUnits="userSpaceOnUse">
<stop stop-color="#83B4FF" stop-opacity="0.1"/>
<stop offset="1" stop-color="white" stop-opacity="0"/>
</linearGradient>
<linearGradient id="paint1_linear" x1="668.08" y1="408.05" x2="151.954" y2="-31.3793" gradientUnits="userSpaceOnUse">
<stop stop-color="#83B4FF" stop-opacity="0.1"/>
<stop offset="1" stop-color="white" stop-opacity="0"/>
</linearGradient>
</defs>
</svg>
