<?xml version="1.0" encoding="utf-8"?>
<!-- Generator: Adobe Illustrator 25.2.3, SVG Export Plug-In . SVG Version: 6.00 Build 0)  -->
<svg version="1.1" id="Layer_1" xmlns="http://www.w3.org/2000/svg" xmlns:xlink="http://www.w3.org/1999/xlink" x="0px" y="0px"
	 viewBox="0 0 512 512" style="enable-background:new 0 0 512 512;" xml:space="preserve">
<style type="text/css">
	.st0{fill:#C6202C;}
</style>
<path class="st0" d="M340.3,258.4c-1.3-1.3-1.3-3.5,0-4.8L501.5,92.3c13.8-13.8,13.8-36.2,0-50l-32-32C462.9,3.7,454,0,444.6,0
	c-9.4,0-18.3,3.7-25,10.4L258.4,171.6c-0.8,0.8-1.7,1-2.4,1c-0.6,0-1.6-0.2-2.4-1L92.4,10.4C85.8,3.7,76.9,0,67.4,0
	s-18.3,3.7-25,10.4l-32,32c-13.8,13.8-13.8,36.2,0,50l161.2,161.3c1.3,1.3,1.3,3.5,0,4.8L10.5,419.7c-13.8,13.8-13.8,36.2,0,50
	l32,32c6.7,6.7,15.6,10.4,25,10.4s18.3-3.7,25-10.4l161.2-161.3c0.8-0.8,1.7-1,2.4-1c0.6,0,1.6,0.2,2.4,1l161.2,161.3
	c6.7,6.7,15.6,10.4,25,10.4c9.4,0,18.3-3.7,25-10.4l32-32c13.8-13.8,13.8-36.2,0-50L340.3,258.4z"/>
</svg>
