<?xml version="1.0" encoding="utf-8"?>
<!-- Generator: Adobe Illustrator 25.2.3, SVG Export Plug-In . SVG Version: 6.00 Build 0)  -->
<svg version="1.1" id="Icons" xmlns="http://www.w3.org/2000/svg" xmlns:xlink="http://www.w3.org/1999/xlink" x="0px" y="0px"
	 viewBox="0 0 512 512" style="enable-background:new 0 0 512 512;" xml:space="preserve">
<style type="text/css">
	.st0{fill:#FFFFFF;}
</style>
<path class="st0" d="M418.1,324.3c-33.4,0-64.3,17.8-81.1,46.7c-25.9-44.8-83.2-60-128-34.1c-14.1,8.2-25.9,19.9-34.1,34.1
	c-26-44.8-83.5-60.1-128.3-34s-60.1,83.5-34,128.3s83.5,60.1,128.3,34c14.1-8.2,25.8-19.9,34-34c25.9,44.8,83.2,60,128,34.1
	c14.1-8.2,25.9-19.9,34.1-34.1c26,44.8,83.5,60.1,128.3,34s60.1-83.5,34-128.3C482.6,342,451.6,324.2,418.1,324.3z M93.9,494.9
	C51.5,495,17,460.6,17,418.2s34.3-76.8,76.7-76.9c32.3,0,61.2,20.2,72.2,50.5c-5.1,17.2-5.1,35.4,0,52.6
	C155,474.8,126.1,495,93.9,494.9z M256,494.9c-42.4,0-76.8-34.4-76.8-76.8s34.4-76.8,76.8-76.8s76.8,34.4,76.8,76.8
	C332.8,460.5,298.4,494.9,256,494.9z M418.1,494.9c-25.6,0-49.6-12.8-63.8-34.1h12.6c9.4,0,17.1-7.6,17.1-17.1v-30.6l26.9,26.9
	c4,4,10.5,4,14.5,0l26.9-26.9v30.6c0,9.4,7.6,17.1,17.1,17.1h12.6C467.7,482.1,443.8,494.9,418.1,494.9z M490.5,443.7h-21.1v-47.1
	c0-5.7-4.6-10.2-10.3-10.2c-2.7,0-5.3,1.1-7.2,3l-33.7,33.7l-33.7-33.7c-4-4-10.5-4-14.5,0c-1.9,1.9-3,4.5-3,7.2v47.1h-20.7
	c4.9-17,4.8-35-0.2-51.9c14.3-39.9,58.3-60.6,98.2-46.3C484.1,359.9,504.8,403.9,490.5,443.7L490.5,443.7z"/>
<path class="st0" d="M358.4,238.9c9.4,0,17.1-7.6,17.1-17.1V51.2c0-9.4-7.6-17.1-17.1-17.1H153.6c-9.4,0-17.1,7.6-17.1,17.1v170.7
	c0,9.4,7.6,17.1,17.1,17.1H358.4z M153.6,51.2h204.8v170.7H153.6V51.2z"/>
<path class="st0" d="M287.3,88.5c-0.1-0.1-0.1-0.1-0.1-0.2c-0.1-0.1-0.1-0.1-0.2-0.1c-26.6-26.5-69.6-26.5-96.1,0
	c-0.1,0.1-0.1,0.1-0.2,0.1c-0.1,0.1-0.1,0.1-0.1,0.2c-26.5,26.6-26.5,69.6,0,96.1c0.1,0.1,0.1,0.1,0.1,0.2c0.1,0.1,0.1,0.1,0.2,0.1
	c26.6,26.5,69.6,26.5,96.1,0c0.1-0.1,0.1-0.1,0.2-0.1c0.1-0.1,0.1-0.1,0.1-0.2C313.8,158,313.8,115,287.3,88.5z M280.5,166.3
	c-3.5-3-8.8-2.6-11.9,0.9c-2.7,3.1-2.7,7.8,0,11c-6.3,4.6-13.6,7.6-21.3,8.9c-0.4-4.6-4.4-8.1-9-7.7c-4.1,0.3-7.4,3.6-7.7,7.7
	c-7.7-1.3-15-4.3-21.3-8.9c3-3.5,2.6-8.8-0.9-11.9c-3.1-2.7-7.8-2.7-11,0c-4.6-6.3-7.6-13.6-8.9-21.3c4.6-0.4,8.1-4.4,7.7-9
	c-0.3-4.1-3.6-7.4-7.7-7.7c1.3-7.7,4.3-15,8.9-21.3c3.5,3,8.8,2.6,11.9-0.9c2.7-3.1,2.7-7.8,0-11c6.3-4.6,13.6-7.6,21.3-8.9
	c0.4,4.6,4.4,8.1,9,7.7c4.1-0.3,7.4-3.6,7.7-7.7c7.7,1.3,15,4.3,21.3,8.9c-3.1,3.5-2.7,8.8,0.7,11.9c3.2,2.8,8,2.8,11.1,0
	c4.6,6.3,7.6,13.6,8.9,21.3c-4.6,0.4-8.1,4.4-7.7,9c0.3,4.1,3.6,7.4,7.7,7.7C288.1,152.6,285.1,159.9,280.5,166.3L280.5,166.3z"/>
<path class="st0" d="M286.7,413.6c2.2-3.8,3.4-8.1,3.4-12.6c0-14.1-11.5-25.6-25.6-25.6c0-4.7-3.8-8.5-8.5-8.5
	c-4.7,0-8.5,3.8-8.5,8.5h-17.1c-4.7,0-8.5,3.8-8.5,8.5s3.8,8.5,8.5,8.5h8.5v17.1h-8.5c-4.7,0-8.5,3.8-8.5,8.5s3.8,8.5,8.5,8.5h8.5
	v17.1h-8.5c-4.7,0-8.5,3.8-8.5,8.5s3.8,8.5,8.5,8.5h17.1c0,4.7,3.8,8.5,8.5,8.5c4.7,0,8.5-3.8,8.5-8.5h8.5
	c14.1,0,25.6-11.4,25.6-25.5C298.7,426.5,294.2,418.3,286.7,413.6z M256,392.5h8.5c4.7,0,8.5,3.8,8.5,8.5s-3.8,8.5-8.5,8.5H256
	V392.5z M273.1,443.7H256v-17.1h17.1c4.7,0,8.5,3.8,8.5,8.5S277.8,443.7,273.1,443.7z"/>
<path class="st0" d="M118.1,401.2l-10,1.7l10.6-23.9c1.9-4.3,0-9.4-4.3-11.3c-4.3-1.9-9.4,0-11.3,4.3l0,0l-15.2,34.2l-21.1,3.5
	c-4.7,0.7-7.8,5.1-7.1,9.7c0.7,4.2,4.3,7.3,8.6,7.2c0.5,0,0.9,0,1.4-0.1l10-1.7L69,448.8c-1.9,4.3,0,9.3,4.3,11.3
	c1.1,0.5,2.3,0.7,3.5,0.7h34.1c4.7,0,8.5-3.8,8.5-8.5s-3.8-8.5-8.5-8.5h-21l9.9-22.2l21.1-3.5c4.6-0.9,7.6-5.4,6.7-10
	C126.7,403.6,122.6,400.6,118.1,401.2L118.1,401.2z"/>
<path class="st0" d="M238.9,110.9c-14.1,0-25.6,11.5-25.6,25.6s11.5,25.6,25.6,25.6c14.1,0,25.6-11.5,25.6-25.6
	S253.1,110.9,238.9,110.9z M238.9,145.1c-4.7,0-8.5-3.8-8.5-8.5s3.8-8.5,8.5-8.5c4.7,0,8.5,3.8,8.5,8.5S243.6,145.1,238.9,145.1z"/>
<path class="st0" d="M332.8,85.3c-4.7,0-8.5,3.8-8.5,8.5v85.3c0,4.7,3.8,8.5,8.5,8.5s8.5-3.8,8.5-8.5V93.9
	C341.3,89.2,337.5,85.3,332.8,85.3z"/>
<path class="st0" d="M503.5,290.1h-128v-17.1h8.5c14.1,0,25.6-11.5,25.6-25.6l0,0V25.6C409.6,11.5,398.1,0,384,0H128
	c-14.1,0-25.6,11.5-25.6,25.6v221.9c0,14.1,11.5,25.6,25.6,25.6l0,0h8.5v17.1H8.5c-4.7,0-8.5,3.8-8.5,8.5s3.8,8.5,8.5,8.5h494.9
	c4.7,0,8.5-3.8,8.5-8.5S508.2,290.1,503.5,290.1z M358.4,290.1h-21.3l-12.8-17.1h34.1V290.1z M302.9,273.1l12.8,17.1H196.3
	l12.8-17.1H302.9z M119.5,247.5V25.6c0-4.7,3.8-8.5,8.5-8.5h256c4.7,0,8.5,3.8,8.5,8.5v221.9c0,4.7-3.8,8.5-8.5,8.5H128
	C123.3,256,119.5,252.2,119.5,247.5z M153.6,273.1h34.1l-12.8,17.1h-21.3V273.1z"/>
</svg>
