<?xml version="1.0" encoding="utf-8"?>
<!-- Generator: Adobe Illustrator 25.4.1, SVG Export Plug-In . SVG Version: 6.00 Build 0)  -->
<svg version="1.1" id="Layer_1" xmlns="http://www.w3.org/2000/svg" xmlns:xlink="http://www.w3.org/1999/xlink" x="0px" y="0px"
	 viewBox="0 0 76.7 79.2" style="enable-background:new 0 0 76.7 79.2;" xml:space="preserve">
<style type="text/css">
	.st0{fill:#1D3B4B;}
</style>
<path class="st0" d="M75.5,20.2c-4.3,1.4-8.1,3.6-12.7,4.2c4-2.1,8.2-3.2,10.4-7.6c2.3-4.6,1-9.4-2.4-13l-0.2-0.1
	C67,0.2,65.2,0.8,63.2,0c2.3,3,5,6,4.3,10.2c-0.5,2.3-2.9,3.4-4.9,4.1c-4.9,1.7-9.8-0.1-14.7,1.8c-6.4-2.2-12.6-1.5-19.1,0
	c-5.4-2-10.4,0.2-15.8-2.2c-2.4-1-4.2-2.8-3.9-5.6c0.3-3.5,2.4-5.8,4.6-8.3C11,1.1,8.4,1.9,6.2,3.8C2,7.3,1.2,14.1,4.5,18.4
	c2.4,3.2,6,4.3,9.5,6c-4.7-0.4-8.4-3.1-12.9-4c-1,3.6-1.8,7,0,10.5c2,4,7,7.5,11.6,6.6c1.3-0.5,2.5-1.3,3.7-2.1
	c0.3,1.3,0.6,2.5,0.8,3.8c-0.9,3.2-2.4,7.4-1,10.6c2.2,3.8,7.1,5.9,9.1,9.7c0.7,2.4-1.6,5.3-1,7.8c1.4,5,4.9,9.2,9.7,11.3
	c2.7,0.7,6.1,0.8,8.7-0.1c4.9-2.2,7.7-6.3,9.8-11.1c-3.3,0.3-4.1,1.9-5,5c-1.5,1.2-4.1,1-5.9,1c-4.5-0.1-8.6,0.7-12.9-0.9
	c-0.1-0.9-0.2-1.7-0.3-2.6c-1.8-1.6-2.5-2.5-2.9-5c1.8,1.3,2.9,3.1,3.9,5c1.5,0,2.8,0.2,4.1-0.6c-0.4-2.8-4.6-1.9-5.9-4.8
	c2.5-2.3,0.3-5.4,2.1-8.4c0.5,1.8,1,3.6,1.6,5.4c0.3-5.1-0.5-10.1-0.5-15.2c-0.1-3.4,2.8-6.1,4.3-9.1c-0.8,0.5-1.6,1-2.4,1.5
	c-1-6.5-7.1-7.5-12.6-7.2c2.3,0.8,4.8,1.4,7,2.4c2.2,1,2.8,3.6,3.6,5.7c-2.4-0.6-4-2.2-6.1-3.3c-1.8-0.5-3.8-0.4-5.6-0.5
	c-0.4-3.1,0.5-5.7,1.6-8.6c-2.5,3.6-4.8,6.8-9.2,8.3c1.7-1.8,4.2-2.5,4-5.3c-4.1-2.5-9.1-2.4-13.3-4.9c1.6,4.8,4.8,7.2,8.7,10
	c-2.9-1.3-5.9-2.5-7.6-5.3c-1.4-2.4-1.2-4.9-1.1-7.5c3.9,1.5,7.4,4.2,11.4,4.1c3.2,0.2,6-0.7,8.9-1.9c2.3,2.3,5,4.1,7,6.8
	c1.1-1.5,2.2-3,3.3-4.6c0.8,2.3,0.8,3.7,0.3,6.1l2.3-0.3c-0.3,3.9,1.7,5.3,4.1,7.9c0.7-0.9,1.3-1.9,2-2.8c1.9,2.9,4.4,5.1,4.4,8.7
	c0,5.1-0.6,10.2-0.8,15.3c0.6-1.8,1.3-3.6,2-5.4c0.7,2.4,1.1,4,0.3,6.5c1.2,0.7,1.5,1.5,1.1,2.4c-1,2.4-5.3,1.4-5.4,4.4
	c1.4,0.4,2.5,1,3.9,0.2c1.2-1,2-2.7,2.8-4c0.9,0.2,1.9,0.3,2.8,0.4c-0.3-1.9-2-4.8-1.1-6.8c2.2-3.6,6.7-5.7,8.9-9.3
	c1.7-3.1,0-7.6-0.8-10.8c0.3-1.3,0.7-2.5,1-3.8c4.5,4,9.7,2.1,13.4-1.8C77.6,29.7,77.1,24.9,75.5,20.2z M32.5,74
	c4.4,1.5,8.1,0.9,12.6,0c-2.1,3.2-6.5,4.4-10,2.8C33.9,76.2,31.7,75.8,32.5,74z M18.2,43.8c2,0.5,4,0.8,6,1
	c-1.1-0.6-2.1-1.2-3.2-1.7c0.1-0.5,0.2-0.9,0.4-1.4c-0.1-0.9-0.2-1.9-0.4-2.8c0.4,1,0.8,1.9,1.2,2.9c1.8,0.3,5.2,0.1,6.4,1.6
	c1.8,4.3,0.3,8.2-2,11.9c-2.6-2.5-6-5-7.9-8.1C18,46.1,18.2,45,18.2,43.8z M37.2,34.4c0.3-2.3,1.3-4.2,2.5-6.3
	c-1.6,1.3-3.2,2.5-4.8,3.7c0-3.3,0.4-5.4-2.3-7.8c-0.9,1.4-1.8,2.8-2.7,4.3c-3-2-5.9-2.7-6-6.8c-4.3,0.2-8.1,0.7-12.1-1.1
	c-3.8-1.7-7-4.7-7.3-9.1c0.2-3.2,2-5.2,3.9-7.6c-1.2,4-2.1,7.6,1,11c4.7,5.2,11.9,0.3,17.9,4.6c4.5-1.5,8.8-2.7,13.5-2.4
	c3.2,0.2,5.9,1.4,8.9,2.4c5.9-4.2,12.7,0.5,17.6-4.3c3.3-3.3,2.4-6.9,1.6-11c1.8,2.6,3.8,4.9,3.4,8.2c-0.5,4.1-4.4,7.2-8.1,8.5
	c-3.9,1.4-7.7,1.1-11.7,0.4c0.2,3.1-1,4.4-2.7,6.8c-0.5-1.2-1-2.3-1.5-3.5c-0.3,3.2-1.8,4.6-3.9,6.8c-0.4-0.8-0.7-1.5-1.1-2.3
	c-1.4,1.2-4.1,2.5-4.2,4.5c0.3,1.6,0.9,3.2,1.4,4.7C39.1,37.3,36.7,36.3,37.2,34.4z M50.2,55.8c-2.7-3.7-4-7.9-2.4-12.4
	c1-2,2.7-1.4,4.6-1.4c-0.7-0.8-1.3-1.6-2-2.3c1.1,0.8,2.2,1.2,3.3,1.2c1-0.8,1.7-1.8,2.1-3.2c0,1.6-0.1,2.9-0.5,4.5l2.9-1.4
	c-1.4,1.4-2.9,2.8-4.4,4.1l5-1.6C59.8,48.9,53.5,52.2,50.2,55.8z M73.4,30c-1.9,3-4.9,4-8,5.3c4-2.8,7.5-5.1,8.7-10.2
	c-4,2.8-9,2.5-13,5c-0.1,2.8,2.1,3.5,3.8,5.3c-3.8-1.7-6.1-4.5-8.4-7.9c0.9,2.7,1.5,5.3,1.4,8.2c-2,0.2-4.2,0-6,0.7
	c-1.9,1.1-3.6,2.4-5.5,3.5c0.2-1.1,0.5-2.1,0.8-3.1c1.4-3.6,6.4-3.9,9.6-5.3c-3.5,0.2-6.7-0.1-9.7,2.1c-2,1.2-2.3,3.2-3.1,5.2
	c-2.6-2-4.6-4.4-2.1-7.4c0.7,1,1.4,2,2.1,3c1.5-2.2,3.2-4.2,4.9-6.2l1.6,1.7c1.3-2,2.4-4,3.3-6.2c3.8,2.6,8.5,3.1,12.9,2.1
	c2.8-0.9,5.3-2.5,8-3.6C74.6,25.1,74.9,27.5,73.4,30z"/>
</svg>
