<?xml version="1.0" encoding="utf-8"?>
<!-- Generator: Adobe Illustrator 25.4.1, SVG Export Plug-In . SVG Version: 6.00 Build 0)  -->
<svg version="1.1" id="Layer_1" xmlns="http://www.w3.org/2000/svg" xmlns:xlink="http://www.w3.org/1999/xlink" x="0px" y="0px"
	 viewBox="0 0 106 158" style="enable-background:new 0 0 106 158;" xml:space="preserve">
<style type="text/css">
	.st0{fill:url(#SVGID_1_);}
</style>
<g>
	
		<radialGradient id="SVGID_1_" cx="52.9538" cy="81.3302" r="67.0563" gradientTransform="matrix(1 0 0 -1 0 160)" gradientUnits="userSpaceOnUse">
		<stop  offset="0" style="stop-color:#20EDB7"/>
		<stop  offset="1" style="stop-color:#12344C"/>
	</radialGradient>
	<path class="st0" d="M49.3,157.3c-0.9,0-1.8,0-2.7,0c-38-0.9-46.6-28.9-46.6-34c0-5.7,3.4-9,6.6-10.7c-2.1-6.3,1.9-10,4.2-12.1
		c0.1-0.1,0.2-0.1,0.2-0.2c-0.5-1.1-1.1-2.2-1.8-3.4c-4.4-8.5-9.8-19-6-26.9c1.4-2.9,1.9-6.4,2.5-11.2c1-7.7,2.4-18.2,8.5-34.8
		C22.6,0.7,45.3-1.5,56.5,0.6c15,0.1,26.4,4.1,34,12.2c11.6,12.3,10.6,30.2,10.3,36c0,0.6-0.1,1.1-0.1,1.5c0,5.2,1.3,13.1,3.4,20.5
		c2.1,7.5-3.6,26-6.1,33.6c2.4,0.9,3.9,2,4.8,3.6c1.3,2.5,0.3,4.9-0.4,6.4c-0.1,0.2-0.2,0.5-0.3,0.8c2.6,2.8,5.4,8.6,2.9,16.3
		c-2.1,6.3-8.5,12.8-17.1,17.4C77.5,154.5,64.2,157.3,49.3,157.3z M49.3,6c-9.9,0-23.7,4.1-29.5,20c-5.8,16-7.2,26.1-8.1,33.5
		c-0.7,5.2-1.2,9.3-3,13c-2.5,5.3,2.4,14.7,5.9,21.5c1.1,2,2,3.9,2.8,5.6l0.7,1.6l-1.1,1.4c-0.6,0.8-1.4,1.5-2.2,2.2
		c-2.6,2.4-4.1,3.7-1.6,7.9l2.4,4.1l-4.7,0.5c0,0-5,0.9-5,5.9c0,3.6,7.6,27.3,40.7,28c17.4,0.4,46.9-5.2,52.5-21.7
		c2-6.1-0.8-9.9-2.1-10.9l-0.9-0.7l-0.2-1.1c-0.4-1.9,0.3-3.5,0.9-4.9c0.2-0.4,0.4-1,0.5-1.4c-0.3-0.2-1.3-0.8-3.8-1.3l-3.4-0.7
		l1.2-3.3c4.4-12.4,8.4-28.2,7.1-33c-2.3-8.1-3.7-16.3-3.7-22.2c0-0.4,0-1,0.1-1.8c0.3-5.8,1.2-21.2-8.7-31.6
		C79.6,10.1,69.6,6.6,56.2,6.6h-0.3l-0.3-0.1C53.8,6.2,51.7,6,49.3,6z M54.6,112.6c-6.8,0-12.1-8.2-12.1-15.3
		c0-7.1,5.4-12.9,12.1-12.9s12.1,5.8,12.1,12.9C66.7,104.4,61.4,112.6,54.6,112.6z M54.6,90.5c-3.4,0-6.1,3.1-6.1,6.9
		c0,4.3,3.2,9.3,6.1,9.3s6.1-4.9,6.1-9.3C60.7,93.6,57.9,90.5,54.6,90.5z M30.1,70.2c-2.9,0-6.1-1.6-8.7-4.4c-4-4.3-4.9-10.1-2.3-15
		c1-1.9,2.6-3.1,4.8-3.6c8.5-2,23.9,8.7,26.9,10.9l4,2.9l4-2.9c3-2.2,18.4-12.9,26.9-10.9c2.2,0.5,3.8,1.8,4.8,3.6l0,0
		c2.6,4.9,1.7,10.6-2.3,15c-3.4,3.7-8,5.2-11.4,3.8c-3.7-1.5-12.9-4.8-17.2-6.3l-4.8-1.6L50,63.4c-4.3,1.5-13.5,4.7-17.2,6.3
		C32,70,31,70.2,30.1,70.2z M26.3,53c-0.4,0-0.8,0-1.1,0.1c-0.6,0.1-0.7,0.4-0.9,0.6c-2,3.8,0.3,6.9,1.4,8.1c1.9,2.1,4,2.6,4.7,2.3
		c2.5-1.1,7.5-2.9,11.9-4.4C36.4,56,29.9,53,26.3,53z M67.2,59.7c4.4,1.5,9.4,3.4,11.9,4.4c0.6,0.3,2.8-0.3,4.7-2.3
		c1.1-1.2,3.4-4.4,1.4-8.1l0,0c-0.1-0.2-0.3-0.4-0.9-0.6C81,52.3,73.8,55.6,67.2,59.7z"/>
</g>
</svg>
