<?xml version="1.0" encoding="utf-8"?>
<!-- Generator: Adobe Illustrator 25.4.1, SVG Export Plug-In . SVG Version: 6.00 Build 0)  -->
<svg version="1.1" id="Layer_1" xmlns="http://www.w3.org/2000/svg" xmlns:xlink="http://www.w3.org/1999/xlink" x="0px" y="0px"
	 viewBox="0 0 158 182" style="enable-background:new 0 0 158 182;" xml:space="preserve">
<style type="text/css">
	.st0{fill-rule:evenodd;clip-rule:evenodd;fill:url(#SVGID_1_);}
	.st1{fill-rule:evenodd;clip-rule:evenodd;fill:url(#SVGID_00000001635579532992297210000000859158754972285858_);}
	.st2{fill-rule:evenodd;clip-rule:evenodd;fill:url(#SVGID_00000084500449050285304350000006270454533816700558_);}
	.st3{fill-rule:evenodd;clip-rule:evenodd;fill:url(#SVGID_00000110465429398855877260000012075552631600530346_);}
	.st4{fill-rule:evenodd;clip-rule:evenodd;fill:url(#SVGID_00000066482267669770013490000006178143903157513866_);}
	.st5{fill-rule:evenodd;clip-rule:evenodd;fill:url(#SVGID_00000044163240555224320060000010765700261667433622_);}
</style>
<radialGradient id="SVGID_1_" cx="90.5001" cy="88.4998" r="58.7269" gradientTransform="matrix(1 0 0 -1 0 184)" gradientUnits="userSpaceOnUse">
	<stop  offset="0" style="stop-color:#20EDB7"/>
	<stop  offset="1" style="stop-color:#12344C"/>
</radialGradient>
<path class="st0" d="M90.5,43.2c-28.9,0-52.3,23.4-52.3,52.3c0,28.9,23.4,52.3,52.3,52.3c28.9,0,52.3-23.4,52.3-52.3
	C142.8,66.6,119.4,43.2,90.5,43.2z M31.8,95.5c0-32.4,26.3-58.7,58.7-58.7c32.4,0,58.7,26.3,58.7,58.7c0,32.4-26.3,58.7-58.7,58.7
	C58.1,154.2,31.8,127.9,31.8,95.5z"/>
<radialGradient id="SVGID_00000176044816322468269950000017342164746955799217_" cx="90.9866" cy="88.4998" r="44.6458" gradientTransform="matrix(1 0 0 -1 0 184)" gradientUnits="userSpaceOnUse">
	<stop  offset="0" style="stop-color:#20EDB7"/>
	<stop  offset="1" style="stop-color:#12344C"/>
</radialGradient>
<path style="fill-rule:evenodd;clip-rule:evenodd;fill:url(#SVGID_00000176044816322468269950000017342164746955799217_);" d="
	M79.9,57.3c-3.5,9.6-5.7,23.1-5.7,38.2c0,15.1,2.2,28.5,5.7,38.2c1.7,4.8,3.7,8.5,5.8,10.9c2.1,2.4,3.9,3.2,5.3,3.2
	c1.4,0,3.3-0.8,5.3-3.2c2-2.4,4-6.1,5.8-10.9c3.5-9.6,5.7-23.1,5.7-38.2c0-15.1-2.2-28.5-5.7-38.2c-1.7-4.8-3.7-8.5-5.8-10.9
	c-2.1-2.4-3.9-3.2-5.3-3.2c-1.4,0-3.3,0.8-5.3,3.2C83.6,48.9,81.6,52.5,79.9,57.3z M80.8,42.3c2.7-3.2,6.2-5.5,10.2-5.5
	c4.1,0,7.5,2.3,10.2,5.5c2.7,3.2,5,7.7,6.9,12.9c3.8,10.5,6,24.7,6,40.3c0,15.6-2.3,29.9-6,40.3c-1.9,5.2-4.2,9.7-6.9,12.9
	c-2.7,3.2-6.2,5.5-10.2,5.5c-4.1,0-7.5-2.3-10.2-5.5c-2.7-3.2-5-7.7-6.9-12.9c-3.8-10.5-6-24.7-6-40.3c0-15.6,2.3-29.9,6-40.3
	C75.7,49.9,78,45.5,80.8,42.3z"/>
<radialGradient id="SVGID_00000172416900545631307790000006784445755223682947_" cx="90.5001" cy="88.9865" r="44.6459" gradientTransform="matrix(1 0 0 -1 0 184)" gradientUnits="userSpaceOnUse">
	<stop  offset="0" style="stop-color:#20EDB7"/>
	<stop  offset="1" style="stop-color:#12344C"/>
</radialGradient>
<path style="fill-rule:evenodd;clip-rule:evenodd;fill:url(#SVGID_00000172416900545631307790000006784445755223682947_);" d="
	M52.3,106.1c9.6,3.5,23.1,5.7,38.2,5.7s28.5-2.2,38.2-5.7c4.8-1.7,8.5-3.7,10.9-5.8c2.4-2.1,3.2-3.9,3.2-5.3c0-1.4-0.8-3.3-3.2-5.3
	c-2.4-2-6.1-4-10.9-5.8c-9.6-3.5-23.1-5.7-38.2-5.7S62,80.5,52.3,83.9c-4.8,1.7-8.5,3.7-10.9,5.8c-2.4,2.1-3.2,3.9-3.2,5.3
	c0,1.4,0.8,3.3,3.2,5.3C43.9,102.4,47.5,104.4,52.3,106.1z M37.3,105.2c-3.2-2.7-5.5-6.2-5.5-10.2c0-4.1,2.3-7.5,5.5-10.2
	c3.2-2.7,7.7-5,12.9-6.9c10.5-3.8,24.7-6,40.3-6c15.6,0,29.9,2.3,40.3,6c5.2,1.9,9.7,4.2,12.9,6.9c3.2,2.7,5.5,6.2,5.5,10.2
	c0,4.1-2.3,7.5-5.5,10.2c-3.2,2.7-7.7,5-12.9,6.9c-10.5,3.8-24.7,6-40.3,6c-15.6,0-29.9-2.3-40.3-6C44.9,110.3,40.5,108,37.3,105.2z
	"/>
<radialGradient id="SVGID_00000044880649606380767290000009260282084353707676_" cx="138.5" cy="164.4998" r="18.7269" gradientTransform="matrix(1 0 0 -1 0 184)" gradientUnits="userSpaceOnUse">
	<stop  offset="0" style="stop-color:#20EDB7"/>
	<stop  offset="1" style="stop-color:#12344C"/>
</radialGradient>
<path style="fill-rule:evenodd;clip-rule:evenodd;fill:url(#SVGID_00000044880649606380767290000009260282084353707676_);" d="
	M138.5,7.2c-6.8,0-12.3,5.5-12.3,12.3c0,6.8,5.5,12.3,12.3,12.3s12.3-5.5,12.3-12.3C150.8,12.7,145.3,7.2,138.5,7.2z M119.8,19.5
	c0-10.3,8.4-18.7,18.7-18.7c10.3,0,18.7,8.4,18.7,18.7c0,10.3-8.4,18.7-18.7,18.7C128.2,38.2,119.8,29.8,119.8,19.5z"/>
<radialGradient id="SVGID_00000049916593518082195580000000799972231610961297_" cx="122.5" cy="12.5" r="9.727" gradientTransform="matrix(1 0 0 -1 0 184)" gradientUnits="userSpaceOnUse">
	<stop  offset="0" style="stop-color:#20EDB7"/>
	<stop  offset="1" style="stop-color:#12344C"/>
</radialGradient>
<path style="fill-rule:evenodd;clip-rule:evenodd;fill:url(#SVGID_00000049916593518082195580000000799972231610961297_);" d="
	M122.5,168.2c-1.8,0-3.3,1.5-3.3,3.3s1.5,3.3,3.3,3.3s3.3-1.5,3.3-3.3S124.3,168.2,122.5,168.2z M112.8,171.5c0-5.4,4.4-9.7,9.7-9.7
	s9.7,4.4,9.7,9.7s-4.4,9.7-9.7,9.7S112.8,176.9,112.8,171.5z"/>
<radialGradient id="SVGID_00000072264750694857327920000007597505047842425488_" cx="13.9999" cy="116.9998" r="13.2268" gradientTransform="matrix(1 0 0 -1 0 184)" gradientUnits="userSpaceOnUse">
	<stop  offset="0" style="stop-color:#20EDB7"/>
	<stop  offset="1" style="stop-color:#12344C"/>
</radialGradient>
<path style="fill-rule:evenodd;clip-rule:evenodd;fill:url(#SVGID_00000072264750694857327920000007597505047842425488_);" d="
	M14,60.2c-3.7,0-6.8,3-6.8,6.8c0,3.7,3,6.8,6.8,6.8c3.7,0,6.8-3,6.8-6.8C20.8,63.3,17.7,60.2,14,60.2z M0.8,67
	c0-7.3,5.9-13.2,13.2-13.2c7.3,0,13.2,5.9,13.2,13.2S21.3,80.2,14,80.2C6.7,80.2,0.8,74.3,0.8,67z"/>
</svg>
