<?xml version="1.0" encoding="utf-8"?>
<!-- Generator: Adobe Illustrator 25.4.1, SVG Export Plug-In . SVG Version: 6.00 Build 0)  -->
<svg version="1.1" id="Layer_1" xmlns="http://www.w3.org/2000/svg" xmlns:xlink="http://www.w3.org/1999/xlink" x="0px" y="0px"
	 viewBox="0 0 143 141" style="enable-background:new 0 0 143 141;" xml:space="preserve">
<style type="text/css">
	.st0{fill:url(#SVGID_1_);}
	.st1{fill:url(#SVGID_00000158021686347770396940000003745989392701048974_);}
	.st2{fill:url(#SVGID_00000006704115316793343290000011403484701213629112_);}
	.st3{fill:url(#SVGID_00000028310462952427206520000017047738122849198746_);}
	.st4{fill:url(#SVGID_00000074403548281653340660000005076383426076723357_);}
	.st5{fill:url(#SVGID_00000083064129649324932660000014221050271518113192_);}
</style>
<radialGradient id="SVGID_1_" cx="95.2874" cy="48.6729" r="18.1037" gradientTransform="matrix(1 0 0 -1 0 142)" gradientUnits="userSpaceOnUse">
	<stop  offset="0" style="stop-color:#20EDB7"/>
	<stop  offset="1" style="stop-color:#12344C"/>
</radialGradient>
<path class="st0" d="M95.3,90.7c-3.4,0-6.1-2.4-6.1-5.3c0-2.9,2.8-5.3,6.1-5.3s6.1,2.4,6.1,5.3c0,1.5,1.2,2.8,2.8,2.8
	c1.5,0,2.8-1.2,2.8-2.8c0-5.1-3.8-9.4-8.9-10.6v-1.4c0-1.5-1.2-2.8-2.8-2.8c-1.5,0-2.8,1.2-2.8,2.8v1.4c-5.1,1.2-8.9,5.5-8.9,10.6
	c0,6,5.3,10.9,11.7,10.9c3.4,0,6.1,2.4,6.1,5.3c0,2.9-2.8,5.3-6.1,5.3s-6.1-2.4-6.1-5.3c0-1.5-1.2-2.8-2.8-2.8
	c-1.5,0-2.8,1.2-2.8,2.8c0,5.1,3.8,9.4,8.9,10.6v1.2c0,1.5,1.2,2.8,2.8,2.8c1.5,0,2.8-1.2,2.8-2.8v-1.2c5.1-1.2,8.9-5.5,8.9-10.6
	C107,95.5,101.7,90.7,95.3,90.7z"/>
<radialGradient id="SVGID_00000139287683090251350640000008834433894841901192_" cx="119.2536" cy="55.606" r="20.1425" gradientTransform="matrix(1 0 0 -1 0 142)" gradientUnits="userSpaceOnUse">
	<stop  offset="0" style="stop-color:#20EDB7"/>
	<stop  offset="1" style="stop-color:#12344C"/>
</radialGradient>
<path style="fill:url(#SVGID_00000139287683090251350640000008834433894841901192_);" d="M125.8,74.1C122.2,68.4,117,63.9,111,61
	c-1.4-0.7-3.1-0.1-3.7,1.3c-0.7,1.4-0.1,3.1,1.3,3.7c10.6,5.1,17.4,15.9,17.4,27.6c0,5-1.2,10-3.6,14.4c-0.7,1.4-0.2,3,1.2,3.8
	c0.4,0.2,0.9,0.3,1.3,0.3c1,0,2-0.5,2.5-1.5c2.8-5.2,4.2-11.1,4.2-17C131.5,86.7,129.5,79.9,125.8,74.1z"/>
<radialGradient id="SVGID_00000016038045354020294840000018402791683000439713_" cx="99.5672" cy="81.81" r="2.8306" gradientTransform="matrix(1 0 0 -1 0 142)" gradientUnits="userSpaceOnUse">
	<stop  offset="0" style="stop-color:#20EDB7"/>
	<stop  offset="1" style="stop-color:#12344C"/>
</radialGradient>
<path style="fill:url(#SVGID_00000016038045354020294840000018402791683000439713_);" d="M99.7,57.4l-0.2,0c-1.5,0-2.8,1.2-2.8,2.8
	c0,1.5,1.2,2.8,2.8,2.8l0.2,0c0,0,0,0,0,0c1.5,0,2.8-1.2,2.8-2.8C102.4,58.7,101.2,57.4,99.7,57.4z"/>
<radialGradient id="SVGID_00000158707474222929373530000014908784238042836881_" cx="71.3465" cy="41.1366" r="20.1422" gradientTransform="matrix(1 0 0 -1 0 142)" gradientUnits="userSpaceOnUse">
	<stop  offset="0" style="stop-color:#20EDB7"/>
	<stop  offset="1" style="stop-color:#12344C"/>
</radialGradient>
<path style="fill:url(#SVGID_00000158707474222929373530000014908784238042836881_);" d="M82,121.3c-10.6-5.1-17.4-15.9-17.4-27.6
	c0-5,1.2-10,3.6-14.4c0.7-1.4,0.2-3-1.2-3.8c-1.4-0.7-3-0.2-3.8,1.2c-2.8,5.2-4.2,11.1-4.2,17c0,7,2,13.7,5.7,19.5
	c3.6,5.7,8.8,10.2,14.8,13.1c0.4,0.2,0.8,0.3,1.2,0.3c1,0,2-0.6,2.5-1.6C84,123.6,83.4,121.9,82,121.3z"/>
<radialGradient id="SVGID_00000178925022661542814410000002563454346273630359_" cx="91.0341" cy="14.933" r="2.8306" gradientTransform="matrix(1 0 0 -1 0 142)" gradientUnits="userSpaceOnUse">
	<stop  offset="0" style="stop-color:#20EDB7"/>
	<stop  offset="1" style="stop-color:#12344C"/>
</radialGradient>
<path style="fill:url(#SVGID_00000178925022661542814410000002563454346273630359_);" d="M91.1,124.3l-0.2,0c-1.5,0-2.8,1.2-2.8,2.8
	c0,1.5,1.2,2.8,2.8,2.8l0.2,0c1.5,0,2.8-1.2,2.8-2.8C93.9,125.5,92.7,124.3,91.1,124.3z"/>
<radialGradient id="SVGID_00000181809587148608361420000000886985705731484814_" cx="71.336" cy="71.5" r="70.9192" gradientTransform="matrix(1 0 0 -1 0 142)" gradientUnits="userSpaceOnUse">
	<stop  offset="0" style="stop-color:#20EDB7"/>
	<stop  offset="1" style="stop-color:#12344C"/>
</radialGradient>
<path style="fill:url(#SVGID_00000181809587148608361420000000886985705731484814_);" d="M108,48c-0.3-0.8-0.8-1.6-1.2-2.3h7.3
	c7.1,0,12.8-5.8,12.8-12.8c0-7.1-5.8-12.8-12.8-12.8H91.7c1.4-2.1,2.3-4.6,2.3-7.2C93.9,5.8,88.2,0,81.1,0H12.8C5.8,0,0,5.8,0,12.8
	c0,7.1,5.8,12.8,12.8,12.8h22.3c-1.4,2.1-2.3,4.6-2.3,7.2c0,2.7,0.8,5.2,2.3,7.2h-7.3c-7.1,0-12.8,5.8-12.8,12.8
	c0,4.1,1.9,7.7,4.9,10c-3,2.4-4.9,6-4.9,10c0,4.1,1.9,7.7,4.9,10c-3,2.4-4.9,6-4.9,10c0,4.1,1.9,7.7,4.9,10c-3,2.4-4.9,6-4.9,10
	c0,7.1,5.8,12.8,12.8,12.8h32.8c8.7,9.3,21,15,34.6,15c26.1,0,47.4-21.3,47.4-47.4C142.7,71.9,128,53.5,108,48z M114,25.6
	c4,0,7.2,3.3,7.2,7.2c0,4-3.2,7.2-7.2,7.2H96.1H45.7c-4,0-7.2-3.3-7.2-7.2c0-4,3.2-7.2,7.2-7.2H114z M12.8,20.1
	c-4,0-7.2-3.3-7.2-7.2c0-4,3.2-7.2,7.2-7.2h68.3c4,0,7.2,3.3,7.2,7.2c0,4-3.2,7.2-7.2,7.2H12.8z M27.9,45.7h68.3
	c1.1,0,2.2,0.3,3.2,0.7c-1.3-0.1-2.7-0.2-4-0.2c-13.1,0-24.9,5.3-33.5,13.9H27.9c-4,0-7.2-3.3-7.2-7.2
	C20.6,48.9,23.9,45.7,27.9,45.7z M27.9,65.8H57c-3.2,4.3-5.6,9.2-7.2,14.5h-22c-4,0-7.2-3.2-7.2-7.2C20.6,69,23.9,65.8,27.9,65.8z
	 M27.9,85.8h20.7c-0.4,2.5-0.6,5.1-0.6,7.8c0,2.3,0.2,4.5,0.5,6.7H27.9c-4,0-7.2-3.2-7.2-7.2C20.6,89.1,23.9,85.8,27.9,85.8z
	 M27.9,120.4c-4,0-7.2-3.2-7.2-7.2c0-4,3.2-7.2,7.2-7.2h21.7c1.4,5.2,3.7,10.1,6.7,14.5H27.9z M95.3,135.4
	c-23,0-41.8-18.8-41.8-41.8c0-23,18.8-41.8,41.8-41.8c23,0,41.8,18.8,41.8,41.8C137.1,116.7,118.3,135.4,95.3,135.4z"/>
</svg>
