<?xml version="1.0" encoding="utf-8"?>
<!-- Generator: Adobe Illustrator 25.4.1, SVG Export Plug-In . SVG Version: 6.00 Build 0)  -->
<svg version="1.1" id="Layer_1" xmlns="http://www.w3.org/2000/svg" xmlns:xlink="http://www.w3.org/1999/xlink" x="0px" y="0px"
	 viewBox="0 0 122.2 141" style="enable-background:new 0 0 122.2 141;" xml:space="preserve">
<style type="text/css">
	.st0{fill:url(#SVGID_1_);}
	.st1{fill:url(#SVGID_00000090261101652460634950000014099553653548160129_);}
	.st2{fill:url(#SVGID_00000031174353297874216270000017575253439231257229_);}
	.st3{fill:url(#SVGID_00000075855063096606735170000011399403904462974867_);}
	.st4{fill:url(#SVGID_00000011728217937125939520000014223441189104920737_);}
	.st5{fill:url(#SVGID_00000052106576218650865200000005006320353052637856_);}
	.st6{fill:url(#SVGID_00000033359977919906642480000001681764250246352518_);}
	.st7{fill:url(#SVGID_00000175297219027192495420000016717301163548507809_);}
	.st8{fill:url(#SVGID_00000143588588697475900690000009764623354374790532_);}
	.st9{fill:url(#SVGID_00000073717215134216349260000014215372138116302004_);}
	.st10{fill:url(#SVGID_00000134956285971005229560000012080490742213412514_);}
	.st11{fill:url(#SVGID_00000026143405780250308790000014478919312728032421_);}
	.st12{fill:url(#SVGID_00000070111128374906818130000012949958795044919937_);}
	.st13{fill:url(#SVGID_00000141418851486035239260000004288180724583493523_);}
</style>
<g>
	
		<radialGradient id="SVGID_1_" cx="61.15" cy="967.1908" r="66.0175" gradientTransform="matrix(1 0 0 1 0 -896.6408)" gradientUnits="userSpaceOnUse">
		<stop  offset="0" style="stop-color:#20EDB7"/>
		<stop  offset="1" style="stop-color:#12344C"/>
	</radialGradient>
	<path class="st0" d="M110.4,11.8c0-6.6-5.2-11.8-11.8-11.8h-87C5.2,0,0,5.2,0,11.8v18.8h18.8v98.7c0,6.6,5.2,11.8,11.8,11.8h79.9
		c6.6,0,11.8-5.2,11.8-11.8v-11.8h-11.8L110.4,11.8L110.4,11.8z M18.8,25.9H4.7V11.8c0-4,3.1-7.1,7-7.1c4,0,7.1,3.1,7.1,7.1V25.9z
		 M23.5,129.2V11.8c0-2.6-0.9-4.9-2.4-7.1h77.6c4,0,7.1,3.1,7.1,7.1v105.8H37.6v11.8c0,4-3.1,7.1-7,7.1
		C26.6,136.3,23.5,133.2,23.5,129.2z M117.5,122.2v7.1c0,4-3.1,7.1-7.1,7.1H39.9c1.6-2.1,2.4-4.5,2.4-7.1v-7.1
		C42.3,122.2,117.5,122.2,117.5,122.2z"/>
	
		<radialGradient id="SVGID_00000059301141050315251910000000003966909037208473_" cx="91.65" cy="974.1908" r="6.8171" gradientTransform="matrix(1 0 0 1 0 -896.6408)" gradientUnits="userSpaceOnUse">
		<stop  offset="0" style="stop-color:#20EDB7"/>
		<stop  offset="1" style="stop-color:#12344C"/>
	</radialGradient>
	<path style="fill:url(#SVGID_00000059301141050315251910000000003966909037208473_);" d="M82.3,75.2H101v4.7H82.3V75.2z"/>
	
		<radialGradient id="SVGID_00000149372768429170457230000008690052563571250082_" cx="52.9" cy="974.1908" r="17.5444" gradientTransform="matrix(1 0 0 1 0 -896.6408)" gradientUnits="userSpaceOnUse">
		<stop  offset="0" style="stop-color:#20EDB7"/>
		<stop  offset="1" style="stop-color:#12344C"/>
	</radialGradient>
	<path style="fill:url(#SVGID_00000149372768429170457230000008690052563571250082_);" d="M28.2,75.2h49.4v4.7H28.2V75.2z"/>
	
		<radialGradient id="SVGID_00000061471691484699000190000001863491804323978401_" cx="77.5" cy="983.5908" r="16.6999" gradientTransform="matrix(1 0 0 1 0 -896.6408)" gradientUnits="userSpaceOnUse">
		<stop  offset="0" style="stop-color:#20EDB7"/>
		<stop  offset="1" style="stop-color:#12344C"/>
	</radialGradient>
	<path style="fill:url(#SVGID_00000061471691484699000190000001863491804323978401_);" d="M54,84.6h47v4.7H54V84.6z"/>
	
		<radialGradient id="SVGID_00000148646634826815360940000017251969803152837546_" cx="38.8" cy="983.5908" r="7.6773" gradientTransform="matrix(1 0 0 1 0 -896.6408)" gradientUnits="userSpaceOnUse">
		<stop  offset="0" style="stop-color:#20EDB7"/>
		<stop  offset="1" style="stop-color:#12344C"/>
	</radialGradient>
	<path style="fill:url(#SVGID_00000148646634826815360940000017251969803152837546_);" d="M28.2,84.6h21.2v4.7H28.2V84.6z"/>
	
		<radialGradient id="SVGID_00000040553081667264652820000004178558067439883143_" cx="85.75" cy="1002.3908" r="10.9107" gradientTransform="matrix(1 0 0 1 0 -896.6408)" gradientUnits="userSpaceOnUse">
		<stop  offset="0" style="stop-color:#20EDB7"/>
		<stop  offset="1" style="stop-color:#12344C"/>
	</radialGradient>
	<path style="fill:url(#SVGID_00000040553081667264652820000004178558067439883143_);" d="M70.5,103.4H101v4.7H70.5V103.4z"/>
	
		<radialGradient id="SVGID_00000110467922475639114660000011779884533194437771_" cx="47" cy="1002.3908" r="13.3971" gradientTransform="matrix(1 0 0 1 0 -896.6408)" gradientUnits="userSpaceOnUse">
		<stop  offset="0" style="stop-color:#20EDB7"/>
		<stop  offset="1" style="stop-color:#12344C"/>
	</radialGradient>
	<path style="fill:url(#SVGID_00000110467922475639114660000011779884533194437771_);" d="M28.2,103.4h37.6v4.7H28.2V103.4z"/>
	
		<radialGradient id="SVGID_00000174589769004080050770000003298842051963802543_" cx="63.4" cy="926.2408" r="18.3984" gradientTransform="matrix(1 0 0 1 0 -896.6408)" gradientUnits="userSpaceOnUse">
		<stop  offset="0" style="stop-color:#20EDB7"/>
		<stop  offset="1" style="stop-color:#12344C"/>
	</radialGradient>
	<path style="fill:url(#SVGID_00000174589769004080050770000003298842051963802543_);" d="M60.6,47.9l2.8,1.9l2.8-1.9
		c8.5-5.6,13.6-15.3,13.6-25.4v-7.8L63.5,9.4L47,14.8v7.8C47,32.7,52.2,42.3,60.6,47.9z M51.7,18.1l11.7-4l11.8,4v4.5
		c0,8.7-4.2,16.7-11.5,21.6h-0.2L63.3,44c-7.4-4.8-11.6-13-11.6-21.7V18.1z"/>
	
		<radialGradient id="SVGID_00000099632587529377861610000001381426218396985242_" cx="65.2" cy="926.8908" r="6.2367" gradientTransform="matrix(1 0 0 1 0 -896.6408)" gradientUnits="userSpaceOnUse">
		<stop  offset="0" style="stop-color:#20EDB7"/>
		<stop  offset="1" style="stop-color:#12344C"/>
	</radialGradient>
	<path style="fill:url(#SVGID_00000099632587529377861610000001381426218396985242_);" d="M70.5,23.7l-4.7-0.5
		c-0.5,4-2.6,7.8-5.9,10.1l2.6,4C67,34.1,70,29.1,70.5,23.7z"/>
	
		<radialGradient id="SVGID_00000015342878678788924090000011047389269551633840_" cx="71.65" cy="992.9908" r="20.82" gradientTransform="matrix(1 0 0 1 0 -896.6408)" gradientUnits="userSpaceOnUse">
		<stop  offset="0" style="stop-color:#20EDB7"/>
		<stop  offset="1" style="stop-color:#12344C"/>
	</radialGradient>
	<path style="fill:url(#SVGID_00000015342878678788924090000011047389269551633840_);" d="M42.3,94H101v4.7H42.3V94z"/>
	
		<radialGradient id="SVGID_00000162352930107018684510000009564547546006510783_" cx="32.9" cy="992.9908" r="3.7157" gradientTransform="matrix(1 0 0 1 0 -896.6408)" gradientUnits="userSpaceOnUse">
		<stop  offset="0" style="stop-color:#20EDB7"/>
		<stop  offset="1" style="stop-color:#12344C"/>
	</radialGradient>
	<path style="fill:url(#SVGID_00000162352930107018684510000009564547546006510783_);" d="M28.2,94h9.4v4.7h-9.4
		C28.2,98.7,28.2,94,28.2,94z"/>
	
		<radialGradient id="SVGID_00000018919669744650408070000001349757342976606646_" cx="77.5" cy="964.7908" r="16.6999" gradientTransform="matrix(1 0 0 1 0 -896.6408)" gradientUnits="userSpaceOnUse">
		<stop  offset="0" style="stop-color:#20EDB7"/>
		<stop  offset="1" style="stop-color:#12344C"/>
	</radialGradient>
	<path style="fill:url(#SVGID_00000018919669744650408070000001349757342976606646_);" d="M54,65.8h47v4.7H54V65.8z"/>
	
		<radialGradient id="SVGID_00000178903103409049443750000004666315447869527989_" cx="38.8" cy="964.7908" r="7.6773" gradientTransform="matrix(1 0 0 1 0 -896.6408)" gradientUnits="userSpaceOnUse">
		<stop  offset="0" style="stop-color:#20EDB7"/>
		<stop  offset="1" style="stop-color:#12344C"/>
	</radialGradient>
	<path style="fill:url(#SVGID_00000178903103409049443750000004666315447869527989_);" d="M28.2,65.8h21.2v4.7H28.2V65.8z"/>
	
		<radialGradient id="SVGID_00000143589537576799507340000009846132614932564618_" cx="63.45" cy="953.0908" r="11.75" gradientTransform="matrix(1 0 0 1 0 -896.6408)" gradientUnits="userSpaceOnUse">
		<stop  offset="0" style="stop-color:#20EDB7"/>
		<stop  offset="1" style="stop-color:#12344C"/>
	</radialGradient>
	<path style="fill:url(#SVGID_00000143589537576799507340000009846132614932564618_);" d="M47,54.1h32.9v4.7H47V54.1z"/>
</g>
</svg>
