<?xml version="1.0" encoding="utf-8"?>
<!-- Generator: Adobe Illustrator 25.2.3, SVG Export Plug-In . SVG Version: 6.00 Build 0)  -->
<svg version="1.1" id="Capa_1" xmlns="http://www.w3.org/2000/svg" xmlns:xlink="http://www.w3.org/1999/xlink" x="0px" y="0px"
	 viewBox="0 0 409.6 409.6" style="enable-background:new 0 0 409.6 409.6;" xml:space="preserve">
<style type="text/css">
	.st0{fill:#1D3B4B;}
</style>
<g>
	<g>
		<path class="st0" d="M307.2,0H102.4C46.1,0,0,46.1,0,102.4v204.8c0,56.3,46.1,102.4,102.4,102.4h204.8
			c56.3,0,102.4-46.1,102.4-102.4V102.4C409.6,46.1,363.5,0,307.2,0z M375.5,307.2c0,37.6-30.6,68.3-68.3,68.3H102.4
			c-37.6,0-68.3-30.6-68.3-68.3V102.4c0-37.6,30.6-68.3,68.3-68.3h204.8c37.7,0,68.3,30.6,68.3,68.3V307.2L375.5,307.2z"/>
	</g>
</g>
<g>
	<g>
		<circle class="st0" cx="315.8" cy="93.9" r="25.6"/>
	</g>
</g>
<g>
	<g>
		<path class="st0" d="M204.8,102.4c-56.6,0-102.4,45.8-102.4,102.4c0,56.5,45.8,102.4,102.4,102.4c56.5,0,102.4-45.9,102.4-102.4
			C307.2,148.2,261.4,102.4,204.8,102.4z M204.8,273.1c-37.7,0-68.3-30.6-68.3-68.3s30.6-68.3,68.3-68.3s68.3,30.6,68.3,68.3
			S242.5,273.1,204.8,273.1z"/>
	</g>
</g>
</svg>
