<?xml version="1.0" encoding="utf-8"?>
<!-- Generator: Adobe Illustrator 25.2.3, SVG Export Plug-In . SVG Version: 6.00 Build 0)  -->
<svg version="1.1" id="Layer_1" xmlns="http://www.w3.org/2000/svg" xmlns:xlink="http://www.w3.org/1999/xlink" x="0px" y="0px"
	 viewBox="0 0 512 512" style="enable-background:new 0 0 512 512;" xml:space="preserve">
<style type="text/css">
	.st0{fill:#1D3B4B;}
</style>
<g id="Layer_2_1_">
	<g id="Black_Icon">
		<g id="_07.Linkedin">
			<path id="Icon" class="st0" d="M471.6,0H40.4C18.1,0,0,18.1,0,40.4v431.2C0,493.9,18.1,512,40.4,512h431.2
				c22.3,0,40.4-18.1,40.4-40.4V40.4C512,18.1,493.9,0,471.6,0z M181.6,390.7h-55.8V210.8h55.8V390.7z M153.6,186.3
				c-18,0.1-32.6-14.4-32.6-32.4s14.4-32.6,32.4-32.6c17.9-0.1,32.5,14.4,32.6,32.3C186,171.5,171.5,186.1,153.6,186.3z
				 M390.7,390.7h-55.8v-87.6c0-20.9-0.4-47.7-29-47.7c-28.6,0-33.7,22.7-33.7,46.1v89.1h-55.6V210.8h53.6v24.5h0.8
				c7.4-14.1,25.7-29,52.9-29c56.5,0,66.9,37.1,66.9,85.6V390.7z"/>
		</g>
	</g>
</g>
</svg>
