<?xml version="1.0" encoding="utf-8"?>
<!-- Generator: Adobe Illustrator 25.4.1, SVG Export Plug-In . SVG Version: 6.00 Build 0)  -->
<svg version="1.1" id="Layer_1" xmlns="http://www.w3.org/2000/svg" xmlns:xlink="http://www.w3.org/1999/xlink" x="0px" y="0px"
	 viewBox="0 0 2448 415" style="enable-background:new 0 0 2448 415;" xml:space="preserve">
<style type="text/css">
	.st0{fill:#133345;}
	.st1{fill:#FFFFFF;}
	.st2{fill:#0FA4A4;}
</style>
<g>
	<path class="st0" d="M554,407c-0.7,0.6-1.4,1.2-2,2C552.7,408.5,553.4,407.8,554,407z"/>
	<path class="st0" d="M552,409c-2.7,1.2-5.8,2-8,4C547,412.2,549.7,410.9,552,409z"/>
	<path class="st1" d="M0,339.1l51.3-72.8c31.9,31.8,75.1,49.7,120.2,49.7c33.3,0,53.6-13,53.6-31c0-51.4-213.3-10.2-213.3-155.2
		C11.9,66.5,65.5,10,162,10c60.4,0,112.9,18.1,153,52.5l-53.1,69.4c-31.6-26-72.8-38.9-110-38.9c-28.2,0-40.6,11.3-40.6,27.1
		c0,48,212.8,13,212.8,153.1c0,75.6-55.9,125.9-156.9,125.9C90.9,398.9,37.8,375.2,0,339.1z"/>
	<path class="st1" d="M1132,392V146.7l-95.3,245.3h-42.8L899,146.7v245.3h-97V15h134.8l78.4,204.6l79-204.6H1229v377H1132z"/>
	<path class="st1" d="M1551.9,392l-18.6-54.3h-148.5l-18.6,54.3H1256l141.7-377h122L1662,392H1551.9z M1458.7,111.1l-48,141.8h96
		L1458.7,111.1z"/>
	<path class="st1" d="M1796.1,389v-77.8h20.4V288h-20.4v-4.2c0-9.8,5-14.6,12.5-14.6c3.5,0,6.5,0.6,8.5,2.1l5.4-19.7
		c-4.8-2.5-11.5-4.2-19.2-4.2c-19.4,0-33.8,12.8-33.8,36.4v4.2H1753v23.2h16.7V389H1796.1z M1844.9,277.1c8.8,0,15.8-7.1,15.8-15.9
		c0-8.8-7.1-15.7-15.8-15.7c-8.6,0-15.6,6.9-15.6,15.7C1829.3,270,1836.3,277.1,1844.9,277.1z M1858.2,389V288h-26.5v101H1858.2z"/>
	<path class="st1" d="M1979.1,389v-71.3c0-19.7-10.6-32.2-32.9-32.2c-16.3,0-28.8,7.9-35.2,15.5v-13h-26.5v101h26.5v-68.2
		c4.6-5.9,12.5-11.7,22.9-11.7c11.2,0,18.5,4.8,18.5,18.8V389H1979.1z"/>
	<path class="st1" d="M2101,389V288h-26.7v13c-8.1-10.5-19.2-15.5-31-15.5c-25.6,0-44.6,20.1-44.6,52.9c0,33.9,19.4,53.1,44.6,53.1
		c12.3,0,23.1-5.4,31-15.5v13H2101z M2051.6,367.9c-15.2,0-25.6-11.9-25.6-29.5c0-17.4,10.4-29.3,25.6-29.3c8.8,0,18.3,5,22.7,11.7
		v35.6C2070,363.1,2060.4,367.9,2051.6,367.9z"/>
	<path class="st1" d="M2221.9,389v-71.3c0-19.7-10.6-32.2-32.9-32.2c-16.3,0-28.8,7.9-35.2,15.5v-13h-26.5v101h26.5v-68.2
		c4.6-5.9,12.5-11.7,22.9-11.7c11.2,0,18.5,4.8,18.5,18.8V389H2221.9z"/>
	<path class="st1" d="M2294.8,391.5c20.6,0,33.1-9.2,39.8-18.4l-17.3-16.3c-4.8,6.9-12.1,11.1-21.2,11.1c-16,0-27.3-11.9-27.3-29.5
		c0-17.6,11.2-29.3,27.3-29.3c9.2,0,16.5,3.8,21.2,10.9l17.3-16.3c-6.7-9.2-19.2-18.2-39.8-18.2c-30.8,0-53.3,22-53.3,52.9
		C2241.5,369.5,2264,391.5,2294.8,391.5z"/>
	<path class="st1" d="M2399.2,391.5c15.6,0,31.5-4.8,41.5-14l-11.9-17.6c-6.5,6.3-18.1,9.8-26.7,9.8c-17.1,0-27.1-10.2-29-22.6h74.8
		v-6.3c0-32.8-20.2-55.4-50.4-55.4c-30.4,0-52.1,23.6-52.1,52.9C2345.5,370.8,2368.6,391.5,2399.2,391.5z M2422.6,328.8H2373
		c1-10,8.1-21.5,24.6-21.5C2415.1,307.2,2421.7,319.1,2422.6,328.8z"/>
	<path class="st2" d="M1712.5,389.5c13,0,23.5-10.3,23.5-23s-10.5-23-23.5-23s-23.5,10.3-23.5,23S1699.5,389.5,1712.5,389.5z"/>
	<path class="st1" d="M348,207.5C348,328.4,436.2,415,556.7,415C677.8,415,766,328.4,766,207.5C766,86.6,677.8,0,556.7,0
		C436.2,0,348,86.6,348,207.5z M678.4,207.5c0,74.6-48,131.7-121.7,131.7s-121.1-57.1-121.1-131.7c0-75.2,47.4-131.7,121.1-131.7
		S678.4,132.3,678.4,207.5z"/>
</g>
</svg>
