<?xml version="1.0" encoding="utf-8"?>
<!-- Generator: Adobe Illustrator 25.4.1, SVG Export Plug-In . SVG Version: 6.00 Build 0)  -->
<svg version="1.1" xmlns="http://www.w3.org/2000/svg" xmlns:xlink="http://www.w3.org/1999/xlink" x="0px" y="0px"
	 viewBox="0 0 1084 1084" style="enable-background:new 0 0 1084 1084;" xml:space="preserve">
<style type="text/css">
	.st0{fill:url(#SVGID_1_);stroke:#0FA4A4;stroke-miterlimit:10;}
	.st1{fill:url(#SVGID_00000071545108399925138630000005030715533346936758_);stroke:#0FA4A4;stroke-miterlimit:10;}
	.st2{fill:url(#SVGID_00000117649020294607108470000002792124308621930133_);stroke:#0FA4A4;stroke-miterlimit:10;}
	.st3{fill:url(#SVGID_00000065047380417307704100000015241967054713639058_);stroke:#0FA4A4;stroke-miterlimit:10;}
	.st4{fill:url(#SVGID_00000048459846309161508460000011031499424042480266_);stroke:#0FA4A4;stroke-miterlimit:10;}
	.st5{fill:url(#SVGID_00000168798950433301593340000004142532768841229982_);stroke:#0FA4A4;stroke-miterlimit:10;}
	.st6{fill:url(#SVGID_00000098908521446033152700000014973433314818203804_);stroke:#0FA4A4;stroke-miterlimit:10;}
	.st7{fill:url(#SVGID_00000147206537150914750300000006854219639305993375_);stroke:#0FA4A4;stroke-miterlimit:10;}
	.st8{fill:url(#SVGID_00000099619889847155624900000008933573878618561469_);stroke:#0FA4A4;stroke-miterlimit:10;}
	.st9{fill:url(#SVGID_00000166638005233762619540000000686625350129601425_);stroke:#0FA4A4;stroke-miterlimit:10;}
	.st10{fill:url(#SVGID_00000117668993452041346040000017624602157007222419_);stroke:#0FA4A4;stroke-miterlimit:10;}
	.st11{fill:#0FA4A4;stroke:#0FA4A4;stroke-miterlimit:10;}
	.st12{fill:none;stroke:#0FA4A4;stroke-miterlimit:10;}
	.st13{fill:#20EDB7;stroke:#0FA4A4;stroke-miterlimit:10;}
</style>
<g id="Layer_1">
	<g>
		<g>
			
				<radialGradient id="SVGID_1_" cx="-416.0064" cy="1082.0048" r="1" gradientTransform="matrix(419.689 0 0 -419.693 175523.1562 454518.875)" gradientUnits="userSpaceOnUse">
				<stop  offset="0" style="stop-color:#20EDB7"/>
				<stop  offset="1" style="stop-color:#12344C"/>
			</radialGradient>
			<path class="st0" d="M259.8,79.2c2.7-1.7,5.4-3.3,8.2-4.9C265.2,75.9,262.5,77.5,259.8,79.2z"/>
			
				<radialGradient id="SVGID_00000031166229883400465760000001897227533124839866_" cx="-416.0064" cy="1082.0048" r="1" gradientTransform="matrix(419.688 0 0 -419.685 175522.7344 454510.2188)" gradientUnits="userSpaceOnUse">
				<stop  offset="0" style="stop-color:#20EDB7"/>
				<stop  offset="1" style="stop-color:#12344C"/>
			</radialGradient>
			<path style="fill:url(#SVGID_00000031166229883400465760000001897227533124839866_);stroke:#0FA4A4;stroke-miterlimit:10;" d="
				M269.7,73.3c3.5-2,6.9-4,10.5-5.9C276.6,69.3,273.1,71.3,269.7,73.3z"/>
			
				<radialGradient id="SVGID_00000055680745129301232530000010480720954478798982_" cx="-416.0064" cy="1082.0048" r="1" gradientTransform="matrix(419.686 0 0 -419.686 175521.9062 454511.3125)" gradientUnits="userSpaceOnUse">
				<stop  offset="0" style="stop-color:#20EDB7"/>
				<stop  offset="1" style="stop-color:#12344C"/>
			</radialGradient>
			<path style="fill:url(#SVGID_00000055680745129301232530000010480720954478798982_);stroke:#0FA4A4;stroke-miterlimit:10;" d="
				M249.8,85.5c2.4-1.5,4.8-3,7.2-4.6C254.6,82.4,252.2,83.9,249.8,85.5z"/>
			
				<radialGradient id="SVGID_00000153686503058926044960000000164558980538867349_" cx="-416.0064" cy="1082.0048" r="1" gradientTransform="matrix(419.686 0 0 -419.694 175521.9062 454519.9688)" gradientUnits="userSpaceOnUse">
				<stop  offset="0" style="stop-color:#20EDB7"/>
				<stop  offset="1" style="stop-color:#12344C"/>
			</radialGradient>
			<path style="fill:url(#SVGID_00000153686503058926044960000000164558980538867349_);stroke:#0FA4A4;stroke-miterlimit:10;" d="
				M237.5,93.6c3.1-2,6.3-4.2,9.5-6.3C243.8,89.3,240.6,91.4,237.5,93.6z"/>
			
				<radialGradient id="SVGID_00000070812246325421975050000010911142563784566661_" cx="-416.0064" cy="1082.0048" r="1" gradientTransform="matrix(419.685 0 0 -419.691 175521.4844 454516.7188)" gradientUnits="userSpaceOnUse">
				<stop  offset="0" style="stop-color:#20EDB7"/>
				<stop  offset="1" style="stop-color:#12344C"/>
			</radialGradient>
			<path style="fill:url(#SVGID_00000070812246325421975050000010911142563784566661_);stroke:#0FA4A4;stroke-miterlimit:10;" d="
				M119.1,203c2.9-3.6,5.9-7.3,9-10.9C125,195.7,122.1,199.3,119.1,203z"/>
			
				<radialGradient id="SVGID_00000054977400072445045970000006096050080675350151_" cx="-416.0064" cy="1082.0048" r="1" gradientTransform="matrix(419.691 0 0 -419.689 175524 454514.5312)" gradientUnits="userSpaceOnUse">
				<stop  offset="0" style="stop-color:#20EDB7"/>
				<stop  offset="1" style="stop-color:#12344C"/>
			</radialGradient>
			<path style="fill:url(#SVGID_00000054977400072445045970000006096050080675350151_);stroke:#0FA4A4;stroke-miterlimit:10;" d="
				M101.6,226.1c5.6-7.8,11.5-15.5,17.5-23.1C113.1,210.5,107.2,218.2,101.6,226.1z"/>
			
				<radialGradient id="SVGID_00000146467430236073199320000005007004383933776040_" cx="-416.0064" cy="1082.0048" r="1" gradientTransform="matrix(419.689 0 0 -419.689 175523.1562 454514.5312)" gradientUnits="userSpaceOnUse">
				<stop  offset="0" style="stop-color:#20EDB7"/>
				<stop  offset="1" style="stop-color:#12344C"/>
			</radialGradient>
			<path style="fill:url(#SVGID_00000146467430236073199320000005007004383933776040_);stroke:#0FA4A4;stroke-miterlimit:10;" d="
				M157.9,159.6c2.6-2.7,5.3-5.3,8-7.9C163.2,154.4,160.5,157,157.9,159.6z"/>
			
				<radialGradient id="SVGID_00000012449059164920693970000013515822643402318755_" cx="-416.0064" cy="1082.0048" r="1" gradientTransform="matrix(419.688 0 0 -419.694 175522.7344 454519.9688)" gradientUnits="userSpaceOnUse">
				<stop  offset="0" style="stop-color:#20EDB7"/>
				<stop  offset="1" style="stop-color:#12344C"/>
			</radialGradient>
			<path style="fill:url(#SVGID_00000012449059164920693970000013515822643402318755_);stroke:#0FA4A4;stroke-miterlimit:10;" d="
				M168.1,149.6c3.4-3.3,6.9-6.5,10.4-9.7C175,143.1,171.5,146.3,168.1,149.6z"/>
			
				<radialGradient id="SVGID_00000036249767575532015080000012182496775046175618_" cx="-416.0064" cy="1082.0048" r="1" gradientTransform="matrix(419.69 0 0 -419.689 175523.5781 454514.5312)" gradientUnits="userSpaceOnUse">
				<stop  offset="0" style="stop-color:#20EDB7"/>
				<stop  offset="1" style="stop-color:#12344C"/>
			</radialGradient>
			<path style="fill:url(#SVGID_00000036249767575532015080000012182496775046175618_);stroke:#0FA4A4;stroke-miterlimit:10;" d="
				M147.8,170c2.7-2.8,5.4-5.6,8.2-8.4C153.2,164.4,150.5,167.2,147.8,170z"/>
			
				<radialGradient id="SVGID_00000012434109880447723900000006457537244239102351_" cx="-416.0064" cy="1082.0048" r="1" gradientTransform="matrix(419.688 0 0 -419.688 175522.7344 454513.4375)" gradientUnits="userSpaceOnUse">
				<stop  offset="0" style="stop-color:#20EDB7"/>
				<stop  offset="1" style="stop-color:#12344C"/>
			</radialGradient>
			<path style="fill:url(#SVGID_00000012434109880447723900000006457537244239102351_);stroke:#0FA4A4;stroke-miterlimit:10;" d="
				M128.4,191.7c2.9-3.4,5.8-6.8,8.8-10.2C134.2,185,131.3,188.3,128.4,191.7z"/>
			
				<radialGradient id="SVGID_00000067949051379515589430000014513247962147957416_" cx="-416.0064" cy="1082.0048" r="1" gradientTransform="matrix(419.686 0 0 -419.686 175521.9062 454511.3125)" gradientUnits="userSpaceOnUse">
				<stop  offset="0" style="stop-color:#20EDB7"/>
				<stop  offset="1" style="stop-color:#12344C"/>
			</radialGradient>
			<path style="fill:url(#SVGID_00000067949051379515589430000014513247962147957416_);stroke:#0FA4A4;stroke-miterlimit:10;" d="
				M138,180.7c2.8-3.1,5.6-6.2,8.5-9.3C143.6,174.5,140.8,177.6,138,180.7z"/>
			<path class="st11" d="M65.8,291.4c10.1-22.7,22.1-44.6,35.8-65.3c-13.5,18.8-25.8,38.5-36.8,58.9c1.2-2.2,2.3-4.3,3.5-6.5
				C67.5,282.7,66.6,287.1,65.8,291.4z"/>
			<path class="st11" d="M247,87.2l2.8-1.8L247,87.2z"/>
			<path class="st11" d="M256.9,80.9l2.8-1.7L256.9,80.9z"/>
			<path class="st11" d="M156,161.6c0.6-0.7,1.3-1.3,1.9-2C157.2,160.3,156.6,161,156,161.6z"/>
			<path class="st11" d="M268,74.3l1.7-1L268,74.3z"/>
			<path class="st11" d="M146.5,171.5c0.4-0.5,0.9-1,1.3-1.5C147.4,170.5,146.9,171,146.5,171.5z"/>
			<path class="st11" d="M165.9,151.7l2.2-2.2L165.9,151.7z"/>
			<path class="st11" d="M128.1,192.1c0.1-0.1,0.2-0.3,0.3-0.4C128.5,191.6,128.3,192,128.1,192.1z"/>
			<path class="st11" d="M137.2,181.6l0.8-0.9L137.2,181.6z"/>
			<path class="st12" d="M57.4,386.3c0,294.5,238.7,533.2,533.2,533.2c9.4,0,18.6-0.3,27.9-0.7c189.2-57,327-232.5,327-440.3
				c0-253.9-205.8-459.7-459.7-459.7C414.4,18.8,344,35.4,280.2,67.3c-3.5,1.9-7,3.9-10.5,5.9l-1.7,1c-2.7,1.6-5.4,3.2-8.2,4.9
				l-2.8,1.7c-2.4,1.5-4.8,3-7.2,4.6l-2.8,1.8c-3.2,2-6.4,4.2-9.5,6.3c60.4-38.5,130.6-58.9,202.2-58.7
				c99.9,0,195.8,39.7,266.4,110.4c70.7,70.7,110.3,166.5,110.3,266.4c0,99.9-39.7,195.8-110.4,266.4
				c-70.7,70.7-166.5,110.4-266.4,110.4c-49.5,0-98.5-9.7-144.2-28.7c-45.7-18.9-87.3-46.7-122.3-81.7c-35-35-62.8-76.5-81.7-122.2
				c-18.9-45.7-28.7-94.7-28.7-144.2c-0.1-50.8,10.2-101,30.1-147.7c19.9-46.7,49.1-88.9,85.7-124c-3.5,3.2-7,6.4-10.4,9.7l-2.2,2.2
				c-2.7,2.6-5.4,5.2-8,7.9c-0.7,0.7-1.3,1.3-1.9,2c-2.7,2.8-5.5,5.6-8.2,8.4c-0.5,0.5-0.9,1-1.3,1.5c-2.9,3-5.7,6.1-8.5,9.3
				l-0.8,0.9c-3,3.3-5.9,6.7-8.8,10.2c-0.1,0.1-0.2,0.3-0.3,0.4c-3,3.6-6,7.2-9,10.9c-6,7.5-11.9,15.2-17.5,23.1
				c-13.7,20.8-25.6,42.6-35.8,65.3C60.2,322.9,57.4,354.6,57.4,386.3z"/>
			<path class="st13" d="M1080.4,604.7c-0.2,1.4-0.3,2.7-0.5,4.1C1080.1,607.4,1080.2,606.1,1080.4,604.7z"/>
			<path class="st13" d="M1081.4,595.1c0,0.2,0,0.3,0,0.5V595.1z"/>
			<path class="st12" d="M939.5,910.5c0.9-1,1.9-2,2.8-3c1.8-2,3.6-4.1,5.4-6c1-1.1,2-2.2,3-3.4c1.7-2,3.4-4,5.1-6
				c1-1.2,2-2.4,3-3.6c1.7-2,3.3-4.1,4.9-6l3-3.7c1.6-2,3.2-4.1,4.8-6.1l2.9-3.8c1.6-2,3.1-4.1,4.6-6.1l2.8-3.9c1.5-2,3-4.2,4.5-6.3
				l2.7-3.9c1.5-2.2,2.9-4.3,4.4-6.5l2.6-3.9c1.4-2.2,2.9-4.4,4.3-6.7c0.8-1.3,1.6-2.6,2.4-3.9c1.4-2.3,2.8-4.6,4.2-6.9l2.2-3.7
				c1.4-2.4,2.8-4.8,4.1-7.2c0.6-1.2,1.3-2.3,2-3.5c1.4-2.5,2.8-5.1,4.2-7.6c0.5-1,1-1.9,1.5-2.9c1.5-2.8,2.9-5.6,4.4-8.4
				c0.3-0.5,0.5-1,0.8-1.5c7.1-14,13.5-28.3,19.4-42.9c0.1-0.3,0.2-0.6,0.3-0.9c1.2-3.1,2.4-6.1,3.6-9.2l1-2.7c1-2.9,2-5.7,3.1-8.6
				c0.4-1.1,0.8-2.3,1.2-3.5c1-2.8,1.9-5.5,2.8-8.3c0.4-1.3,0.8-2.6,1.3-3.9c0.9-2.7,1.7-5.4,2.5-8.2c0.4-1.4,0.8-2.8,1.2-4.1
				c0.8-2.7,1.5-5.4,2.3-8.2c0.4-1.4,0.8-2.9,1.2-4.3c0.7-2.7,1.4-5.4,2-8.2c0.4-1.5,0.7-3,1.1-4.5c0.7-2.7,1.3-5.4,1.9-8.2l1-4.5
				c0.6-2.7,1.2-5.5,1.7-8.2c0.3-1.5,0.6-3,0.9-4.5c0.5-2.8,1-5.5,1.5-8.3l0.7-4.5c0.4-2.8,0.9-5.6,1.3-8.5c0.2-1.5,0.4-2.9,0.6-4.4
				c0.4-2.9,0.8-5.8,1.2-8.7c0.2-1.4,0.3-2.7,0.5-4.1c0.3-3,0.7-6.1,1-9.1c0-0.2,0-0.3,0-0.5c-77.8,182.6-254.5,312.9-462.9,323.7
				c-43.1,12.9-87.8,19.5-132.7,19.5C231.9,938.4,26,732.6,26,478.7C26,414.1,39.5,350.3,65.8,291.4c0.8-4.3,1.6-8.6,2.5-12.9
				c-1.2,2-2.4,4.3-3.5,6.5l-1.4,2.6c-2,3.8-4.1,7.6-5.9,11.5c-0.4,0.9-0.9,1.7-1.3,2.6c-3.4,6.9-6.7,13.8-9.8,20.9
				c-0.5,1.1-1,2.2-1.4,3.3c-1.6,3.6-3.1,7.2-4.6,10.9c-0.5,1.2-1,2.4-1.5,3.7c-0.9,2.2-1.8,4.4-2.6,6.6c-1,2.7-2,5.3-3,8
				c-0.8,2-1.6,4.2-2.3,6.4c-0.6,1.6-1.1,3.1-1.6,4.7c-1.1,3.1-2.1,6.3-3.2,9.5c-0.6,1.8-1.1,3.5-1.7,5.3c-0.6,1.8-1.2,4.1-1.8,6
				c-0.9,3-1.8,6-2.6,9c-0.5,1.9-1,3.8-1.5,5.7c-0.6,2.2-1.2,4.4-1.7,6.5c-0.6,2.5-1.2,5-1.9,7.6c-0.6,2.5-1.1,4.7-1.7,7.1
				c-0.4,1.8-0.8,3.5-1.2,5.2c-0.7,3.3-1.4,6.7-2,10c-0.3,1.7-0.6,3.3-0.9,4.9c-0.5,2.7-1,5.5-1.5,8.3c-0.3,1.9-0.6,3.8-0.9,5.7
				c-0.4,2.9-0.9,5.9-1.3,8.8c-0.2,1.5-0.4,3.1-0.6,4.6c-0.5,3.6-0.9,7.2-1.3,10.9c-0.2,1.4-0.3,2.9-0.5,4.4
				c-0.3,3.2-0.7,6.5-0.9,9.7l-0.4,4.4c-0.2,3.3-0.5,6.7-0.7,10c0,1.4-0.2,2.8-0.2,4.2c-0.2,3.8-0.4,7.6-0.5,11.5
				c0,1.4,0,2.8-0.1,4.1c0,3.5-0.1,6.9-0.1,10.4c0,0.7,0,1.3,0,2c0,299.3,242.7,542,542,542c3.3,0,6.5,0,9.8-0.1h3.5
				c2.7,0,5.3-0.2,7.9-0.3c1.9,0,3.7-0.1,5.6-0.2c2.5-0.1,5-0.3,7.5-0.4l5.9-0.4c2.4-0.2,4.8-0.4,7.2-0.6l6.1-0.6
				c2.4-0.2,4.7-0.5,7.1-0.8l6.1-0.7l7-0.9l6.1-0.9c2.3-0.3,4.6-0.7,6.9-1.1l6.1-1c2.3-0.4,4.6-0.8,6.8-1.2c2.3-0.4,4.1-0.8,6.1-1.2
				s4.5-0.9,6.7-1.4l6.1-1.3l6.7-1.5l6-1.5l6.6-1.7l6-1.6l6.5-1.8c2-0.5,3.9-1.2,5.9-1.8c2-0.6,4.3-1.3,6.5-2
				c2.1-0.8,3.9-1.3,5.8-1.9c1.9-0.6,4.3-1.4,6.4-2.1c2.1-0.6,3.8-1.3,5.7-2c1.9-0.7,4.3-1.5,6.4-2.3c2.1-0.8,3.7-1.4,5.6-2.1
				c1.9-0.6,4.3-1.6,6.4-2.4l4.2-1.7c4.6-1.9,9.2-3.8,13.8-5.8l5.2-2.2c2-0.9,4.1-2,6.2-2.9c2.2-0.9,3.6-1.6,5.3-2.5
				c1.8-0.9,4.1-2,6.1-3l5.3-2.6l6-3.1c1.8-0.9,3.5-1.8,5.2-2.8l6-3.3l5.1-2.9l5.9-3.4c1.7-1,3.4-2,5.1-3c1.7-1,3.9-2.3,5.8-3.5
				l5-3.1c1.9-1.2,3.8-2.5,5.7-3.7l4.8-3.2l5.7-3.8l4.7-3.3l5.6-4.1c1.5-1.1,3-2.2,4.6-3.3c1.9-1.4,3.8-2.8,5.6-4.1
				c1.5-1.1,2.9-2.2,4.4-3.4c1.9-1.4,3.7-2.9,5.6-4.4l4.1-3.4c1.9-1.5,3.8-3,5.7-4.6c1.3-1.1,2.6-2.2,3.9-3.3
				c1.9-1.6,3.9-3.2,5.8-4.9l3.4-3c2-1.8,4.1-3.6,6.1-5.4l1.9-1.8c7.8-7.1,15.3-14.5,22.6-22.1l1.9-2
				C935.6,914.7,937.5,912.6,939.5,910.5z"/>
			<path class="st12" d="M57.4,386.3c0-31.8,2.8-63.6,8.4-95C39.6,350.3,26,414.1,26.2,478.6c0,253.9,205.8,459.7,459.7,459.7
				c45,0,89.7-6.5,132.7-19.5c-9.2,0.5-18.5,0.7-27.9,0.7C296.1,919.6,57.4,680.8,57.4,386.3z"/>
		</g>
	</g>
</g>
<g id="Layer_2">
	<path class="st12" d="M945.5,478.6c0,207.8-137.8,383.3-327,440.3c208.3-10.7,385.1-141.1,462.9-323.7c1.7-17.5,2.6-35.2,2.6-53.1
		c0-299.4-242.7-542-542-542C450.4,0,360.3,23.2,280.2,67.5C344,35.5,414.4,18.9,485.8,19C739.7,18.9,945.5,224.7,945.5,478.6z"/>
</g>
</svg>
