<?xml version="1.0" encoding="utf-8"?>
<!-- Generator: Adobe Illustrator 25.2.3, SVG Export Plug-In . SVG Version: 6.00 Build 0)  -->
<svg version="1.1" id="Layer_1" xmlns="http://www.w3.org/2000/svg" xmlns:xlink="http://www.w3.org/1999/xlink" x="0px" y="0px"
	 viewBox="0 0 512 512" style="enable-background:new 0 0 512 512;" xml:space="preserve">
<style type="text/css">
	.st0{fill:#1D3B4B;}
</style>
<path class="st0" d="M224,282.7c0-14.7-12-26.7-26.7-26.7c-14.7,0-26.7,12-26.7,26.7c0,14.7,12,26.7,26.7,26.7
	C212,309.4,224,297.4,224,282.7z"/>
<path class="st0" d="M309.6,343.3c-11.5,11.5-36,15.6-53.6,15.6c-17.6,0-42.1-4.1-53.6-15.6c-2.7-2.7-7.1-2.7-9.8,0
	c-2.7,2.7-2.7,7.1,0,9.8c18.2,18.2,53.1,19.6,63.3,19.6s45.1-1.4,63.3-19.6c2.7-2.7,2.7-7.1,0-9.8
	C316.7,340.6,312.3,340.6,309.6,343.3z"/>
<path class="st0" d="M314.7,256c-14.7,0-26.7,12-26.7,26.7c0,14.7,12,26.7,26.7,26.7c14.7,0,26.7-12,26.7-26.7
	C341.4,268,329.4,256,314.7,256z"/>
<path class="st0" d="M475.1,0H36.9C16.5,0,0,16.5,0,36.9v438.1C0,495.5,16.5,512,36.9,512h438.1c20.4,0,36.9-16.5,36.9-36.9V36.9
	C512,16.5,495.5,0,475.1,0z M404.5,290.1c0.6,3.7,0.9,7.4,0.9,11.2c0,57.4-66.9,104-149.4,104s-149.4-46.5-149.4-104
	c0-3.8,0.3-7.6,0.9-11.3c-13-5.8-22.1-18.9-22.1-34c0-20.6,16.7-37.3,37.3-37.3c10,0,19.1,3.9,25.8,10.4
	c25.9-18.7,61.8-30.6,101.6-31.6c0-0.5,18.6-89.3,18.6-89.3c0.4-1.7,1.4-3.2,2.9-4.2c1.5-1,3.3-1.3,5-0.9l62.1,13.2
	c4.4-8.8,13.3-14.9,23.8-14.9c14.7,0,26.7,11.9,26.7,26.7s-11.9,26.7-26.7,26.7c-14.3,0-25.9-11.3-26.5-25.4l-55.6-11.8l-17,80
	c39.2,1.4,74.3,13.3,99.8,31.7c6.7-6.5,15.8-10.5,25.9-10.5c20.6,0,37.3,16.7,37.3,37.3C426.6,271.3,417.5,284.3,404.5,290.1z"/>
</svg>
