<?xml version="1.0" encoding="utf-8"?>
<!-- Generator: Adobe Illustrator 25.3.1, SVG Export Plug-In . SVG Version: 6.00 Build 0)  -->
<svg version="1.1" id="Layer_1" xmlns="http://www.w3.org/2000/svg" xmlns:xlink="http://www.w3.org/1999/xlink" x="0px" y="0px"
	 viewBox="0 0 2689 902" style="enable-background:new 0 0 2689 902;" xml:space="preserve">
<style type="text/css">
	.st0{fill:#FFFFFF;}
</style>
<path class="st0" d="M880.8,631.5c-1.6,0.9-3.2,1.8-4.7,3C877.8,633.7,879.3,632.7,880.8,631.5z"/>
<path class="st0" d="M876.1,634.4c-4,1.9-8.5,3.2-11.8,6.4C868.7,639.6,872.8,637.4,876.1,634.4z"/>
<path class="st0" d="M1232.1,429.1c0.9-0.4,2.8-5.5,0.8-6.5c-16.1-9-47.4-9.5-48.5-32.1c0.1-0.6,0.2-1.2,0.4-1.8
	c4.3-21,6.4-42.3,6.4-63.7c0-41.5-8.1-82.6-24-121c-15.9-38.4-39.2-73.2-68.5-102.6c-29.3-29.4-64.2-52.6-102.5-68.5
	c-38.3-15.9-79.5-24-121-24c-41.5,0-82.6,8.1-121,24c-38.4,15.9-73.2,39.2-102.6,68.5c-29.4,29.4-52.6,64.2-68.5,102.6
	c-15.9,38.4-24,79.5-24,121c0,23.8,2.6,47.6,7.9,70.8l0.4,1.8c7.1,27.4,41.8,26.5,63.5,35c1.4,0.5,3.3,1.9,2.8,3.3
	c-1.2,1.4-2.7,2.5-4.3,3.3c-11.8,4.8-25.1,8.5-34.1,18.5c-1.4,1.8-2.2,3.9-2.4,6.2c-0.2,2.2,0.3,4.5,1.3,6.5l1.6,3.1
	c1.6,3.1,3.3,6.1,5,9.1l1.7,3c15.5,28.6,52.9,21.5,80.5,29.1c0.5,0.5,1.4,1.4,1.4,1.9c-10,11-27.6,12.3-33.7,27
	c-0.2,1.2-0.1,2.5,0.3,3.7c0.4,1.2,1.2,2.2,2.1,3.1l2.5,2.4c2.3,2.2,4.6,4.3,6.9,6.4c0.8,0.7,1.7,1.4,2.5,2.1
	c25,13.2,54,8.5,82,14.6c2.4,0.5,5.7,1.4,5.7,1.9c-5.2,9.9-23.7,6.6-24.2,19c-0.5,4.3,5.2,7.6,8.5,11.2c0.8,0.7,1.7,1.4,2.5,2.1
	c1.6,1.6,3.5,2.8,5.7,3.4l3.1,1.4l3.1,1.3l3.3,1.3c4.7,1.6,8.9,4,13.2,4.4c26.1,1.9,50.8,3.8,76.4,10.4c12.3,3.3,24.7-3.8,37-1.4
	l-0.7,0.6c0.8-0.4,1.7-0.8,2.5-1.1c8.1-2.4,16.6-4.3,25.2-2.4c13.3,2.8,26.1,0.5,38.9,2.8c-5.7,5.7-14.7,4.8-20.9,9.5
	c18.5-1.4,46.5,0.9,57.4-17.6c1.4-1.9,3.5-3.2,5.8-3.6c0.8-0.4,1.7-0.7,2.6-1.1c8.3-3.1,17.3-5.5,22-11.5
	c-19.3-9.5-40.4-12.2-61.3-16.4l-3.1-0.7c-3.3-0.4-6.2-1.4-9.4-2.1l-3.1-0.8l-3.1-0.8c-1.4-0.5-3.3-1-3.8-2.8
	c45.1,1.4,90.6,0,133.3-14.7l3-0.9c15.1-5,28.8-13.3,40.1-24.4c0.4-0.9,0.7-1.8,0.9-2.8c0.3-1,0.4-2,0.6-3.1
	c2.4-27-31.3-23.7-49.7-29.4c2.8-6.7,14.2-4.8,20.5-7.4l3.4-0.5c27.8-3.9,58.2-4.1,73.7-29.3l1.6-3.1c0.5-1,1.1-2.1,1.6-3.1
	c3.2-7.7,9-14.1,16.3-18.1C1204.6,449.9,1248.9,429.9,1232.1,429.1z M1094,430.2c-39.8,13.3-82.6,15.2-118,38.7l-2.8,1.9
	c-29,19.5-63.1,29.9-98,29.9c-15,0-29.9-1.8-44.4-5.5l-3.3-0.9c-17.8-5.9-34.8-13.8-50.8-23.5l-2.8-1.9c-0.9-0.7-1.8-1.3-2.8-2
	c-2.8-2-7-5.4-5.1-8.7c9.5-16.6,33.1-11.4,45.1-25.1c0.9-0.5-3.8-1.9-6.7-2.8c-29.4-9-67.4-4.8-88.4-30.4c-0.6-1-1.2-2.1-1.6-3.1
	c-10-22.6-15.2-47.1-15.1-71.8c0-23.1,4.5-45.9,13.4-67.2c8.8-21.3,21.8-40.7,38.1-57c16.3-16.3,35.7-29.2,57-38.1
	c21.3-8.8,44.1-13.4,67.2-13.4c46.5,0.1,91.1,18.7,124,51.6c32.9,32.9,51.4,77.5,51.6,124c0,23.5-4.6,46.9-13.8,68.5l-1.4,3.1
	c-5.1,6.9,1.5,14,7.7,16.9c15.7,6.6,31.8,8.1,48.4,12.3c1.4,0,3.3,0.5,3.8,1.9C1095.9,428.8,1094.9,429.7,1094,430.2L1094,430.2z"/>
<path class="st0" d="M0,522.6L81.6,407c50.7,50.5,119.4,78.9,191,78.9c52.9,0,85.1-20.6,85.1-49.3c0-81.6-338.8-16.1-338.8-246.5
	C18.8,89.6,104,0,257.3,0c95.9,0,179.3,28.7,243,83.4L416,193.6c-50.2-41.2-115.6-61.8-174.8-61.8c-44.8,0-64.5,17.9-64.5,43
	c0,76.2,337.9,20.6,337.9,243c0,120.1-88.7,199.9-249.2,199.9C144.3,617.6,60.1,580,0,522.6z"/>
<path class="st0" d="M1799.1,606.9V217.8l-151.5,389h-68.1l-150.6-389v389h-154.2V9h214.3l124.6,324.5L1739,9h214.2v597.9H1799.1z"
	/>
<path class="st0" d="M2466.9,606.9l-29.6-86.1h-235.8l-29.6,86.1h-174.8L2222.2,9h193.6l225.9,597.9H2466.9z M2319,161.4
	l-76.2,224.9h152.4L2319,161.4z"/>
<path class="st0" d="M1652.4,898V774.9h32.5v-36.8h-32.5v-6.6c0-15.6,8-23.2,19.9-23.2c5.6,0,10.3,1,13.6,3.3l8.6-31.1
	c-7.6-4-18.2-6.6-30.5-6.6c-30.8,0-53.6,20.2-53.6,57.6v6.6h-26.5v36.8h26.5V898H1652.4z M1729.9,720.9c13.9,0,25.2-11.3,25.2-25.2
	s-11.2-24.8-25.2-24.8c-13.6,0-24.8,10.9-24.8,24.8S1716.4,720.9,1729.9,720.9z M1751.1,898V738.1h-42.1V898H1751.1z"/>
<path class="st0" d="M1943.2,898V785.1c0-31.1-16.9-51-52.3-51c-25.8,0-45.7,12.6-56,24.5v-20.5h-42.1V898h42.1V790.1
	c7.3-9.3,19.9-18.5,36.4-18.5c17.9,0,29.5,7.6,29.5,29.8V898H1943.2z"/>
<path class="st0" d="M2136.9,898V738.1h-42.4v20.5c-12.9-16.6-30.5-24.5-49.3-24.5c-40.7,0-70.9,31.8-70.9,83.8
	c0,53.6,30.8,84.1,70.9,84.1c19.5,0,36.8-8.6,49.3-24.5V898H2136.9z M2058.4,864.6c-24.2,0-40.7-18.9-40.7-46.7
	c0-27.5,16.6-46.4,40.7-46.4c13.9,0,29.1,7.9,36.1,18.5v56.3C2087.6,857,2072.3,864.6,2058.4,864.6z"/>
<path class="st0" d="M2328.9,898V785.1c0-31.1-16.9-51-52.3-51c-25.8,0-45.7,12.6-56,24.5v-20.5h-42V898h42V790.1
	c7.3-9.3,19.9-18.5,36.4-18.5c17.9,0,29.5,7.6,29.5,29.8V898H2328.9z"/>
<path class="st0" d="M2444.8,902c32.8,0,52.6-14.6,63.2-29.1l-27.5-25.8c-7.6,10.9-19.2,17.5-33.8,17.5c-25.5,0-43.4-18.9-43.4-46.7
	c0-27.8,17.9-46.4,43.4-46.4c14.6,0,26.2,6,33.8,17.2l27.5-25.8c-10.6-14.6-30.5-28.8-63.2-28.8c-49,0-84.8,34.8-84.8,83.8
	C2360.1,867.2,2395.8,902,2444.8,902z"/>
<path class="st0" d="M2610.7,902c24.8,0,50-7.6,65.9-22.2l-18.9-27.8c-10.3,9.9-28.8,15.6-42.4,15.6c-27.2,0-43-16.2-46-35.8h118.9
	v-9.9c0-52-32.1-87.7-80.1-87.7c-48.3,0-82.8,37.4-82.8,83.8C2525.3,869.2,2562,902,2610.7,902z M2647.8,802.7H2569
	c1.7-15.9,12.9-34.1,39.1-34.1C2635.9,768.6,2646.5,787.4,2647.8,802.7z"/>
<path class="st0" d="M1519.3,900.5c20.6,0,37.3-16.7,37.3-37.3c0-20.6-16.7-37.3-37.3-37.3c-20.6,0-37.3,16.7-37.3,37.3
	C1482,883.8,1498.7,900.5,1519.3,900.5z"/>
</svg>
