<?xml version="1.0" encoding="utf-8"?>
<!-- Generator: Adobe Illustrator 25.3.1, SVG Export Plug-In . SVG Version: 6.00 Build 0)  -->
<svg version="1.1" id="Layer_1" xmlns="http://www.w3.org/2000/svg" xmlns:xlink="http://www.w3.org/1999/xlink" x="0px" y="0px"
	 viewBox="0 0 36.8 31" style="enable-background:new 0 0 36.8 31;" xml:space="preserve">
<style type="text/css">
	.st0{fill:#FFFFFF;}
	.st1{fill-rule:evenodd;clip-rule:evenodd;fill:#FFFFFF;}
</style>
<g>
	<path class="st0" d="M12.3,29.8c0,1.1-0.8,1.5-1.7,1.1L1,26.1c-0.3-0.1-0.5-0.4-0.7-0.7c-0.2-0.3-0.3-0.6-0.3-1V1.1
		c0-0.9,0.5-1.3,1.7-0.7l10.5,5.2C12.3,5.8,12.2,4.8,12.3,29.8z M13.6,7.9l11,17.7l-11-5.4V7.9z M36.8,8.2v21.6
		c0,0.3-0.1,0.6-0.3,0.8c-0.2,0.2-0.5,0.3-0.8,0.3c-0.3,0-0.6-0.1-1-0.3l-9.1-4.5L36.8,8.2z M36.7,5.8c0,0-1.8,2.9-5.3,8.6
		c-3.5,5.7-5.6,9-6.2,10l-8-13l6.6-10.8C24.3,0,25-0.1,25.5,0.1l11.1,5.5C36.7,5.7,36.7,5.7,36.7,5.8z"/>
</g>
</svg>
