<?xml version="1.0" encoding="utf-8"?>
<!-- Generator: Adobe Illustrator 25.3.1, SVG Export Plug-In . SVG Version: 6.00 Build 0)  -->
<svg version="1.1" id="Layer_1" xmlns="http://www.w3.org/2000/svg" xmlns:xlink="http://www.w3.org/1999/xlink" x="0px" y="0px"
	 viewBox="0 0 36.8 32.8" style="enable-background:new 0 0 36.8 32.8;" xml:space="preserve">
<style type="text/css">
	.st0{fill:#FFFFFF;}
	.st1{fill-rule:evenodd;clip-rule:evenodd;fill:#FFFFFF;}
</style>
<g>
	<path class="st1" d="M34.5,21.6c0-0.4,0-0.8-0.1-1.2c1.4-0.6,2.4-2,2.4-3.7c0-2.2-1.8-4-4-4c-1.1,0-2.1,0.4-2.8,1.1
		c-2.8-2-6.5-3.3-10.8-3.4L21,1.7L27,3c0.1,1.5,1.3,2.7,2.9,2.7c1.6,0,2.9-1.3,2.9-2.9c0-1.6-1.3-2.9-2.9-2.9
		c-1.1,0-2.1,0.7-2.6,1.6l-6.7-1.4c-0.2,0-0.4,0-0.5,0.1c-0.2,0.1-0.3,0.3-0.3,0.5c0,0-2,9.6-2,9.6c-4.3,0.1-8.2,1.4-11,3.4
		c-0.7-0.7-1.7-1.1-2.8-1.1c-2.2,0-4,1.8-4,4c0,1.6,1,3,2.4,3.7c-0.1,0.4-0.1,0.8-0.1,1.2c0,6.2,7.2,11.2,16.1,11.2
		C27.3,32.8,34.5,27.8,34.5,21.6z M12.1,16.7c1.6,0,2.9,1.3,2.9,2.9c0,1.6-1.3,2.9-2.9,2.9s-2.9-1.3-2.9-2.9
		C9.2,18,10.5,16.7,12.1,16.7z M24.2,26.1c-1.2,1.2-3.9,1.7-5.8,1.7c-1.9,0-4.5-0.4-5.8-1.7c-0.3-0.3-0.8-0.3-1.1,0
		c-0.3,0.3-0.3,0.8,0,1.1c2,2,5.7,2.1,6.8,2.1c1.1,0,4.9-0.2,6.8-2.1c0.3-0.3,0.3-0.8,0-1.1C25,25.8,24.5,25.8,24.2,26.1z
		 M21.9,19.6c0-1.6,1.3-2.9,2.9-2.9s2.9,1.3,2.9,2.9c0,1.6-1.3,2.9-2.9,2.9S21.9,21.1,21.9,19.6z"/>
</g>
</svg>
