<?xml version="1.0" encoding="utf-8"?>
<!-- Generator: Adobe Illustrator 25.3.1, SVG Export Plug-In . SVG Version: 6.00 Build 0)  -->
<svg version="1.1" id="Layer_1" xmlns="http://www.w3.org/2000/svg" xmlns:xlink="http://www.w3.org/1999/xlink" x="0px" y="0px"
	 viewBox="0 0 36.8 29.9" style="enable-background:new 0 0 36.8 29.9;" xml:space="preserve">
<style type="text/css">
	.st0{fill:#FFFFFF;}
	.st1{fill-rule:evenodd;clip-rule:evenodd;fill:#FFFFFF;}
</style>
<g>
	<path class="st0" d="M33,7.5c1.5-1.1,2.8-2.4,3.8-3.9c-1.4,0.6-2.8,1-4.3,1.2c1.6-0.9,2.8-2.4,3.3-4.2C34.3,1.4,32.7,2,31,2.4
		C29.6,0.9,27.6,0,25.5,0c-4.2,0-7.5,3.4-7.5,7.5c0,0.6,0.1,1.2,0.2,1.7C11.8,9,6.3,5.9,2.6,1.4c-0.6,1.1-1,2.4-1,3.8
		c0,2.6,1.3,4.9,3.3,6.3c-1.2,0-2.4-0.4-3.4-0.9v0.1c0,3.7,2.6,6.7,6,7.4c-0.6,0.2-1.3,0.3-2,0.3c-0.5,0-1,0-1.4-0.1
		c1,3,3.8,5.2,7,5.3c-2.6,2-5.8,3.2-9.4,3.2c-0.6,0-1.2,0-1.8-0.1c3.3,2.2,7.3,3.4,11.6,3.4C24.9,29.9,33.6,18.8,33,7.5z"/>
</g>
</svg>
