<?xml version="1.0" encoding="utf-8"?>
<!-- Generator: Adobe Illustrator 25.4.1, SVG Export Plug-In . SVG Version: 6.00 Build 0)  -->
<svg version="1.1" id="Layer_1" xmlns="http://www.w3.org/2000/svg" xmlns:xlink="http://www.w3.org/1999/xlink" x="0px" y="0px"
	 viewBox="0 0 35.2 35.2" style="enable-background:new 0 0 35.2 35.2;" xml:space="preserve">
<style type="text/css">
	.st0{fill-rule:evenodd;clip-rule:evenodd;fill:#1D3B4B;}
</style>
<g>
	<path class="st0" d="M35.2,25.6c0,5.3-4.3,9.5-9.5,9.5H9.5c-5.3,0-9.5-4.3-9.5-9.5V9.5C0,4.3,4.3,0,9.5,0h16.1
		c5.3,0,9.5,4.3,9.5,9.5v16.1H35.2z M25.6,3.2H9.5C6,3.2,3.2,6,3.2,9.5v16.1C3.2,29.1,6,32,9.5,32h16.1c3.5,0,6.4-2.8,6.4-6.4V9.5
		C32,6,29.1,3.2,25.6,3.2z M17.6,25.5c-4.4,0-7.9-3.6-7.9-7.9c0-4.4,3.6-7.9,7.9-7.9s7.9,3.6,7.9,7.9C25.5,22,22,25.5,17.6,25.5z
		 M26.7,10.1c-0.9,0-1.6-0.7-1.6-1.6s0.7-1.6,1.6-1.6s1.6,0.7,1.6,1.6C28.3,9.4,27.6,10.1,26.7,10.1z M17.6,22.3
		c2.6,0,4.8-2.1,4.8-4.8s-2.1-4.8-4.8-4.8c-2.6,0-4.8,2.1-4.8,4.8S14.9,22.3,17.6,22.3z"/>
</g>
</svg>
