<?xml version="1.0" encoding="utf-8"?>
<!-- Generator: Adobe Illustrator 25.4.1, SVG Export Plug-In . SVG Version: 6.00 Build 0)  -->
<svg version="1.1" id="Layer_1" xmlns="http://www.w3.org/2000/svg" xmlns:xlink="http://www.w3.org/1999/xlink" x="0px" y="0px"
	 viewBox="0 0 36.8 36.9" style="enable-background:new 0 0 36.8 36.9;" xml:space="preserve">
<style type="text/css">
	.st0{fill:#1D3B4B;}
</style>
<g>
	<path class="st0" d="M23.5,2.7c-0.8,0.9-1.6,1.8-2.4,2.7c-0.9-0.8-1.8-1.6-2.7-2.4c0.8-1,1.7-2,2.6-3C21.8,0.9,22.7,1.8,23.5,2.7z"
		/>
	<path class="st0" d="M30,8.2c-0.8,0.6-1.7,1.1-2.7,1.5c-1.7,0.6-3.5,0.7-5.3,0.5c-1.8-0.3-3.7-1-5.1-2.2c-1-0.8-1.8-1.8-2.3-3
		c0.9,0.6,1.8,1.1,2.7,1.5c1.5,0.6,3.1,0.9,4.7,0.8c1.9-0.2,3.8-1,5.4-2c0.2-0.1,0.3-0.2,0.5-0.3C28.6,6,29.3,7.1,30,8.2z"/>
	<path class="st0" d="M36.8,22.7c0,1.5-0.4,2.9-1,4.2c-0.5,1-1.4,1.9-2.3,2.6c-0.9,0.6-2,1.2-3.1,1.3c-0.5,0.1-1,0-1.4-0.1
		c-0.6-0.1-1.2-0.3-1.7-0.7c-0.7-0.4-1.3-1-1.7-1.7c-0.6-1-0.9-2.2-0.9-3.4c0.3,0.2,0.6,0.5,0.9,0.7c0.8,0.6,1.7,1.1,2.7,1.4
		c0.9,0.3,1.7,0.4,2.6,0.2c1-0.2,1.9-0.6,2.5-1.4c0.7-0.7,1.1-1.6,1.3-2.5c0.2-1,0.1-2.1-0.2-3.1c-0.2-0.7-0.4-1.3-0.8-1.9
		c-0.4-0.7-1-1.3-1.6-1.8c-0.7-0.5-1.4-0.7-2.2-0.8c-0.7-0.1-1.4,0-2.1,0.2c-1.1,0.4-2.1,1.2-2.7,2.2c-0.7,1-1.2,2.2-1.7,3.3
		c-0.5,0.9-1,1.8-1.7,2.5c-0.4,0.4-0.8,0.8-1.3,1.1c-0.2,0.1-0.2,0.3-0.3,0.5c-0.1,0.6,0,1.2,0,1.8c0,1.1-0.2,2.2-0.5,3.2
		c-0.5,1.5-1.5,2.9-2.7,3.9c-1.4,1.2-3,1.9-4.7,2.3c-0.9,0.2-1.8,0.3-2.7,0.2c-1.7-0.2-3.4-0.7-4.9-1.6C3,34.5,1.7,33.4,0.8,32
		C0.3,31.1,0,30,0,29c1.7,0.8,3.3,1.8,5,2.4c1,0.4,1.9,0.6,2.9,0.8c1.8,0.2,3.6,0,5.3-0.5c0.8-0.2,1.6-0.7,2.2-1.2
		c1.3-1.2,2-3.2,1.5-5c-0.1-0.5-0.3-1-0.7-1.4c-0.5-0.5-1.2-0.7-1.8-0.9c-0.8-0.2-1.7-0.4-2.5-0.5c-0.3-1.1-0.5-2.3-0.7-3.4
		c0-0.1,0-0.3-0.1-0.4c0.3,0,0.7-0.1,1-0.2c0.7-0.1,1.4-0.1,2.1-0.3c0.5-0.2,1.1-0.4,1.4-0.9c0.4-0.5,0.5-1.1,0.5-1.8
		s-0.2-1.4-0.6-2c-0.4-0.7-0.9-1.3-1.6-1.6c-0.5-0.3-1.2-0.5-1.8-0.4c-1,0.1-1.9,0.4-2.9,0.7C8,12.9,6.7,13.5,5.4,14
		c-0.7-1-1.3-2.1-2-3.1c1.2-1.4,2.7-2.4,4.5-3c1.2-0.4,2.5-0.5,3.8-0.3c1.5,0.2,2.9,0.8,4.1,1.7c1,0.8,1.9,1.8,2.3,3
		s0.5,2.4,0.2,3.7c-0.3,1.6-1.1,3.1-2,4.4c1,1,2,1.9,3,2.9c0.3-0.9,0.5-1.8,0.8-2.7c0.4-1.2,0.7-2.5,1.3-3.6
		c0.4-0.8,0.9-1.5,1.5-2.2c0.9-1,1.9-1.8,3.2-2.2c1.5-0.5,3.1-0.4,4.6,0c1.2,0.4,2.3,1,3.1,2c0.6,0.7,1.1,1.5,1.6,2.4
		C36.3,18.7,36.8,20.7,36.8,22.7z"/>
	<path class="st0" d="M35.4,16.9c-0.4-0.9-0.9-1.7-1.6-2.4c-0.8-0.9-1.9-1.6-3.1-2c-1.5-0.4-3.1-0.5-4.6,0c-1.3,0.4-2.3,1.2-3.2,2.2
		c-0.6,0.7-1.1,1.4-1.5,2.2c-0.6,1.1-0.9,2.4-1.3,3.6c-0.3,0.9-0.5,1.8-0.8,2.7c-1-1-2-1.9-3-2.9c0.9-1.4,1.6-2.8,2-4.4
		c0.2-1.2,0.2-2.5-0.2-3.7c-0.4-1.2-1.3-2.2-2.3-3c-1.2-0.9-2.6-1.5-4.1-1.7c-1.3-0.2-2.6-0.1-3.8,0.3c-1.7,0.5-3.3,1.6-4.5,3
		c0.6,1.1,1.3,2.1,2,3.1c1.3-0.5,2.6-1,3.9-1.5c0.9-0.3,1.9-0.6,2.9-0.7c0.6-0.1,1.2,0.1,1.8,0.4c0.7,0.4,1.2,1,1.6,1.6
		s0.6,1.3,0.6,2c0,0.6-0.1,1.2-0.5,1.8c-0.3,0.5-0.8,0.7-1.4,0.9c-0.7,0.2-1.4,0.2-2.1,0.3c-0.4,0-0.7,0.1-1,0.2
		c0,0.1,0,0.3,0.1,0.4c0.2,1.1,0.5,2.3,0.7,3.4c0.9,0.1,1.7,0.3,2.5,0.5c0.6,0.2,1.3,0.4,1.8,0.9c0.4,0.4,0.6,0.8,0.7,1.4
		c0.4,1.8-0.2,3.7-1.5,5c-0.6,0.6-1.4,1-2.2,1.2c-1.7,0.5-3.5,0.7-5.3,0.5c-1-0.1-2-0.4-2.9-0.8c-1.7-0.7-3.4-1.7-5-2.4
		c0,1.1,0.3,2.1,0.8,3c0.8,1.4,2.1,2.5,3.6,3.3s3.2,1.4,4.9,1.6c0.9,0.1,1.8,0,2.7-0.2c1.7-0.4,3.4-1.1,4.7-2.3
		c1.2-1,2.2-2.4,2.7-3.9c0.4-1,0.5-2.1,0.5-3.2c0-0.6-0.1-1.2,0-1.8c0-0.2,0.1-0.4,0.3-0.5c0.5-0.3,0.9-0.6,1.3-1.1
		c0.7-0.7,1.2-1.6,1.7-2.5c0.6-1.1,1.1-2.2,1.7-3.3c0.6-1,1.6-1.7,2.7-2.2c0.7-0.3,1.4-0.3,2.1-0.2c0.8,0.1,1.5,0.4,2.2,0.8
		c0.7,0.5,1.2,1.1,1.6,1.8c0.4,0.6,0.6,1.2,0.8,1.9c0.3,1,0.4,2.1,0.2,3.1c-0.2,0.9-0.7,1.8-1.3,2.5c-0.7,0.7-1.5,1.2-2.5,1.4
		c-0.9,0.1-1.8,0-2.6-0.2c-1-0.3-1.9-0.8-2.7-1.4c-0.3-0.2-0.6-0.5-0.9-0.7c0,1.2,0.3,2.4,0.9,3.4c0.4,0.7,1,1.3,1.7,1.7
		c0.5,0.3,1.1,0.5,1.7,0.7c0.5,0.1,0.9,0.2,1.4,0.1c1.1-0.1,2.2-0.6,3.1-1.3c0.9-0.7,1.8-1.6,2.3-2.6c0.6-1.3,0.9-2.8,1-4.2
		C36.8,20.7,36.3,18.7,35.4,16.9z M16.9,8c1.5,1.2,3.3,1.9,5.1,2.2c1.8,0.3,3.6,0.1,5.3-0.5c1-0.3,1.9-0.8,2.7-1.5
		c-0.7-1.1-1.4-2.2-2.1-3.3c-0.2,0.1-0.3,0.2-0.5,0.3c-1.6,1-3.4,1.9-5.4,2c-1.6,0.2-3.2-0.1-4.7-0.8c-1-0.4-1.9-0.9-2.7-1.5
		C15.1,6.1,15.9,7.2,16.9,8z M23.5,2.7c-0.8-0.9-1.7-1.8-2.6-2.7c-0.9,1-1.7,2-2.6,3c0.9,0.8,1.8,1.6,2.7,2.4
		C21.9,4.5,22.7,3.7,23.5,2.7z"/>
	<path class="st0" d="M23.5,2.7c-0.8,0.9-1.6,1.8-2.4,2.7c-0.9-0.8-1.8-1.6-2.7-2.4c0.8-1,1.7-2,2.6-3C21.8,0.9,22.7,1.8,23.5,2.7z"
		/>
	<path class="st0" d="M30,8.2c-0.8,0.6-1.7,1.1-2.7,1.5c-1.7,0.6-3.5,0.7-5.3,0.5c-1.8-0.3-3.7-1-5.1-2.2c-1-0.8-1.8-1.8-2.3-3
		c0.9,0.6,1.8,1.1,2.7,1.5c1.5,0.6,3.1,0.9,4.7,0.8c1.9-0.2,3.8-1,5.4-2c0.2-0.1,0.3-0.2,0.5-0.3C28.6,6,29.3,7.1,30,8.2z"/>
	<path class="st0" d="M36.8,22.7c0,1.5-0.4,2.9-1,4.2c-0.5,1-1.4,1.9-2.3,2.6c-0.9,0.6-2,1.2-3.1,1.3c-0.5,0.1-1,0-1.4-0.1
		c-0.6-0.1-1.2-0.3-1.7-0.7c-0.7-0.4-1.3-1-1.7-1.7c-0.6-1-0.9-2.2-0.9-3.4c0.3,0.2,0.6,0.5,0.9,0.7c0.8,0.6,1.7,1.1,2.7,1.4
		c0.9,0.3,1.7,0.4,2.6,0.2c1-0.2,1.9-0.6,2.5-1.4c0.7-0.7,1.1-1.6,1.3-2.5c0.2-1,0.1-2.1-0.2-3.1c-0.2-0.7-0.4-1.3-0.8-1.9
		c-0.4-0.7-1-1.3-1.6-1.8c-0.7-0.5-1.4-0.7-2.2-0.8c-0.7-0.1-1.4,0-2.1,0.2c-1.1,0.4-2.1,1.2-2.7,2.2c-0.7,1-1.2,2.2-1.7,3.3
		c-0.5,0.9-1,1.8-1.7,2.5c-0.4,0.4-0.8,0.8-1.3,1.1c-0.2,0.1-0.2,0.3-0.3,0.5c-0.1,0.6,0,1.2,0,1.8c0,1.1-0.2,2.2-0.5,3.2
		c-0.5,1.5-1.5,2.9-2.7,3.9c-1.4,1.2-3,1.9-4.7,2.3c-0.9,0.2-1.8,0.3-2.7,0.2c-1.7-0.2-3.4-0.7-4.9-1.6C3,34.5,1.7,33.4,0.8,32
		C0.3,31.1,0,30,0,29c1.7,0.8,3.3,1.8,5,2.4c1,0.4,1.9,0.6,2.9,0.8c1.8,0.2,3.6,0,5.3-0.5c0.8-0.2,1.6-0.7,2.2-1.2
		c1.3-1.2,2-3.2,1.5-5c-0.1-0.5-0.3-1-0.7-1.4c-0.5-0.5-1.2-0.7-1.8-0.9c-0.8-0.2-1.7-0.4-2.5-0.5c-0.3-1.1-0.5-2.3-0.7-3.4
		c0-0.1,0-0.3-0.1-0.4c0.3,0,0.7-0.1,1-0.2c0.7-0.1,1.4-0.1,2.1-0.3c0.5-0.2,1.1-0.4,1.4-0.9c0.4-0.5,0.5-1.1,0.5-1.8
		s-0.2-1.4-0.6-2c-0.4-0.7-0.9-1.3-1.6-1.6c-0.5-0.3-1.2-0.5-1.8-0.4c-1,0.1-1.9,0.4-2.9,0.7C8,12.9,6.7,13.5,5.4,14
		c-0.7-1-1.3-2.1-2-3.1c1.2-1.4,2.7-2.4,4.5-3c1.2-0.4,2.5-0.5,3.8-0.3c1.5,0.2,2.9,0.8,4.1,1.7c1,0.8,1.9,1.8,2.3,3
		s0.5,2.4,0.2,3.7c-0.3,1.6-1.1,3.1-2,4.4c1,1,2,1.9,3,2.9c0.3-0.9,0.5-1.8,0.8-2.7c0.4-1.2,0.7-2.5,1.3-3.6
		c0.4-0.8,0.9-1.5,1.5-2.2c0.9-1,1.9-1.8,3.2-2.2c1.5-0.5,3.1-0.4,4.6,0c1.2,0.4,2.3,1,3.1,2c0.6,0.7,1.1,1.5,1.6,2.4
		C36.3,18.7,36.8,20.7,36.8,22.7z"/>
	<path class="st0" d="M23.5,2.7c-0.8,0.9-1.6,1.8-2.4,2.7c-0.9-0.8-1.8-1.6-2.7-2.4c0.8-1,1.7-2,2.6-3C21.8,0.9,22.7,1.8,23.5,2.7z"
		/>
	<path class="st0" d="M30,8.2c-0.8,0.6-1.7,1.1-2.7,1.5c-1.7,0.6-3.5,0.7-5.3,0.5c-1.8-0.3-3.7-1-5.1-2.2c-1-0.8-1.8-1.8-2.3-3
		c0.9,0.6,1.8,1.1,2.7,1.5c1.5,0.6,3.1,0.9,4.7,0.8c1.9-0.2,3.8-1,5.4-2c0.2-0.1,0.3-0.2,0.5-0.3C28.6,6,29.3,7.1,30,8.2z"/>
	<path class="st0" d="M36.8,22.7c0,1.5-0.4,2.9-1,4.2c-0.5,1-1.4,1.9-2.3,2.6c-0.9,0.6-2,1.2-3.1,1.3c-0.5,0.1-1,0-1.4-0.1
		c-0.6-0.1-1.2-0.3-1.7-0.7c-0.7-0.4-1.3-1-1.7-1.7c-0.6-1-0.9-2.2-0.9-3.4c0.3,0.2,0.6,0.5,0.9,0.7c0.8,0.6,1.7,1.1,2.7,1.4
		c0.9,0.3,1.7,0.4,2.6,0.2c1-0.2,1.9-0.6,2.5-1.4c0.7-0.7,1.1-1.6,1.3-2.5c0.2-1,0.1-2.1-0.2-3.1c-0.2-0.7-0.4-1.3-0.8-1.9
		c-0.4-0.7-1-1.3-1.6-1.8c-0.7-0.5-1.4-0.7-2.2-0.8c-0.7-0.1-1.4,0-2.1,0.2c-1.1,0.4-2.1,1.2-2.7,2.2c-0.7,1-1.2,2.2-1.7,3.3
		c-0.5,0.9-1,1.8-1.7,2.5c-0.4,0.4-0.8,0.8-1.3,1.1c-0.2,0.1-0.2,0.3-0.3,0.5c-0.1,0.6,0,1.2,0,1.8c0,1.1-0.2,2.2-0.5,3.2
		c-0.5,1.5-1.5,2.9-2.7,3.9c-1.4,1.2-3,1.9-4.7,2.3c-0.9,0.2-1.8,0.3-2.7,0.2c-1.7-0.2-3.4-0.7-4.9-1.6C3,34.5,1.7,33.4,0.8,32
		C0.3,31.1,0,30,0,29c1.7,0.8,3.3,1.8,5,2.4c1,0.4,1.9,0.6,2.9,0.8c1.8,0.2,3.6,0,5.3-0.5c0.8-0.2,1.6-0.7,2.2-1.2
		c1.3-1.2,2-3.2,1.5-5c-0.1-0.5-0.3-1-0.7-1.4c-0.5-0.5-1.2-0.7-1.8-0.9c-0.8-0.2-1.7-0.4-2.5-0.5c-0.3-1.1-0.5-2.3-0.7-3.4
		c0-0.1,0-0.3-0.1-0.4c0.3,0,0.7-0.1,1-0.2c0.7-0.1,1.4-0.1,2.1-0.3c0.5-0.2,1.1-0.4,1.4-0.9c0.4-0.5,0.5-1.1,0.5-1.8
		s-0.2-1.4-0.6-2c-0.4-0.7-0.9-1.3-1.6-1.6c-0.5-0.3-1.2-0.5-1.8-0.4c-1,0.1-1.9,0.4-2.9,0.7C8,12.9,6.7,13.5,5.4,14
		c-0.7-1-1.3-2.1-2-3.1c1.2-1.4,2.7-2.4,4.5-3c1.2-0.4,2.5-0.5,3.8-0.3c1.5,0.2,2.9,0.8,4.1,1.7c1,0.8,1.9,1.8,2.3,3
		s0.5,2.4,0.2,3.7c-0.3,1.6-1.1,3.1-2,4.4c1,1,2,1.9,3,2.9c0.3-0.9,0.5-1.8,0.8-2.7c0.4-1.2,0.7-2.5,1.3-3.6
		c0.4-0.8,0.9-1.5,1.5-2.2c0.9-1,1.9-1.8,3.2-2.2c1.5-0.5,3.1-0.4,4.6,0c1.2,0.4,2.3,1,3.1,2c0.6,0.7,1.1,1.5,1.6,2.4
		C36.3,18.7,36.8,20.7,36.8,22.7z"/>
</g>
</svg>
