<?xml version="1.0" encoding="utf-8"?>
<!-- Generator: Adobe Illustrator 25.4.1, SVG Export Plug-In . SVG Version: 6.00 Build 0)  -->
<svg version="1.1" id="Layer_1" xmlns="http://www.w3.org/2000/svg" xmlns:xlink="http://www.w3.org/1999/xlink" x="0px" y="0px"
	 viewBox="0 0 36.8 35.3" style="enable-background:new 0 0 36.8 35.3;" xml:space="preserve">
<style type="text/css">
	.st0{fill:#1D3B4B;}
</style>
<g>
	<path class="st0" d="M24.2,35.2c-0.9,0.2-1.3-0.4-1.3-0.9c0-0.6,0-2.5,0-5c0-1.7-0.6-2.8-1.2-3.3c4.1-0.4,8.4-2,8.4-8.9
		c0-1.8-0.7-3.5-1.9-4.9C28.4,11.8,29,10,28,7.5c0,0-1.5-0.5-5,1.9c-3-0.8-6.2-0.8-9.2,0C10.3,7,8.7,7.5,8.7,7.5
		c-1,2.5-0.4,4.3-0.2,4.8c-1.2,1.3-1.9,3.1-1.9,4.9c0,6.9,4.3,8.5,8.4,8.9c-0.7,0.6-1.1,1.5-1.2,2.4c-1,0.5-3.7,1.3-5.4-1.5
		c0,0-1-1.7-2.8-1.9c0,0-1.8,0-0.1,1.1c0,0,1.2,0.6,2,2.6c0,0,1.1,3.5,6.2,2.4c0,1.5,0,2.6,0,3.1s-0.3,1-1.3,0.9
		C5.3,32.9,0,26.1,0,18.1C0,8.1,8.2,0,18.4,0s18.4,8.1,18.4,18.1C36.8,26.1,31.5,32.8,24.2,35.2z"/>
</g>
</svg>
