<?xml version="1.0" encoding="utf-8"?>
<!-- Generator: Adobe Illustrator 25.4.1, SVG Export Plug-In . SVG Version: 6.00 Build 0)  -->
<svg version="1.1" id="Layer_1" xmlns="http://www.w3.org/2000/svg" xmlns:xlink="http://www.w3.org/1999/xlink" x="0px" y="0px"
	 viewBox="0 0 32.7 32.7" style="enable-background:new 0 0 32.7 32.7;" xml:space="preserve">
<style type="text/css">
	.st0{fill:#1D3B4B;}
</style>
<g>
	<path class="st0" d="M7.3,32.7H0.6V10.8h6.8L7.3,32.7L7.3,32.7z M4,7.9C1.8,7.9,0,6.1,0,4c0-2.2,1.7-4,3.9-4s3.9,1.7,4,3.9
		C7.9,6.1,6.1,7.9,4,7.9z M32.7,32.7h-6.8V22c0-2.5,0-5.8-3.5-5.8s-4.1,2.8-4.1,5.6v10.8h-6.7V10.8h6.5v3h0.1
		c0.9-1.7,3.1-3.5,6.4-3.5c6.8,0,8.1,4.5,8.1,10.4L32.7,32.7L32.7,32.7z"/>
</g>
</svg>
