<?xml version="1.0" encoding="utf-8"?>
<!-- Generator: Adobe Illustrator 25.2.3, SVG Export Plug-In . SVG Version: 6.00 Build 0)  -->
<svg version="1.1" id="Capa_1" xmlns="http://www.w3.org/2000/svg" xmlns:xlink="http://www.w3.org/1999/xlink" x="0px" y="0px"
	 viewBox="0 0 512 512" style="enable-background:new 0 0 512 512;" xml:space="preserve">
<style type="text/css">
	.st0{fill:#FFFFFF;}
</style>
<path class="st0" d="M512,187.1C512,84,428,0,324.9,0c-88,0-162,61-181.9,143C61,162.9,0,236.9,0,324.9C0,428,84,512,187.1,512
	c88,0,162-61,181.9-143C451,349.1,512,275.1,512,187.1L512,187.1z M187.1,482C100.5,482,30,411.5,30,324.9
	c0-69.5,45.4-128.6,108.1-149.3c-0.2,3.8-0.4,7.7-0.4,11.6c0,103.2,84,187.1,187.1,187.1c3.9,0,7.7-0.1,11.6-0.4
	C315.8,436.6,256.7,482,187.1,482L187.1,482z M344.3,324.9c0,6.2-0.4,12.3-1.1,18.4c-6,0.7-12.1,1.1-18.4,1.1
	c-39.5,0-75.7-14.7-103.3-38.8h121.6C343.9,311.8,344.3,318.3,344.3,324.9z M194.9,275.4c-8.1-11.9-14.6-25-19.2-38.9h141.4
	c8.1,11.9,14.6,25,19.2,38.9H194.9z M168.9,206.6c-0.8-6.4-1.2-12.9-1.2-19.4c0-6.2,0.4-12.3,1.1-18.4c6-0.7,12.1-1.1,18.4-1.1
	c39.5,0,75.7,14.7,103.3,38.9H168.9z M373.9,336.4c0.2-3.8,0.4-7.7,0.4-11.6c0-103.2-84-187.1-187.1-187.1c-3.9,0-7.7,0.1-11.6,0.4
	C196.2,75.4,255.3,30,324.9,30C411.5,30,482,100.5,482,187.1C482,256.7,436.6,315.8,373.9,336.4L373.9,336.4z"/>
</svg>
