<?xml version="1.0" encoding="utf-8"?>
<!-- Generator: Adobe Illustrator 25.2.3, SVG Export Plug-In . SVG Version: 6.00 Build 0)  -->
<svg version="1.1" id="Layer_1" xmlns="http://www.w3.org/2000/svg" xmlns:xlink="http://www.w3.org/1999/xlink" x="0px" y="0px"
	 viewBox="0 0 512 512" style="enable-background:new 0 0 512 512;" xml:space="preserve">
<style type="text/css">
	.st0{fill:#FFFFFF;}
</style>
<path class="st0" d="M159.2,321l-39.4,39.4l-11.1-11.1c-6-6-15.7-6-21.7,0s-6,15.7,0,21.7l22,22c6,6,15.7,6,21.7,0l50.3-50.3
	c6-6,6-15.7,0-21.7S165.2,315,159.2,321z"/>
<path class="st0" d="M211.6,139.4h118.2c8.5,0,15.4-6.9,15.4-15.4s-6.9-15.4-15.4-15.4H211.6c-8.5,0-15.4,6.9-15.4,15.4
	S203.1,139.4,211.6,139.4z"/>
<path class="st0" d="M159.2,78.5l-39.4,39.4l-11.1-11.1c-6-6-15.7-6-21.7,0c-6,6-6,15.7,0,21.7l22,22c6,6,15.7,6,21.7,0l50.3-50.3
	c6-6,6-15.7,0-21.7C174.9,72.5,165.2,72.5,159.2,78.5z"/>
<path class="st0" d="M211.6,260.6h118.2c8.5,0,15.4-6.9,15.4-15.4s-6.9-15.4-15.4-15.4H211.6c-8.5,0-15.4,6.9-15.4,15.4
	S203.1,260.6,211.6,260.6z"/>
<path class="st0" d="M159.2,199.7l-39.4,39.4l-11.1-11.1c-6-6-15.7-6-21.7,0s-6,15.7,0,21.7l22,22c6,6,15.7,6,21.7,0l50.3-50.3
	c6-6,6-15.7,0-21.7S165.2,193.7,159.2,199.7z"/>
<path class="st0" d="M407.2,289V15.4c0-8.5-6.9-15.4-15.4-15.4H31.4C22.9,0,16,6.9,16,15.4V462c0,8.5,6.9,15.4,15.4,15.4h270.4
	c20.5,21.4,49.4,34.7,81.3,34.7c62.2,0,112.8-50.6,112.8-112.8C495.8,345.3,457.8,300.1,407.2,289z M46.7,446.6V30.7h329.8v255.9
	c-42.3,2.4-78.4,28.2-95.6,64.6h-69.3c-8.5,0-15.4,6.9-15.4,15.4c0,8.5,6.9,15.4,15.4,15.4h59.9c-3.3,21.4-0.5,44.1,9.1,64.7H46.7z
	 M383,481.3c-45.3,0-82.1-36.8-82.1-82.1s36.8-82.1,82.1-82.1c45.2,0,82.1,36.8,82.1,82.1S428.3,481.3,383,481.3z"/>
<path class="st0" d="M445.5,355.1c-6-6-15.7-6-21.7,0c-5.4,5.4-50.4,50.4-55.7,55.7l-25.9-25.9c-4.8-4.8-11.8-5.7-17.5-3
	c-9.4,4.5-11.8,17.2-4.2,24.7l36.7,36.8c6.1,6.1,15.8,5.9,21.7,0l66.6-66.6C451.5,370.8,451.5,361.1,445.5,355.1z"/>
</svg>
