<?xml version="1.0" encoding="utf-8"?>
<!-- Generator: Adobe Illustrator 25.2.3, SVG Export Plug-In . SVG Version: 6.00 Build 0)  -->
<svg version="1.1" id="solid" xmlns="http://www.w3.org/2000/svg" xmlns:xlink="http://www.w3.org/1999/xlink" x="0px" y="0px"
	 viewBox="0 0 512 512" style="enable-background:new 0 0 512 512;" xml:space="preserve">
<style type="text/css">
	.st0{fill:#FFFFFF;}
</style>
<path class="st0" d="M37.3,192h37.3v224c0,11.8,9.5,21.3,21.3,21.3s21.3-9.5,21.3-21.3V192h37.3c20.6,0,37.3-16.7,37.3-37.3v-5.3H96
	c-29.4,0-53.3-23.9-53.3-53.3S66.6,42.7,96,42.7h96v-5.3C192,16.7,175.3,0,154.7,0H37.3C16.7,0,0,16.7,0,37.3v117.3
	C0,175.3,16.7,192,37.3,192z"/>
<path class="st0" d="M474.7,320h-37.3V96c0-11.8-9.5-21.3-21.3-21.3c-11.8,0-21.3,9.5-21.3,21.3v224h-37.3
	c-20.6,0-37.3,16.7-37.3,37.3v5.3h96c29.4,0,53.3,23.9,53.3,53.3c0,29.4-23.9,53.3-53.3,53.3h-96v5.3c0,20.6,16.7,37.3,37.3,37.3
	h117.3c20.6,0,37.3-16.7,37.3-37.3V357.3C512,336.7,495.3,320,474.7,320z"/>
<path class="st0" d="M474.7,0H357.3C336.7,0,320,16.7,320,37.3v37.3H96c-11.8,0-21.3,9.5-21.3,21.3s9.5,21.3,21.3,21.3h224v37.3
	c0,20.6,16.7,37.3,37.3,37.3h5.3V96c0-29.4,23.9-53.3,53.3-53.3c29.4,0,53.3,23.9,53.3,53.3v96h5.3c20.6,0,37.3-16.7,37.3-37.3V37.3
	C512,16.7,495.3,0,474.7,0z"/>
<path class="st0" d="M37.3,512h117.3c20.6,0,37.3-16.7,37.3-37.3v-37.3h224c11.8,0,21.3-9.5,21.3-21.3c0-11.8-9.5-21.3-21.3-21.3
	H192v-37.3c0-20.6-16.7-37.3-37.3-37.3h-5.3v96c0,29.4-23.9,53.3-53.3,53.3S42.7,445.4,42.7,416v-96h-5.3C16.7,320,0,336.7,0,357.3
	v117.3C0,495.3,16.7,512,37.3,512z"/>
</svg>
