<?xml version="1.0" encoding="utf-8"?>
<!-- Generator: Adobe Illustrator 25.2.3, SVG Export Plug-In . SVG Version: 6.00 Build 0)  -->
<svg version="1.1" id="Layer_2_1_" xmlns="http://www.w3.org/2000/svg" xmlns:xlink="http://www.w3.org/1999/xlink" x="0px" y="0px"
	 viewBox="0 0 512 512" style="enable-background:new 0 0 512 512;" xml:space="preserve">
<style type="text/css">
	.st0{fill:#FFFFFF;}
</style>
<path class="st0" d="M282.3,168c0-8.8-7.2-16-16-16H264v32h2.3C275.2,184,282.3,176.8,282.3,168z"/>
<path class="st0" d="M248,104h-2.3c-8.8,0-16,7.2-16,16s7.2,16,16,16h2.3V104z"/>
<path class="st0" d="M256,256c61.9,0,112-50.1,112-112S317.9,32,256,32S144,82.1,144,144S194.1,256,256,256z M245.7,152
	c-17.7,0-32-14.3-32-32s14.3-32,32-32h2.3V68.6h16V88h2.3c17.7,0,32,14.3,32,32h-16c0-8.8-7.2-16-16-16H264v32h2.3
	c17.7,0,32,14.3,32,32s-14.3,32-32,32H264v19.4h-16V200h-2.3c-17.7,0-32-14.3-32-32h16c0,8.8,7.2,16,16,16h2.3v-32H245.7z"/>
<path class="st0" d="M192,312v40h-32c-4.4,0-8,3.6-8,8v80c0,4.4,3.6,8,8,8h32v40h16v-40h32c4.4,0,8-3.6,8-8v-80c0-4.4-3.6-8-8-8h-32
	v-40H192z"/>
<path class="st0" d="M384,448h32v40h16v-40h32c4.4,0,8-3.6,8-8v-80c0-4.4-3.6-8-8-8h-32v-40h-16v40h-32c-4.4,0-8,3.6-8,8v80
	C376,444.4,379.6,448,384,448z"/>
<path class="st0" d="M48,392h32v40h16v-40h32c4.4,0,8-3.6,8-8v-80c0-4.4-3.6-8-8-8H96v-40H80v40H48c-4.4,0-8,3.6-8,8v80
	C40,388.4,43.6,392,48,392z M56,312h64v64H56V312z"/>
<path class="st0" d="M304,264v40h-32c-4.4,0-8,3.6-8,8v80c0,4.4,3.6,8,8,8h32v40h16v-40h32c4.4,0,8-3.6,8-8v-80c0-4.4-3.6-8-8-8h-32
	v-40H304z M344,320v64h-64v-64H344z"/>
</svg>
