<?xml version="1.0" encoding="utf-8"?>
<!-- Generator: Adobe Illustrator 25.2.3, SVG Export Plug-In . SVG Version: 6.00 Build 0)  -->
<svg version="1.1" id="Layer_1" xmlns="http://www.w3.org/2000/svg" xmlns:xlink="http://www.w3.org/1999/xlink" x="0px" y="0px"
	 viewBox="0 0 512 512" style="enable-background:new 0 0 512 512;" xml:space="preserve">
<style type="text/css">
	.st0{fill:#1D3B4B;}
</style>
<g id="Layer_2_1_">
	<g id="github">
		<path class="st0" d="M442.2,0H69.8C31.3,0,0,31.3,0,69.8v372.4C0,480.7,31.3,512,69.8,512h372.4c38.6,0,69.8-31.3,69.8-69.8V69.8
			C512,31.3,480.7,0,442.2,0z M306,408.8c-8.1,1.6-11-3.3-11-7.5c0-5.2,0.2-22,0.2-43.1c0-14.7-5.2-24.4-10.8-29.1
			c35.6-3.9,73-17.2,73-77.5c0.2-15.7-5.7-30.8-16.4-42.2c1.6-4,7.1-20-1.6-41.6c0,0-13.2-4.2-43.6,16.1c-26.2-7.1-53.8-7.1-80,0
			c-30.6-20.3-44-16.1-44-16.1c-8.6,21.7-3.2,37.6-1.4,41.6c-10.7,11.4-16.5,26.6-16.2,42.2c0,60.2,37.2,73.8,72.7,77.7
			c-5.9,5.5-9.5,13-10.3,21c-9.1,4-32.3,11-46.5-13.1c0,0-8.4-15.1-24.5-16.2c0,0-15.7-0.2-1.1,9.5c0,0,10.5,4.9,17.8,23
			c0,0,9.4,30.6,53.9,21.1c0.2,13.1,0.2,22.6,0.2,26.7c0,4.2-2.9,9-10.9,7.6C141.8,388.3,96,329.4,96,259.9
			c0-86.8,71.6-157.2,160-157.2c88.3,0,160,70.4,159.8,157.2C415.8,329.2,370,388.2,306,408.8z"/>
	</g>
</g>
</svg>
