<?xml version="1.0" encoding="utf-8"?>
<!-- Generator: Adobe Illustrator 25.2.3, SVG Export Plug-In . SVG Version: 6.00 Build 0)  -->
<svg version="1.1" id="Layer_1" xmlns="http://www.w3.org/2000/svg" xmlns:xlink="http://www.w3.org/1999/xlink" x="0px" y="0px"
	 viewBox="0 0 512 512" style="enable-background:new 0 0 512 512;" xml:space="preserve">
<style type="text/css">
	.st0{fill:#FFFFFF;}
</style>
<g id="_x35_1.GitHub">
	<path id="Icon_83_" class="st0" d="M183.9,460.8c14.6,0,18.5-5.7,18.5-12.8c0-6.3-0.2-23.1-0.3-45.3
		c-75.5,16.1-91.4-35.8-91.4-35.8c-12.3-30.8-30.2-39-30.2-39c-24.6-16.5,1.9-16.2,1.9-16.2c27.2,1.9,41.6,27.5,41.6,27.5
		c24.2,40.8,63.5,29,79,22.2c2.4-17.3,9.4-29,17.2-35.7C159.9,319,96.6,296.1,96.6,193.9c0-29.1,10.5-52.9,27.9-71.5
		c-3.1-6.7-12.2-33.8,2.4-70.6c0,0,22.7-7.1,74.6,27.3c21.7-5.9,44.8-8.9,67.8-9c23.1,0.1,46.1,3.1,67.8,9
		c51.6-34.5,74.3-27.3,74.3-27.3c14.6,36.7,5.4,63.8,2.7,70.6c17.3,18.7,27.8,42.4,27.8,71.5c0,102.4-63.4,125-123.8,131.5
		c9.5,8,18.3,24.4,18.3,49.3c0,35.7-0.3,64.4-0.3,73c0,7,3,12.7,18.7,12.7L183.9,460.8z"/>
</g>
</svg>
