<?xml version="1.0" encoding="utf-8"?>
<!-- Generator: Adobe Illustrator 25.2.3, SVG Export Plug-In . SVG Version: 6.00 Build 0)  -->
<svg version="1.1" xmlns="http://www.w3.org/2000/svg" xmlns:xlink="http://www.w3.org/1999/xlink" x="0px" y="0px"
	 viewBox="0 0 1500 1500" style="enable-background:new 0 0 1500 1500;" xml:space="preserve">
<style type="text/css">
	.st0{fill:#C5C5C5;}
	.st1{fill:#EEEEEE;}
	.st2{fill:#1D3B4B;}
</style>
<g id="Layer_1">
	<path class="st0" d="M1041.9,58.9C952.2,21,853.6,0,750,0C439.3,0,172.8,188.9,58.9,458.1C21,547.8,0,646.5,0,750
		c0,414.2,335.8,750,750,750v-356c-217.6,0-394-176.4-394-394s176.4-394,394-394c106.6,0,203.3,42.3,274.2,111.1l247.8-255.7
		C1205.8,147.3,1128,95.3,1041.9,58.9z"/>
	<path class="st1" d="M1041.9,58.9C952.2,21,853.6,0,750,0C439.3,0,172.8,188.9,58.9,458.1C21,547.8,0,646.5,0,750
		c0,414.2,335.8,750,750,750v-356c-217.6,0-394-176.4-394-394s176.4-394,394-394c106.6,0,203.3,42.3,274.2,111.1l247.8-255.7
		C1205.8,147.3,1128,95.3,1041.9,58.9z"/>
</g>
<g id="Layer_2">
</g>
</svg>
