<?xml version="1.0" encoding="utf-8"?>
<!-- Generator: Adobe Illustrator 25.2.3, SVG Export Plug-In . SVG Version: 6.00 Build 0)  -->
<svg version="1.1" id="Layer_1" xmlns="http://www.w3.org/2000/svg" xmlns:xlink="http://www.w3.org/1999/xlink" x="0px" y="0px"
	 viewBox="0 0 512 512" style="enable-background:new 0 0 512 512;" xml:space="preserve">
<style type="text/css">
	.st0{fill:#1D3B4B;}
</style>
<path class="st0" d="M301,256c0,24.9-20.1,45-45,45s-45-20.1-45-45s20.1-45,45-45S301,231.1,301,256z"/>
<path class="st0" d="M332,120H180c-33.1,0-60,26.9-60,60v152c0,33.1,26.9,60,60,60h152c33.1,0,60-26.9,60-60V180
	C392,146.9,365.1,120,332,120z M256,331c-41.4,0-75-33.6-75-75s33.6-75,75-75s75,33.6,75,75S297.4,331,256,331z M342,185
	c-8.3,0-15-6.7-15-15s6.7-15,15-15s15,6.7,15,15S350.3,185,342,185z"/>
<path class="st0" d="M377,0H135C60.6,0,0,60.6,0,135v242c0,74.4,60.6,135,135,135h242c74.4,0,135-60.6,135-135V135
	C512,60.6,451.4,0,377,0z M422,332c0,49.6-40.4,90-90,90H180c-49.6,0-90-40.4-90-90V180c0-49.6,40.4-90,90-90h152
	c49.6,0,90,40.4,90,90V332z"/>
</svg>
