<?xml version="1.0" encoding="utf-8"?>
<!-- Generator: Adobe Illustrator 25.2.3, SVG Export Plug-In . SVG Version: 6.00 Build 0)  -->
<svg version="1.1" id="Layer_1" xmlns="http://www.w3.org/2000/svg" xmlns:xlink="http://www.w3.org/1999/xlink" x="0px" y="0px"
	 viewBox="0 0 676.9 679.9" style="enable-background:new 0 0 676.9 679.9;" xml:space="preserve">
<style type="text/css">
	.st0{fill:#EC1A6C;}
	.st1{fill:#FFFFFF;}
	.st2{fill:#1D3B4B;}
</style>
<g>
	<path class="st0" d="M432.6,50.6c-14.4,16.8-29.9,32.8-45,49.2c-16.5-14.6-32.7-29.5-49-44.3c15.3-18.8,31.1-37.2,47-55.5
		C401.5,16.6,417.1,33.6,432.6,50.6z"/>
	<path class="st1" d="M552.7,151.4c-15.2,11.8-32.2,21.1-50.4,27.4c-31.2,11-65.2,13.5-97.8,8.5c-34-5.3-67.3-18.8-94-40.7
		c-17.8-14.7-33.2-33.9-41.8-55.5c15.8,11,32.4,20.6,50.2,28c27.4,11.5,57.1,16.9,86.8,13.9c35.7-3.3,69.4-18.2,99.2-37.5
		c2.9-1.8,5.4-3.9,8.6-5.3C526.2,110.8,539.4,131.1,552.7,151.4z"/>
	<path class="st1" d="M676.9,417.3c-0.7,26.8-7,53.1-17.5,77.8c-8.8,19.3-25,35.7-42,47.9c-16.5,11.8-36.4,21.2-56.7,23.4
		c-8.9,1-17.5-0.2-26.2-2.1c-11.1-2.5-22-6.3-31.9-12c-13.1-7.4-24.2-18.1-31.9-31c-11.3-18.4-16.1-41.3-17-62.7
		c5.7,4.2,11.4,8.4,17,12.7c15.1,11.4,31.4,20.8,49.5,26.5c15.7,5.1,32.1,6.9,48.5,4.3c17.9-2.9,34.3-11.9,46.4-25.5
		c12-13,20.5-28.9,24-46.2c3.9-19.1,1.6-38.5-4-57.1c-3.8-12.1-8.1-23.6-14.7-34.5c-7.7-12.8-17.8-24.3-30.1-32.8
		c-12-8.3-26-13.5-40.5-15.1c-13-1.1-25.9-0.4-38.2,4.3c-20,7.5-39.1,21.2-50.3,39.6c-12.1,18.7-21.6,40.2-32.1,60
		c-8.4,16.1-18.5,32.7-31.4,45.7c-7.3,7.6-15.5,14.1-24.6,19.4c-3.6,1.9-4.4,5.8-5.1,9.4c-1.5,10.7-0.4,22.1-0.5,33
		c0,20.3-3.3,40.6-10.1,59.8c-9.8,27.9-27.1,53.1-49.7,72.3c-24.9,21.3-55.1,35.1-87.2,41.6c-16.5,3.3-33.2,4.9-50,3.4
		c-31.5-2.9-62.4-13.5-89.9-29.1c-25.9-14.9-50.2-35.6-65.5-61.5C5.5,571.9-0.2,553,0,533.4c30.7,13.9,61.2,32.5,92.6,44.8
		c17.1,6.8,34.8,11.7,53.1,13.9c32.8,3.9,66.6,0.1,98.1-9.5c15-4.4,29-12,40.4-22.8c24.6-22.9,35.9-58.9,28.3-91.7
		c-2.1-9.4-5.6-18.2-12.8-24.9c-8.7-8.3-21.5-12.9-32.9-16.1c-15.4-4.3-31.2-7.2-46.9-9.9c-4.8-20.9-9.1-41.8-13.1-62.8
		c-0.5-2.4-0.9-4.8-1.2-7.2c6.4-0.8,12.5-2.5,19-2.8c12.6-1,25.7-1.8,37.9-5.1c10-2.8,19.4-7.7,25.7-16.3c7-9.7,8.9-20.9,9.4-32.6
		c0.1-13-3.8-25.7-10.3-36.9c-7.2-12.5-17.4-23.1-29.9-30.1c-10-5.6-21.4-8.5-32.9-7.5c-17.8,1.5-35.7,6.8-52.5,13
		c-24.3,8.9-48,19.9-72.4,28.3c-12.1-19.1-24.7-38.2-36.3-57.6c21.6-25.5,50.1-45.1,82.2-55c22.6-7,46.5-9.2,69.9-5.9
		c27.3,3.7,53.4,14.7,75.3,31.4c18.8,14,34.1,32.3,42.3,54.5c8.2,21.8,8.7,45.1,4.1,67.8c-6,29.6-19.7,56.7-36,81.9
		c18.6,17.5,37.2,35,55.5,52.8c5.6-16.5,10-33.4,15.6-49.9c7.7-21.5,13.5-45.6,24.4-65.6c7.9-14.1,16.9-28.1,27.5-40.4
		c15.8-18.6,35.1-33.6,58.5-41.4c26.8-9.1,57-7.6,83.8,0.5c21.9,6.5,41.6,19.2,56.7,36.3c11.8,13.3,21,28.3,28.7,44.3
		C668.3,343.6,677.7,380.7,676.9,417.3z"/>
	<path class="st1" d="M652.1,310.8c-7.8-16-16.9-31-28.7-44.3c-15.1-17.2-34.8-29.8-56.7-36.3c-26.8-8-57.1-9.6-83.8-0.5
		c-23.3,7.8-42.6,22.8-58.5,41.4c-10.6,12.3-19.6,26.3-27.5,40.4c-10.9,20-16.6,44.1-24.4,65.6c-5.5,16.5-10,33.4-15.6,49.9
		c-18.3-17.8-36.9-35.3-55.5-52.8c16.3-25.2,30-52.2,36-81.9c4.6-22.6,4.1-46-4.1-67.8c-8.2-22.2-23.5-40.4-42.3-54.5
		c-21.9-16.7-48-27.7-75.3-31.4c-23.4-3.3-47.4-1.1-69.9,5.9c-32.1,9.9-60.6,29.4-82.2,55C75.1,219,87.8,238,99.9,257.1
		c24.5-8.3,48.1-19.3,72.4-28.3c16.7-6.1,34.7-11.5,52.5-13c11.5-1,22.9,1.9,32.9,7.5c12.5,7.1,22.8,17.7,29.9,30.1
		c6.5,11.2,10.4,23.9,10.3,36.9c-0.5,11.7-2.4,22.9-9.4,32.6c-6.2,8.6-15.6,13.5-25.7,16.3c-12.2,3.3-25.4,4.1-37.9,5.1
		c-6.5,0.2-12.6,1.9-19,2.8c0.3,2.4,0.7,4.8,1.2,7.2c4,21,8.4,42,13.1,62.8c15.7,2.7,31.5,5.6,46.9,9.9c11.4,3.2,24.2,7.8,32.9,16.1
		c7.2,6.7,10.6,15.5,12.8,24.9c7.6,32.8-3.7,68.9-28.3,91.7c-11.4,10.8-25.3,18.4-40.4,22.8c-31.5,9.6-65.3,13.4-98.1,9.5
		c-18.3-2.3-36-7.2-53.1-13.9c-31.4-12.3-62-30.9-92.6-44.8c-0.2,19.5,5.5,38.5,15.4,55.3c15.3,26,39.5,46.6,65.5,61.5
		c27.4,15.6,58.4,26.2,89.9,29.1c16.8,1.5,33.5-0.1,50-3.4c32-6.5,62.3-20.2,87.2-41.6c22.5-19.2,39.9-44.4,49.7-72.3
		c6.8-19.2,10.1-39.5,10.1-59.8c0.1-10.8-1-22.3,0.5-33c0.7-3.7,1.5-7.5,5.1-9.4c9-5.4,17.3-11.9,24.6-19.4
		c12.8-13,22.9-29.5,31.4-45.7c10.5-19.8,19.9-41.3,32.1-60c11.2-18.4,30.3-32.1,50.3-39.6c12.3-4.7,25.2-5.4,38.2-4.3
		c14.5,1.6,28.5,6.8,40.5,15.1c12.3,8.5,22.5,20,30.1,32.8c6.5,10.9,10.9,22.5,14.7,34.5c5.6,18.5,7.9,37.9,4,57.1
		c-3.4,17.4-12,33.3-24,46.2c-12,13.6-28.4,22.6-46.4,25.5c-16.3,2.5-32.8,0.7-48.5-4.3c-18.1-5.7-34.4-15.1-49.5-26.5
		c-5.6-4.3-11.4-8.4-17-12.7c0.8,21.4,5.6,44.2,17,62.7c7.8,12.9,18.9,23.6,31.9,31c9.9,5.7,20.8,9.5,31.9,12
		c8.7,2,17.3,3.2,26.2,2.1c20.3-2.1,40.2-11.6,56.7-23.4c17-12.2,33.2-28.7,42-47.9c10.4-24.7,16.7-51,17.5-77.8
		C677.7,380.7,668.3,343.6,652.1,310.8z M310.4,146.5c26.7,21.9,60.1,35.4,94,40.7c32.6,5,66.6,2.5,97.8-8.5
		c18.2-6.3,35.2-15.6,50.4-27.4c-13.3-20.3-26.5-40.6-39.2-61.2c-3.1,1.5-5.6,3.5-8.6,5.3c-29.9,19.3-63.5,34.2-99.2,37.5
		c-29.7,3-59.3-2.4-86.8-13.9c-17.8-7.4-34.4-17-50.2-28C277.2,112.6,292.6,131.9,310.4,146.5z M432.6,50.6
		c-15.5-17.1-31-34-47-50.6c-15.9,18.3-31.7,36.7-47,55.5c16.3,14.8,32.5,29.7,49,44.3C402.6,83.5,418.1,67.5,432.6,50.6z"/>
	<path class="st1" d="M432.6,50.6c-14.4,16.8-29.9,32.8-45,49.2c-16.5-14.6-32.7-29.5-49-44.3c15.3-18.8,31.1-37.2,47-55.5
		C401.5,16.6,417.1,33.6,432.6,50.6z"/>
	<path class="st1" d="M552.7,151.4c-15.2,11.8-32.2,21.1-50.4,27.4c-31.2,11-65.2,13.5-97.8,8.5c-34-5.3-67.3-18.8-94-40.7
		c-17.8-14.7-33.2-33.9-41.8-55.5c15.8,11,32.4,20.6,50.2,28c27.4,11.5,57.1,16.9,86.8,13.9c35.7-3.3,69.4-18.2,99.2-37.5
		c2.9-1.8,5.4-3.9,8.6-5.3C526.2,110.8,539.4,131.1,552.7,151.4z"/>
	<path class="st1" d="M676.9,417.3c-0.7,26.8-7,53.1-17.5,77.8c-8.8,19.3-25,35.7-42,47.9c-16.5,11.8-36.4,21.2-56.7,23.4
		c-8.9,1-17.5-0.2-26.2-2.1c-11.1-2.5-22-6.3-31.9-12c-13.1-7.4-24.2-18.1-31.9-31c-11.3-18.4-16.1-41.3-17-62.7
		c5.7,4.2,11.4,8.4,17,12.7c15.1,11.4,31.4,20.8,49.5,26.5c15.7,5.1,32.1,6.9,48.5,4.3c17.9-2.9,34.3-11.9,46.4-25.5
		c12-13,20.5-28.9,24-46.2c3.9-19.1,1.6-38.5-4-57.1c-3.8-12.1-8.1-23.6-14.7-34.5c-7.7-12.8-17.8-24.3-30.1-32.8
		c-12-8.3-26-13.5-40.5-15.1c-13-1.1-25.9-0.4-38.2,4.3c-20,7.5-39.1,21.2-50.3,39.6c-12.1,18.7-21.6,40.2-32.1,60
		c-8.4,16.1-18.5,32.7-31.4,45.7c-7.3,7.6-15.5,14.1-24.6,19.4c-3.6,1.9-4.4,5.8-5.1,9.4c-1.5,10.7-0.4,22.1-0.5,33
		c0,20.3-3.3,40.6-10.1,59.8c-9.8,27.9-27.1,53.1-49.7,72.3c-24.9,21.3-55.1,35.1-87.2,41.6c-16.5,3.3-33.2,4.9-50,3.4
		c-31.5-2.9-62.4-13.5-89.9-29.1c-25.9-14.9-50.2-35.6-65.5-61.5C5.5,571.9-0.2,553,0,533.4c30.7,13.9,61.2,32.5,92.6,44.8
		c17.1,6.8,34.8,11.7,53.1,13.9c32.8,3.9,66.6,0.1,98.1-9.5c15-4.4,29-12,40.4-22.8c24.6-22.9,35.9-58.9,28.3-91.7
		c-2.1-9.4-5.6-18.2-12.8-24.9c-8.7-8.3-21.5-12.9-32.9-16.1c-15.4-4.3-31.2-7.2-46.9-9.9c-4.8-20.9-9.1-41.8-13.1-62.8
		c-0.5-2.4-0.9-4.8-1.2-7.2c6.4-0.8,12.5-2.5,19-2.8c12.6-1,25.7-1.8,37.9-5.1c10-2.8,19.4-7.7,25.7-16.3c7-9.7,8.9-20.9,9.4-32.6
		c0.1-13-3.8-25.7-10.3-36.9c-7.2-12.5-17.4-23.1-29.9-30.1c-10-5.6-21.4-8.5-32.9-7.5c-17.8,1.5-35.7,6.8-52.5,13
		c-24.3,8.9-48,19.9-72.4,28.3c-12.1-19.1-24.7-38.2-36.3-57.6c21.6-25.5,50.1-45.1,82.2-55c22.6-7,46.5-9.2,69.9-5.9
		c27.3,3.7,53.4,14.7,75.3,31.4c18.8,14,34.1,32.3,42.3,54.5c8.2,21.8,8.7,45.1,4.1,67.8c-6,29.6-19.7,56.7-36,81.9
		c18.6,17.5,37.2,35,55.5,52.8c5.6-16.5,10-33.4,15.6-49.9c7.7-21.5,13.5-45.6,24.4-65.6c7.9-14.1,16.9-28.1,27.5-40.4
		c15.8-18.6,35.1-33.6,58.5-41.4c26.8-9.1,57-7.6,83.8,0.5c21.9,6.5,41.6,19.2,56.7,36.3c11.8,13.3,21,28.3,28.7,44.3
		C668.3,343.6,677.7,380.7,676.9,417.3z"/>
	<path class="st2" d="M432.6,50.6c-14.4,16.8-29.9,32.8-45,49.2c-16.5-14.6-32.7-29.5-49-44.3c15.3-18.8,31.1-37.2,47-55.5
		C401.5,16.6,417.1,33.6,432.6,50.6z"/>
	<path class="st2" d="M552.7,151.4c-15.2,11.8-32.2,21.1-50.4,27.4c-31.2,11-65.2,13.5-97.8,8.5c-34-5.3-67.3-18.8-94-40.7
		c-17.8-14.7-33.2-33.9-41.8-55.5c15.8,11,32.4,20.6,50.2,28c27.4,11.5,57.1,16.9,86.8,13.9c35.7-3.3,69.4-18.2,99.2-37.5
		c2.9-1.8,5.4-3.9,8.6-5.3C526.2,110.8,539.4,131.1,552.7,151.4z"/>
	<path class="st2" d="M676.9,417.3c-0.7,26.8-7,53.1-17.5,77.8c-8.8,19.3-25,35.7-42,47.9c-16.5,11.8-36.4,21.2-56.7,23.4
		c-8.9,1-17.5-0.2-26.2-2.1c-11.1-2.5-22-6.3-31.9-12c-13.1-7.4-24.2-18.1-31.9-31c-11.3-18.4-16.1-41.3-17-62.7
		c5.7,4.2,11.4,8.4,17,12.7c15.1,11.4,31.4,20.8,49.5,26.5c15.7,5.1,32.1,6.9,48.5,4.3c17.9-2.9,34.3-11.9,46.4-25.5
		c12-13,20.5-28.9,24-46.2c3.9-19.1,1.6-38.5-4-57.1c-3.8-12.1-8.1-23.6-14.7-34.5c-7.7-12.8-17.8-24.3-30.1-32.8
		c-12-8.3-26-13.5-40.5-15.1c-13-1.1-25.9-0.4-38.2,4.3c-20,7.5-39.1,21.2-50.3,39.6c-12.1,18.7-21.6,40.2-32.1,60
		c-8.4,16.1-18.5,32.7-31.4,45.7c-7.3,7.6-15.5,14.1-24.6,19.4c-3.6,1.9-4.4,5.8-5.1,9.4c-1.5,10.7-0.4,22.1-0.5,33
		c0,20.3-3.3,40.6-10.1,59.8c-9.8,27.9-27.1,53.1-49.7,72.3c-24.9,21.3-55.1,35.1-87.2,41.6c-16.5,3.3-33.2,4.9-50,3.4
		c-31.5-2.9-62.4-13.5-89.9-29.1c-25.9-14.9-50.2-35.6-65.5-61.5C5.5,571.9-0.2,553,0,533.4c30.7,13.9,61.2,32.5,92.6,44.8
		c17.1,6.8,34.8,11.7,53.1,13.9c32.8,3.9,66.6,0.1,98.1-9.5c15-4.4,29-12,40.4-22.8c24.6-22.9,35.9-58.9,28.3-91.7
		c-2.1-9.4-5.6-18.2-12.8-24.9c-8.7-8.3-21.5-12.9-32.9-16.1c-15.4-4.3-31.2-7.2-46.9-9.9c-4.8-20.9-9.1-41.8-13.1-62.8
		c-0.5-2.4-0.9-4.8-1.2-7.2c6.4-0.8,12.5-2.5,19-2.8c12.6-1,25.7-1.8,37.9-5.1c10-2.8,19.4-7.7,25.7-16.3c7-9.7,8.9-20.9,9.4-32.6
		c0.1-13-3.8-25.7-10.3-36.9c-7.2-12.5-17.4-23.1-29.9-30.1c-10-5.6-21.4-8.5-32.9-7.5c-17.8,1.5-35.7,6.8-52.5,13
		c-24.3,8.9-48,19.9-72.4,28.3c-12.1-19.1-24.7-38.2-36.3-57.6c21.6-25.5,50.1-45.1,82.2-55c22.6-7,46.5-9.2,69.9-5.9
		c27.3,3.7,53.4,14.7,75.3,31.4c18.8,14,34.1,32.3,42.3,54.5c8.2,21.8,8.7,45.1,4.1,67.8c-6,29.6-19.7,56.7-36,81.9
		c18.6,17.5,37.2,35,55.5,52.8c5.6-16.5,10-33.4,15.6-49.9c7.7-21.5,13.5-45.6,24.4-65.6c7.9-14.1,16.9-28.1,27.5-40.4
		c15.8-18.6,35.1-33.6,58.5-41.4c26.8-9.1,57-7.6,83.8,0.5c21.9,6.5,41.6,19.2,56.7,36.3c11.8,13.3,21,28.3,28.7,44.3
		C668.3,343.6,677.7,380.7,676.9,417.3z"/>
</g>
</svg>
