<?xml version="1.0" encoding="utf-8"?>
<!-- Generator: Adobe Illustrator 25.2.3, SVG Export Plug-In . SVG Version: 6.00 Build 0)  -->
<svg version="1.1" id="Capa_1" xmlns="http://www.w3.org/2000/svg" xmlns:xlink="http://www.w3.org/1999/xlink" x="0px" y="0px"
	 viewBox="0 0 512 512" style="enable-background:new 0 0 512 512;" xml:space="preserve">
<style type="text/css">
	.st0{fill:#FFFFFF;}
</style>
<path class="st0" d="M426.2,258.7V83.4h-60l0-42.9L259.8,113C251.2,49.3,196.5,0,130.5,0C58.5,0,0,58.6,0,130.6
	c0,55.5,34.8,103,83.7,121.9v176h60l0,42.9L252,397.6C260,462,315,512,381.5,512c72,0,130.5-58.6,130.5-130.6
	C512,325.1,476.2,277,426.2,258.7L426.2,258.7z M336.2,97.3l0,16.2h60v138.1c-4.8-0.5-9.7-0.8-14.7-0.8c-5.2,0-10.3,0.3-15.3,0.9
	l0-108.2h-30l0,16.3l-45.8-31.3L336.2,97.3z M105.7,119c0-13.7,11.1-24.8,24.8-24.8s24.8,11.1,24.8,24.8s-11.1,24.8-24.8,24.8
	S105.7,132.6,105.7,119z M130.5,173.8c25.6,0,46.9,19.2,50,44c-14.7,8.5-31.8,13.4-50,13.4s-35.3-4.9-50-13.4
	C83.6,193,104.9,173.8,130.5,173.8z M173.8,253.8c46.6-16.5,81.2-58.7,86.5-109.5l75.9,51.8v62.8c-46,17.1-79.8,59.5-84.6,110.2
	l-77.9-53.2L173.8,253.8z M30,130.6C30,75.1,75.1,30,130.5,30S231,75.1,231,130.6c0,25.3-9.4,48.5-24.9,66.2
	c-6.4-17.5-18.7-32.2-34.5-41.7c8.5-9.7,13.6-22.3,13.6-36.1c0-30.2-24.6-54.8-54.8-54.8S75.7,88.8,75.7,119
	c0,13.8,5.2,26.5,13.6,36.1c-15.8,9.4-28.1,24.1-34.5,41.7C39.4,179.1,30,155.9,30,130.6z M173.7,414.7l0-16.2h-60V260.1
	c5.5,0.7,11.1,1.1,16.8,1.1c4.5,0,8.9-0.2,13.3-0.7l-0.1,107.9h30l0-16.3l45.8,31.3L173.7,414.7z M331.2,468.5
	c2.1-26,23.8-46.5,50.3-46.5s48.2,20.5,50.3,46.5c-14.8,8.6-32,13.5-50.3,13.5S346,477,331.2,468.5z M356.7,367.2
	c0-13.7,11.1-24.8,24.8-24.8s24.8,11.1,24.8,24.8s-11.1,24.8-24.8,24.8S356.7,380.8,356.7,367.2z M457.8,446.8
	c-6.2-18.4-18.8-33.8-35.1-43.5c8.5-9.7,13.6-22.3,13.6-36.1c0-30.2-24.6-54.8-54.8-54.8s-54.8,24.6-54.8,54.8
	c0,13.8,5.2,26.5,13.6,36.1c-16.4,9.8-29,25.2-35.1,43.5c-15.1-17.6-24.2-40.5-24.2-65.4c0-55.5,45.1-100.6,100.5-100.6
	S482,325.9,482,381.4C482,406.4,472.9,429.2,457.8,446.8L457.8,446.8z"/>
</svg>
