<?xml version="1.0" encoding="utf-8"?>
<!-- Generator: Adobe Illustrator 25.2.3, SVG Export Plug-In . SVG Version: 6.00 Build 0)  -->
<svg version="1.1" id="Layer_1" xmlns="http://www.w3.org/2000/svg" xmlns:xlink="http://www.w3.org/1999/xlink" x="0px" y="0px"
	 viewBox="0 0 512 512" style="enable-background:new 0 0 512 512;" xml:space="preserve">
<style type="text/css">
	.st0{fill:#FFFFFF;}
</style>
<g>
	<path class="st0" d="M236.9,297.4c-4.1,0-8.2-1.6-11.3-4.7c-6.2-6.2-6.2-16.4,0-22.6l103.7-103.7c6.2-6.2,16.4-6.2,22.6,0
		c6.2,6.2,6.2,16.4,0,22.6L248.2,292.7C245.1,295.8,241,297.4,236.9,297.4L236.9,297.4z"/>
</g>
<g>
	<path class="st0" d="M236.9,297.4c-4.1,0-8.2-1.6-11.3-4.7l-52.3-52.3c-6.2-6.2-6.2-16.4,0-22.6c6.2-6.2,16.4-6.2,22.6,0l52.3,52.3
		c6.2,6.2,6.2,16.4,0,22.6C245.1,295.8,241,297.4,236.9,297.4z"/>
</g>
<g>
	<path class="st0" d="M256,464c-1.7,0-3.4-0.3-5-0.8C148.7,429.5,80,334.4,80,226.7c0-8.8,7.2-16,16-16s16,7.2,16,16
		c0,93.9,59.9,176.7,149,206.1c8.4,2.8,13,11.8,10.2,20.2C269,459.7,262.7,464,256,464L256,464z"/>
</g>
<g>
	<path class="st0" d="M96,242.7c-8.8,0-16-7.2-16-16V113.5c0-8.8,7.2-16,16-16s16,7.2,16,16v113.2C112,235.6,104.8,242.7,96,242.7z"
		/>
</g>
<g>
	<path class="st0" d="M96,129.5c-7.9,0-14.7-5.8-15.8-13.8c-1.2-8.8,4.9-16.8,13.6-18c54-7.5,106.2-23.7,155.1-48
		c7.9-3.9,17.5-0.7,21.5,7.2c3.9,7.9,0.7,17.5-7.2,21.5c-52,25.9-107.4,43.1-164.9,51.1C97.5,129.5,96.7,129.5,96,129.5L96,129.5z"
		/>
</g>
<g>
	<path class="st0" d="M256,464c-6.7,0-13-4.3-15.2-11c-2.8-8.4,1.8-17.4,10.2-20.2c89.1-29.4,149-112.2,149-206.1
		c0-8.8,7.2-16,16-16s16,7.2,16,16c0,107.7-68.7,202.7-171,236.5C259.3,463.7,257.7,464,256,464z"/>
</g>
<g>
	<path class="st0" d="M416,242.7c-8.8,0-16-7.2-16-16V113.5c0-8.8,7.2-16,16-16s16,7.2,16,16v113.2C432,235.6,424.8,242.7,416,242.7
		z"/>
</g>
<g>
	<path class="st0" d="M416,129.5c-0.7,0-1.5,0-2.2-0.2c-57.5-8-113-25.2-164.9-51.1c-7.9-3.9-11.1-13.5-7.2-21.5
		c3.9-7.9,13.5-11.1,21.5-7.2c48.8,24.3,101,40.5,155.1,48c8.8,1.2,14.9,9.3,13.6,18C430.7,123.7,423.9,129.5,416,129.5L416,129.5z"
		/>
</g>
</svg>
