<?xml version="1.0" encoding="utf-8"?>
<!-- Generator: Adobe Illustrator 25.2.3, SVG Export Plug-In . SVG Version: 6.00 Build 0)  -->
<svg version="1.1" id="Layer_1" xmlns="http://www.w3.org/2000/svg" xmlns:xlink="http://www.w3.org/1999/xlink" x="0px" y="0px"
	 viewBox="0 0 1625.6 291.1" style="enable-background:new 0 0 1625.6 291.1;" xml:space="preserve">
<style type="text/css">
	.st0{opacity:0.6;fill:url(#SVGID_1_);}
	.st1{fill:#747474;}
	.st2{fill:url(#SVGID_2_);}
	.st3{fill:url(#SVGID_3_);}
	.st4{fill:url(#SVGID_4_);}
	.st5{fill:url(#SVGID_5_);}
	.st6{fill:url(#SVGID_6_);}
	.st7{fill:url(#SVGID_7_);}
	.st8{fill:url(#SVGID_8_);}
	.st9{fill:url(#SVGID_9_);}
	.st10{fill:url(#SVGID_10_);}
	.st11{fill:url(#SVGID_11_);}
	.st12{fill:url(#SVGID_12_);}
	.st13{fill:url(#SVGID_13_);}
	.st14{fill:url(#SVGID_14_);}
	.st15{fill:url(#SVGID_15_);}
	.st16{fill:url(#SVGID_16_);}
	.st17{fill:url(#SVGID_17_);}
	.st18{fill:url(#SVGID_18_);}
	.st19{fill:url(#SVGID_19_);}
	.st20{fill:url(#SVGID_20_);}
	.st21{fill:url(#SVGID_21_);}
	.st22{fill:url(#SVGID_22_);}
	.st23{fill:url(#SVGID_23_);}
	.st24{fill:url(#SVGID_24_);}
	.st25{fill:url(#SVGID_25_);}
	.st26{fill:url(#SVGID_26_);}
	.st27{fill:url(#SVGID_27_);}
	.st28{fill:url(#SVGID_28_);}
	.st29{fill:url(#SVGID_29_);}
	.st30{fill:url(#SVGID_30_);}
	.st31{fill:url(#SVGID_31_);}
	.st32{fill:url(#SVGID_32_);}
	.st33{fill:url(#SVGID_33_);}
	.st34{fill:url(#SVGID_34_);}
	.st35{fill:url(#SVGID_35_);}
	.st36{fill:url(#SVGID_36_);}
	.st37{fill:url(#SVGID_37_);}
	.st38{fill:url(#SVGID_38_);}
	.st39{fill:url(#SVGID_39_);}
	.st40{fill:url(#SVGID_40_);}
	.st41{fill:url(#SVGID_41_);}
	.st42{fill:url(#SVGID_42_);}
	.st43{fill:url(#SVGID_43_);}
	.st44{fill:url(#SVGID_44_);}
	.st45{fill:url(#SVGID_45_);}
	.st46{fill:url(#SVGID_46_);}
	.st47{fill:url(#SVGID_47_);}
	.st48{fill:url(#SVGID_48_);}
	.st49{fill:url(#SVGID_49_);}
	.st50{fill:url(#SVGID_50_);}
	.st51{fill:url(#SVGID_51_);}
	.st52{fill:url(#SVGID_52_);}
	.st53{fill:url(#SVGID_53_);}
	.st54{fill:url(#SVGID_54_);}
	.st55{fill:url(#SVGID_55_);}
	.st56{fill:url(#SVGID_56_);}
	.st57{fill:url(#SVGID_57_);}
	.st58{fill:url(#SVGID_58_);}
	.st59{fill:url(#SVGID_59_);}
	.st60{fill:url(#SVGID_60_);}
	.st61{fill:url(#SVGID_61_);}
	.st62{fill:url(#SVGID_62_);}
	.st63{fill:url(#SVGID_63_);}
	.st64{fill:url(#SVGID_64_);}
	.st65{fill:url(#SVGID_65_);}
	.st66{fill:url(#SVGID_66_);}
	.st67{fill:url(#SVGID_67_);}
	.st68{fill:url(#SVGID_68_);}
	.st69{fill:url(#SVGID_69_);}
	.st70{fill:url(#SVGID_70_);}
	.st71{fill:url(#SVGID_71_);}
	.st72{fill:url(#SVGID_72_);}
	.st73{fill:url(#SVGID_73_);}
	.st74{fill:url(#SVGID_74_);}
	.st75{fill:url(#SVGID_75_);}
	.st76{fill:url(#SVGID_76_);}
	.st77{fill:url(#SVGID_77_);}
	.st78{fill:url(#SVGID_78_);}
	.st79{fill:url(#SVGID_79_);}
	.st80{fill:url(#SVGID_80_);}
	.st81{fill:url(#SVGID_81_);}
	.st82{fill:url(#SVGID_82_);}
	.st83{fill:url(#SVGID_83_);}
	.st84{fill:url(#SVGID_84_);}
	.st85{fill:url(#SVGID_85_);}
	.st86{fill:url(#SVGID_86_);}
	.st87{fill:url(#SVGID_87_);}
	.st88{fill:url(#SVGID_88_);}
	.st89{fill:url(#SVGID_89_);}
	.st90{fill:url(#SVGID_90_);}
	.st91{fill:url(#SVGID_91_);}
	.st92{fill:url(#SVGID_92_);}
	.st93{fill:url(#SVGID_93_);}
	.st94{fill:url(#SVGID_94_);}
	.st95{fill:url(#SVGID_95_);}
	.st96{fill:url(#SVGID_96_);}
	.st97{fill:url(#SVGID_97_);}
	.st98{fill:url(#SVGID_98_);}
	.st99{fill:url(#SVGID_99_);}
	.st100{fill:url(#SVGID_100_);}
	.st101{fill:url(#SVGID_101_);}
	.st102{fill:url(#SVGID_102_);}
	.st103{fill:url(#SVGID_103_);}
	.st104{fill:url(#SVGID_104_);}
	.st105{fill:url(#SVGID_105_);}
	.st106{fill:url(#SVGID_106_);}
	.st107{fill:url(#SVGID_107_);}
	.st108{fill:url(#SVGID_108_);}
	.st109{fill:url(#SVGID_109_);}
	.st110{fill:url(#SVGID_110_);}
	.st111{fill:url(#SVGID_111_);}
	.st112{fill:url(#SVGID_112_);}
	.st113{fill:url(#SVGID_113_);}
	.st114{fill:url(#SVGID_114_);}
	.st115{fill:url(#SVGID_115_);}
	.st116{fill:url(#SVGID_116_);}
	.st117{fill:url(#SVGID_117_);}
	.st118{fill:url(#SVGID_118_);}
	.st119{fill:url(#SVGID_119_);}
	.st120{fill:url(#SVGID_120_);}
	.st121{fill:url(#SVGID_121_);}
	.st122{fill:url(#SVGID_122_);}
	.st123{fill:url(#SVGID_123_);}
	.st124{fill:url(#SVGID_124_);}
	.st125{fill:url(#SVGID_125_);}
	.st126{fill:url(#SVGID_126_);}
	.st127{fill:url(#SVGID_127_);}
	.st128{fill:url(#SVGID_128_);}
	.st129{fill:url(#SVGID_129_);}
	.st130{fill:url(#SVGID_130_);}
	.st131{fill:url(#SVGID_131_);}
	.st132{fill:url(#SVGID_132_);}
	.st133{fill:url(#SVGID_133_);}
	.st134{fill:url(#SVGID_134_);}
	.st135{fill:url(#SVGID_135_);}
	.st136{fill:url(#SVGID_136_);}
	.st137{fill:url(#SVGID_137_);}
	.st138{fill:url(#SVGID_138_);}
	.st139{fill:url(#SVGID_139_);}
	.st140{fill:url(#SVGID_140_);}
	.st141{fill:url(#SVGID_141_);}
	.st142{fill:url(#SVGID_142_);}
	.st143{fill:url(#SVGID_143_);}
	.st144{fill:url(#SVGID_144_);}
	.st145{fill:url(#SVGID_145_);}
	.st146{fill:url(#SVGID_146_);}
	.st147{fill:url(#SVGID_147_);}
	.st148{fill:url(#SVGID_148_);}
	.st149{fill:url(#SVGID_149_);}
	.st150{fill:url(#SVGID_150_);}
	.st151{fill:url(#SVGID_151_);}
	.st152{fill:url(#SVGID_152_);}
	.st153{fill:url(#SVGID_153_);}
	.st154{fill:url(#SVGID_154_);}
	.st155{fill:url(#SVGID_155_);}
	.st156{fill:url(#SVGID_156_);}
	.st157{fill:url(#SVGID_157_);}
	.st158{fill:url(#SVGID_158_);}
	.st159{fill:url(#SVGID_159_);}
	.st160{fill:url(#SVGID_160_);}
	.st161{fill:url(#SVGID_161_);}
	.st162{fill:url(#SVGID_162_);}
	.st163{fill:url(#SVGID_163_);}
	.st164{fill:url(#SVGID_164_);}
	.st165{fill:url(#SVGID_165_);}
	.st166{fill:url(#SVGID_166_);}
	.st167{fill:url(#SVGID_167_);}
	.st168{fill:url(#SVGID_168_);}
	.st169{fill:url(#SVGID_169_);}
	.st170{fill:url(#SVGID_170_);}
	.st171{fill:url(#SVGID_171_);}
	.st172{fill:url(#SVGID_172_);}
	.st173{fill:url(#SVGID_173_);}
	.st174{fill:url(#SVGID_174_);}
	.st175{fill:url(#SVGID_175_);}
	.st176{fill:url(#SVGID_176_);}
	.st177{fill:url(#SVGID_177_);}
	.st178{fill:url(#SVGID_178_);}
	.st179{fill:url(#SVGID_179_);}
	.st180{fill:url(#SVGID_180_);}
	.st181{fill:url(#SVGID_181_);}
	.st182{fill:url(#SVGID_182_);}
	.st183{fill:url(#SVGID_183_);}
	.st184{fill:url(#SVGID_184_);}
	.st185{fill:url(#SVGID_185_);}
	.st186{fill:url(#SVGID_186_);}
	.st187{fill:url(#SVGID_187_);}
	.st188{fill:url(#SVGID_188_);}
	.st189{fill:url(#SVGID_189_);}
	.st190{fill:url(#SVGID_190_);}
	.st191{fill:url(#SVGID_191_);}
	.st192{fill:url(#SVGID_192_);}
	.st193{fill:url(#SVGID_193_);}
	.st194{fill:url(#SVGID_194_);}
	.st195{fill:url(#SVGID_195_);}
	.st196{fill:url(#SVGID_196_);}
	.st197{fill:url(#SVGID_197_);}
	.st198{fill:url(#SVGID_198_);}
	.st199{fill:url(#SVGID_199_);}
	.st200{fill:url(#SVGID_200_);}
	.st201{fill:url(#SVGID_201_);}
	.st202{fill:url(#SVGID_202_);}
	.st203{fill:url(#SVGID_203_);}
	.st204{fill:url(#SVGID_204_);}
	.st205{fill:url(#SVGID_205_);}
	.st206{fill:url(#SVGID_206_);}
	.st207{fill:url(#SVGID_207_);}
	.st208{fill:url(#SVGID_208_);}
	.st209{fill:url(#SVGID_209_);}
	.st210{fill:url(#SVGID_210_);}
	.st211{fill:url(#SVGID_211_);}
	.st212{fill:url(#SVGID_212_);}
	.st213{fill:url(#SVGID_213_);}
	.st214{fill:url(#SVGID_214_);}
	.st215{fill:url(#SVGID_215_);}
	.st216{fill:url(#SVGID_216_);}
	.st217{fill:url(#SVGID_217_);}
	.st218{fill:url(#SVGID_218_);}
	.st219{fill:url(#SVGID_219_);}
	.st220{fill:url(#SVGID_220_);}
	.st221{fill:url(#SVGID_221_);}
	.st222{fill:url(#SVGID_222_);}
	.st223{fill:url(#SVGID_223_);}
	.st224{fill:url(#SVGID_224_);}
	.st225{fill:url(#SVGID_225_);}
	.st226{fill:url(#SVGID_226_);}
	.st227{fill:url(#SVGID_227_);}
	.st228{fill:url(#SVGID_228_);}
	.st229{fill:url(#SVGID_229_);}
	.st230{fill:url(#SVGID_230_);}
	.st231{fill:url(#SVGID_231_);}
	.st232{fill:url(#SVGID_232_);}
	.st233{fill:url(#SVGID_233_);}
	.st234{fill:url(#SVGID_234_);}
	.st235{fill:url(#SVGID_235_);}
	.st236{fill:url(#SVGID_236_);}
	.st237{fill:url(#SVGID_237_);}
	.st238{fill:url(#SVGID_238_);}
	.st239{fill:url(#SVGID_239_);}
	.st240{fill:url(#SVGID_240_);}
	.st241{fill:url(#SVGID_241_);}
	.st242{fill:url(#SVGID_242_);}
	.st243{fill:url(#SVGID_243_);}
	.st244{fill:url(#SVGID_244_);}
	.st245{fill:url(#SVGID_245_);}
	.st246{fill:url(#SVGID_246_);}
	.st247{fill:url(#SVGID_247_);}
	.st248{fill:url(#SVGID_248_);}
	.st249{fill:url(#SVGID_249_);}
	.st250{fill:url(#SVGID_250_);}
	.st251{fill:url(#SVGID_251_);}
	.st252{fill:url(#SVGID_252_);}
	.st253{fill:url(#SVGID_253_);}
	.st254{fill:url(#SVGID_254_);}
	.st255{fill:url(#SVGID_255_);}
	.st256{fill:url(#SVGID_256_);}
	.st257{fill:url(#SVGID_257_);}
	.st258{fill:url(#SVGID_258_);}
	.st259{fill:url(#SVGID_259_);}
	.st260{fill:url(#SVGID_260_);}
	.st261{fill:url(#SVGID_261_);}
	.st262{fill:url(#SVGID_262_);}
	.st263{fill:url(#SVGID_263_);}
	.st264{fill:url(#SVGID_264_);}
	.st265{fill:url(#SVGID_265_);}
	.st266{fill:url(#SVGID_266_);}
	.st267{fill:url(#SVGID_267_);}
	.st268{fill:url(#SVGID_268_);}
	.st269{fill:url(#SVGID_269_);}
	.st270{fill:url(#SVGID_270_);}
	.st271{fill:url(#SVGID_271_);}
	.st272{fill:url(#SVGID_272_);}
	.st273{fill:url(#SVGID_273_);}
	.st274{fill:url(#SVGID_274_);}
	.st275{fill:url(#SVGID_275_);}
	.st276{fill:url(#SVGID_276_);}
	.st277{fill:url(#SVGID_277_);}
	.st278{fill:url(#SVGID_278_);}
	.st279{fill:url(#SVGID_279_);}
	.st280{fill:url(#SVGID_280_);}
	.st281{fill:url(#SVGID_281_);}
	.st282{fill:url(#SVGID_282_);}
	.st283{fill:url(#SVGID_283_);}
	.st284{fill:url(#SVGID_284_);}
	.st285{fill:url(#SVGID_285_);}
	.st286{fill:url(#SVGID_286_);}
	.st287{fill:url(#SVGID_287_);}
	.st288{fill:url(#SVGID_288_);}
	.st289{fill:url(#SVGID_289_);}
	.st290{fill:url(#SVGID_290_);}
	.st291{fill:url(#SVGID_291_);}
	.st292{fill:url(#SVGID_292_);}
	.st293{fill:url(#SVGID_293_);}
	.st294{fill:url(#SVGID_294_);}
	.st295{fill:url(#SVGID_295_);}
	.st296{fill:url(#SVGID_296_);}
	.st297{fill:url(#SVGID_297_);}
	.st298{fill:url(#SVGID_298_);}
	.st299{fill:url(#SVGID_299_);}
	.st300{fill:url(#SVGID_300_);}
	.st301{fill:url(#SVGID_301_);}
	.st302{fill:url(#SVGID_302_);}
	.st303{fill:url(#SVGID_303_);}
	.st304{fill:url(#SVGID_304_);}
	.st305{fill:url(#SVGID_305_);}
	.st306{fill:url(#SVGID_306_);}
	.st307{fill:url(#SVGID_307_);}
	.st308{fill:url(#SVGID_308_);}
	.st309{fill:url(#SVGID_309_);}
	.st310{fill:url(#SVGID_310_);}
	.st311{fill:url(#SVGID_311_);}
	.st312{fill:url(#SVGID_312_);}
	.st313{fill:url(#SVGID_313_);}
	.st314{fill:url(#SVGID_314_);}
	.st315{fill:url(#SVGID_315_);}
	.st316{fill:url(#SVGID_316_);}
	.st317{fill:url(#SVGID_317_);}
	.st318{fill:url(#SVGID_318_);}
	.st319{fill:url(#SVGID_319_);}
	.st320{fill:url(#SVGID_320_);}
	.st321{fill:url(#SVGID_321_);}
	.st322{fill:url(#SVGID_322_);}
	.st323{fill:url(#SVGID_323_);}
	.st324{fill:url(#SVGID_324_);}
	.st325{fill:url(#SVGID_325_);}
	.st326{fill:url(#SVGID_326_);}
	.st327{fill:url(#SVGID_327_);}
	.st328{fill:url(#SVGID_328_);}
	.st329{fill:url(#SVGID_329_);}
	.st330{fill:url(#SVGID_330_);}
	.st331{fill:url(#SVGID_331_);}
	.st332{fill:url(#SVGID_332_);}
	.st333{fill:url(#SVGID_333_);}
	.st334{fill:url(#SVGID_334_);}
	.st335{fill:url(#SVGID_335_);}
	.st336{fill:url(#SVGID_336_);}
	.st337{fill:url(#SVGID_337_);}
	.st338{fill:url(#SVGID_338_);}
	.st339{fill:url(#SVGID_339_);}
	.st340{fill:url(#SVGID_340_);}
	.st341{fill:url(#SVGID_341_);}
	.st342{fill:url(#SVGID_342_);}
	.st343{fill:url(#SVGID_343_);}
	.st344{fill:url(#SVGID_344_);}
	.st345{fill:url(#SVGID_345_);}
	.st346{fill:url(#SVGID_346_);}
	.st347{fill:url(#SVGID_347_);}
	.st348{fill:url(#SVGID_348_);}
	.st349{fill:url(#SVGID_349_);}
	.st350{fill:url(#SVGID_350_);}
	.st351{fill:url(#SVGID_351_);}
	.st352{fill:url(#SVGID_352_);}
	.st353{fill:url(#SVGID_353_);}
	.st354{fill:url(#SVGID_354_);}
	.st355{fill:url(#SVGID_355_);}
	.st356{fill:url(#SVGID_356_);}
	.st357{fill:url(#SVGID_357_);}
	.st358{fill:url(#SVGID_358_);}
	.st359{fill:url(#SVGID_359_);}
	.st360{fill:url(#SVGID_360_);}
	.st361{fill:url(#SVGID_361_);}
	.st362{fill:url(#SVGID_362_);}
	.st363{fill:url(#SVGID_363_);}
	.st364{fill:url(#SVGID_364_);}
	.st365{fill:url(#SVGID_365_);}
	.st366{fill:url(#SVGID_366_);}
	.st367{fill:url(#SVGID_367_);}
	.st368{fill:url(#SVGID_368_);}
	.st369{fill:url(#SVGID_369_);}
	.st370{fill:url(#SVGID_370_);}
	.st371{fill:url(#SVGID_371_);}
	.st372{fill:url(#SVGID_372_);}
	.st373{fill:url(#SVGID_373_);}
	.st374{fill:url(#SVGID_374_);}
	.st375{fill:url(#SVGID_375_);}
	.st376{fill:url(#SVGID_376_);}
	.st377{fill:url(#SVGID_377_);}
	.st378{fill:url(#SVGID_378_);}
	.st379{fill:url(#SVGID_379_);}
	.st380{fill:url(#SVGID_380_);}
	.st381{fill:url(#SVGID_381_);}
	.st382{fill:url(#SVGID_382_);}
	.st383{fill:url(#SVGID_383_);}
	.st384{fill:url(#SVGID_384_);}
	.st385{fill:url(#SVGID_385_);}
	.st386{fill:url(#SVGID_386_);}
	.st387{fill:url(#SVGID_387_);}
	.st388{fill:url(#SVGID_388_);}
	.st389{fill:url(#SVGID_389_);}
	.st390{fill:url(#SVGID_390_);}
	.st391{fill:url(#SVGID_391_);}
	.st392{fill:url(#SVGID_392_);}
	.st393{fill:url(#SVGID_393_);}
	.st394{fill:url(#SVGID_394_);}
	.st395{opacity:0.2;}
	.st396{clip-path:url(#SVGID_396_);}
	.st397{clip-path:url(#SVGID_398_);}
	.st398{clip-path:url(#SVGID_401_);}
	.st399{fill:url(#SVGID_402_);}
	.st400{fill:url(#SVGID_403_);}
	.st401{fill:url(#SVGID_404_);}
	.st402{fill:url(#SVGID_405_);}
	.st403{fill:url(#SVGID_406_);}
	.st404{fill:url(#SVGID_407_);}
	.st405{fill:url(#SVGID_408_);}
	.st406{fill:url(#SVGID_409_);}
	.st407{fill:url(#SVGID_410_);}
	.st408{fill:url(#SVGID_411_);}
	.st409{fill:url(#SVGID_412_);}
	.st410{fill:url(#SVGID_413_);}
	.st411{fill:url(#SVGID_414_);}
	.st412{fill:url(#SVGID_415_);}
	.st413{fill:url(#SVGID_416_);}
	.st414{fill:url(#SVGID_417_);}
	.st415{fill:url(#SVGID_418_);}
	.st416{fill:url(#SVGID_419_);}
	.st417{fill:url(#SVGID_420_);}
	.st418{fill:url(#SVGID_421_);}
	.st419{fill:url(#SVGID_422_);}
	.st420{fill:url(#SVGID_423_);}
	.st421{fill:url(#SVGID_424_);}
	.st422{fill:url(#SVGID_425_);}
	.st423{fill:url(#SVGID_426_);}
	.st424{fill:url(#SVGID_427_);}
	.st425{fill:url(#SVGID_428_);}
	.st426{fill:url(#SVGID_429_);}
	.st427{fill:url(#SVGID_430_);}
	.st428{fill:url(#SVGID_431_);}
	.st429{fill:url(#SVGID_432_);}
	.st430{fill:url(#SVGID_433_);}
	.st431{fill:url(#SVGID_434_);}
	.st432{fill:url(#SVGID_435_);}
	.st433{fill:url(#SVGID_436_);}
	.st434{fill:url(#SVGID_437_);}
	.st435{fill:url(#SVGID_438_);}
	.st436{fill:url(#SVGID_439_);}
	.st437{fill:url(#SVGID_440_);}
	.st438{fill:url(#SVGID_441_);}
	.st439{fill:url(#SVGID_442_);}
	.st440{fill:url(#SVGID_443_);}
	.st441{fill:url(#SVGID_444_);}
	.st442{fill:url(#SVGID_445_);}
	.st443{fill:url(#SVGID_446_);}
	.st444{fill:url(#SVGID_447_);}
	.st445{fill:url(#SVGID_448_);}
	.st446{fill:url(#SVGID_449_);}
	.st447{fill:url(#SVGID_450_);}
	.st448{fill:url(#SVGID_451_);}
	.st449{fill:url(#SVGID_452_);}
	.st450{fill:url(#SVGID_453_);}
	.st451{fill:url(#SVGID_454_);}
	.st452{fill:url(#SVGID_455_);}
	.st453{fill:url(#SVGID_456_);}
	.st454{fill:url(#SVGID_457_);}
	.st455{fill:url(#SVGID_458_);}
	.st456{fill:url(#SVGID_459_);}
	.st457{fill:url(#SVGID_460_);}
	.st458{fill:url(#SVGID_461_);}
	.st459{fill:url(#SVGID_462_);}
	.st460{fill:url(#SVGID_463_);}
	.st461{clip-path:url(#SVGID_401_);fill:url(#SVGID_464_);}
	.st462{clip-path:url(#SVGID_467_);}
	.st463{fill:url(#SVGID_468_);}
	.st464{fill:url(#SVGID_469_);}
	.st465{fill:url(#SVGID_470_);}
	.st466{fill:url(#SVGID_471_);}
	.st467{fill:url(#SVGID_472_);}
	.st468{fill:url(#SVGID_473_);}
	.st469{fill:url(#SVGID_474_);}
	.st470{fill:url(#SVGID_475_);}
	.st471{fill:url(#SVGID_476_);}
	.st472{fill:url(#SVGID_477_);}
	.st473{fill:url(#SVGID_478_);}
	.st474{fill:url(#SVGID_479_);}
	.st475{fill:url(#SVGID_480_);}
	.st476{fill:url(#SVGID_481_);}
	.st477{fill:url(#SVGID_482_);}
	.st478{fill:url(#SVGID_483_);}
	.st479{fill:url(#SVGID_484_);}
	.st480{fill:url(#SVGID_485_);}
	.st481{fill:url(#SVGID_486_);}
	.st482{fill:url(#SVGID_487_);}
	.st483{fill:url(#SVGID_488_);}
	.st484{fill:url(#SVGID_489_);}
	.st485{fill:url(#SVGID_490_);}
	.st486{fill:url(#SVGID_491_);}
	.st487{fill:url(#SVGID_492_);}
	.st488{fill:url(#SVGID_493_);}
	.st489{fill:url(#SVGID_494_);}
	.st490{fill:url(#SVGID_495_);}
	.st491{fill:url(#SVGID_496_);}
	.st492{fill:url(#SVGID_497_);}
	.st493{fill:url(#SVGID_498_);}
	.st494{fill:url(#SVGID_499_);}
	.st495{fill:url(#SVGID_500_);}
	.st496{fill:url(#SVGID_501_);}
	.st497{fill:url(#SVGID_502_);}
	.st498{fill:url(#SVGID_503_);}
	.st499{fill:url(#SVGID_504_);}
	.st500{fill:url(#SVGID_505_);}
	.st501{fill:url(#SVGID_506_);}
	.st502{fill:url(#SVGID_507_);}
	.st503{fill:url(#SVGID_508_);}
	.st504{fill:url(#SVGID_509_);}
	.st505{fill:url(#SVGID_510_);}
	.st506{fill:url(#SVGID_511_);}
	.st507{fill:url(#SVGID_512_);}
	.st508{fill:url(#SVGID_513_);}
	.st509{fill:url(#SVGID_514_);}
	.st510{fill:url(#SVGID_515_);}
	.st511{fill:url(#SVGID_516_);}
	.st512{fill:url(#SVGID_517_);}
	.st513{fill:url(#SVGID_518_);}
	.st514{fill:url(#SVGID_519_);}
	.st515{fill:url(#SVGID_520_);}
	.st516{fill:url(#SVGID_521_);}
	.st517{fill:url(#SVGID_522_);}
	.st518{fill:url(#SVGID_523_);}
	.st519{fill:url(#SVGID_524_);}
	.st520{fill:url(#SVGID_525_);}
	.st521{fill:url(#SVGID_526_);}
	.st522{fill:url(#SVGID_527_);}
	.st523{fill:url(#SVGID_528_);}
	.st524{fill:url(#SVGID_529_);}
	.st525{clip-path:url(#SVGID_467_);fill:url(#SVGID_530_);}
	.st526{fill:url(#SVGID_531_);}
	.st527{fill:url(#SVGID_532_);}
	.st528{fill:url(#SVGID_533_);}
	.st529{fill:url(#SVGID_534_);}
	.st530{clip-path:url(#SVGID_536_);}
	.st531{fill:#133345;}
	.st532{clip-path:url(#SVGID_536_);fill:none;}
	.st533{clip-path:url(#SVGID_538_);}
	.st534{clip-path:url(#SVGID_538_);fill:none;}
	.st535{fill:url(#SVGID_539_);}
	.st536{fill:url(#SVGID_540_);}
	.st537{clip-path:url(#SVGID_542_);}
	.st538{clip-path:url(#SVGID_544_);}
	.st539{opacity:0.56;}
	.st540{clip-path:url(#SVGID_546_);}
	.st541{fill:#FFFFFF;}
	.st542{clip-path:url(#SVGID_546_);fill:#FFFFFF;}
	.st543{clip-path:url(#SVGID_548_);}
	.st544{clip-path:url(#SVGID_548_);fill:#FFFFFF;}
	.st545{opacity:0.42;fill:#FFFFFF;}
	.st546{fill:url(#SVGID_549_);}
	.st547{fill:url(#SVGID_550_);}
	.st548{fill:url(#SVGID_551_);}
	.st549{fill:url(#SVGID_552_);}
	.st550{fill:url(#SVGID_553_);}
	.st551{fill:url(#SVGID_554_);}
	.st552{fill:url(#SVGID_555_);}
	.st553{fill:url(#SVGID_556_);}
	.st554{fill:url(#SVGID_557_);}
	.st555{fill:url(#SVGID_558_);}
	.st556{fill:url(#SVGID_559_);}
	.st557{fill:url(#SVGID_560_);}
	.st558{fill:url(#SVGID_561_);}
	.st559{fill:url(#SVGID_562_);}
	.st560{fill:url(#SVGID_563_);}
	.st561{fill:url(#SVGID_564_);}
	.st562{fill:url(#SVGID_565_);}
	.st563{fill:url(#SVGID_566_);}
	.st564{fill:url(#SVGID_567_);}
	.st565{fill:url(#SVGID_568_);}
	.st566{fill:url(#SVGID_569_);}
	.st567{fill:url(#SVGID_570_);}
	.st568{fill:url(#SVGID_571_);}
	.st569{fill:url(#SVGID_572_);}
	.st570{fill:url(#SVGID_573_);}
	.st571{fill:url(#SVGID_574_);}
	.st572{fill:url(#SVGID_575_);}
	.st573{fill:url(#SVGID_576_);}
	.st574{fill:url(#SVGID_577_);}
	.st575{fill:url(#SVGID_578_);}
	.st576{fill:url(#SVGID_579_);}
	.st577{fill:url(#SVGID_580_);}
	.st578{fill:url(#SVGID_581_);}
	.st579{fill:url(#SVGID_582_);}
	.st580{fill:url(#SVGID_583_);}
	.st581{fill:url(#SVGID_584_);}
	.st582{fill:url(#SVGID_585_);}
	.st583{fill:url(#SVGID_586_);}
	.st584{fill:url(#SVGID_587_);}
	.st585{fill:url(#SVGID_588_);}
	.st586{fill:url(#SVGID_589_);}
	.st587{fill:url(#SVGID_590_);}
	.st588{fill:url(#SVGID_591_);}
	.st589{fill:url(#SVGID_592_);}
	.st590{fill:url(#SVGID_593_);}
	.st591{fill:url(#SVGID_594_);}
	.st592{fill:url(#SVGID_595_);}
	.st593{fill:url(#SVGID_596_);}
	.st594{fill:url(#SVGID_597_);}
	.st595{fill:url(#SVGID_598_);}
	.st596{fill:url(#SVGID_599_);}
	.st597{fill:url(#SVGID_600_);}
	.st598{fill:url(#SVGID_601_);}
	.st599{fill:url(#SVGID_602_);}
	.st600{fill:url(#SVGID_603_);}
	.st601{fill:url(#SVGID_604_);}
	.st602{fill:url(#SVGID_605_);}
	.st603{fill:url(#SVGID_606_);}
	.st604{fill:url(#SVGID_607_);}
	.st605{fill:url(#SVGID_608_);}
	.st606{fill:url(#SVGID_609_);}
	.st607{fill:url(#SVGID_610_);}
	.st608{fill:url(#SVGID_611_);}
	.st609{fill:url(#SVGID_612_);}
	.st610{fill:url(#SVGID_613_);}
	.st611{fill:url(#SVGID_614_);}
	.st612{fill:url(#SVGID_615_);}
	.st613{fill:url(#SVGID_616_);}
	.st614{fill:url(#SVGID_617_);}
	.st615{fill:url(#SVGID_618_);}
	.st616{fill:url(#SVGID_619_);}
	.st617{fill:url(#SVGID_620_);}
	.st618{fill:url(#SVGID_621_);}
	.st619{fill:url(#SVGID_622_);}
	.st620{fill:url(#SVGID_623_);}
	.st621{fill:url(#SVGID_624_);}
	.st622{fill:url(#SVGID_625_);}
	.st623{fill:url(#SVGID_626_);}
	.st624{fill:url(#SVGID_627_);}
	.st625{fill:url(#SVGID_628_);}
	.st626{fill:url(#SVGID_629_);}
	.st627{fill:url(#SVGID_630_);}
	.st628{fill:url(#SVGID_631_);}
	.st629{fill:url(#SVGID_632_);}
	.st630{fill:url(#SVGID_633_);}
	.st631{fill:url(#SVGID_634_);}
	.st632{fill:url(#SVGID_635_);}
	.st633{fill:url(#SVGID_636_);}
	.st634{fill:url(#SVGID_637_);}
	.st635{fill:url(#SVGID_638_);}
	.st636{fill:url(#SVGID_639_);}
	.st637{fill:url(#SVGID_640_);}
	.st638{fill:url(#SVGID_641_);}
	.st639{fill:url(#SVGID_642_);}
	.st640{fill:url(#SVGID_643_);}
	.st641{fill:url(#SVGID_644_);}
	.st642{fill:url(#SVGID_645_);}
	.st643{fill:url(#SVGID_646_);}
	.st644{fill:url(#SVGID_647_);}
	.st645{fill:url(#SVGID_648_);}
	.st646{fill:url(#SVGID_649_);}
	.st647{fill:url(#SVGID_650_);}
	.st648{fill:url(#SVGID_651_);}
	.st649{fill:url(#SVGID_652_);}
	.st650{fill:url(#SVGID_653_);}
	.st651{fill:url(#SVGID_654_);}
	.st652{fill:url(#SVGID_655_);}
	.st653{fill:url(#SVGID_656_);}
	.st654{fill:url(#SVGID_657_);}
	.st655{fill:url(#SVGID_658_);}
	.st656{fill:url(#SVGID_659_);}
	.st657{fill:url(#SVGID_660_);}
	.st658{fill:url(#SVGID_661_);}
	.st659{fill:url(#SVGID_662_);}
	.st660{fill:url(#SVGID_663_);}
	.st661{fill:url(#SVGID_664_);}
	.st662{fill:url(#SVGID_665_);}
	.st663{fill:url(#SVGID_666_);}
	.st664{fill:url(#SVGID_667_);}
	.st665{fill:url(#SVGID_668_);}
	.st666{fill:url(#SVGID_669_);}
	.st667{fill:url(#SVGID_670_);}
	.st668{fill:url(#SVGID_671_);}
	.st669{fill:url(#SVGID_672_);}
	.st670{fill:url(#SVGID_673_);}
	.st671{fill:url(#SVGID_674_);}
	.st672{fill:url(#SVGID_675_);}
	.st673{fill:url(#SVGID_676_);}
	.st674{fill:url(#SVGID_677_);}
	.st675{fill:url(#SVGID_678_);}
	.st676{fill:url(#SVGID_679_);}
	.st677{fill:url(#SVGID_680_);}
	.st678{fill:url(#SVGID_681_);}
	.st679{fill:url(#SVGID_682_);}
	.st680{fill:url(#SVGID_683_);}
	.st681{fill:url(#SVGID_684_);}
	.st682{fill:url(#SVGID_685_);}
	.st683{fill:url(#SVGID_686_);}
	.st684{fill:url(#SVGID_687_);}
	.st685{fill:url(#SVGID_688_);}
	.st686{fill:url(#SVGID_689_);}
	.st687{fill:url(#SVGID_690_);}
	.st688{fill:url(#SVGID_691_);}
	.st689{fill:url(#SVGID_692_);}
	.st690{fill:url(#SVGID_693_);}
	.st691{fill:url(#SVGID_694_);}
	.st692{fill:url(#SVGID_695_);}
	.st693{fill:url(#SVGID_696_);}
	.st694{fill:url(#SVGID_697_);}
	.st695{fill:url(#SVGID_698_);}
	.st696{fill:url(#SVGID_699_);}
	.st697{fill:url(#SVGID_700_);}
	.st698{fill:url(#SVGID_701_);}
	.st699{fill:url(#SVGID_702_);}
	.st700{fill:url(#SVGID_703_);}
	.st701{fill:url(#SVGID_704_);}
	.st702{fill:url(#SVGID_705_);}
	.st703{fill:url(#SVGID_706_);}
	.st704{fill:url(#SVGID_707_);}
	.st705{fill:url(#SVGID_708_);}
	.st706{fill:url(#SVGID_709_);}
	.st707{fill:url(#SVGID_710_);}
	.st708{fill:url(#SVGID_711_);}
	.st709{fill:url(#SVGID_712_);}
	.st710{fill:url(#SVGID_713_);}
	.st711{fill:url(#SVGID_714_);}
	.st712{fill:url(#SVGID_715_);}
	.st713{fill:url(#SVGID_716_);}
	.st714{fill:url(#SVGID_717_);}
	.st715{fill:url(#SVGID_718_);}
	.st716{fill:url(#SVGID_719_);}
	.st717{fill:url(#SVGID_720_);}
	.st718{fill:url(#SVGID_721_);}
	.st719{fill:url(#SVGID_722_);}
	.st720{fill:url(#SVGID_723_);}
	.st721{fill:url(#SVGID_724_);}
	.st722{fill:url(#SVGID_725_);}
	.st723{fill:url(#SVGID_726_);}
	.st724{fill:url(#SVGID_727_);}
	.st725{fill:url(#SVGID_728_);}
	.st726{fill:url(#SVGID_729_);}
	.st727{fill:url(#SVGID_730_);}
	.st728{fill:url(#SVGID_731_);}
	.st729{fill:url(#SVGID_732_);}
	.st730{fill:url(#SVGID_733_);}
	.st731{fill:url(#SVGID_734_);}
	.st732{fill:url(#SVGID_735_);}
	.st733{fill:url(#SVGID_736_);}
	.st734{fill:url(#SVGID_737_);}
	.st735{fill:url(#SVGID_738_);}
	.st736{fill:url(#SVGID_739_);}
	.st737{fill:url(#SVGID_740_);}
	.st738{fill:url(#SVGID_741_);}
	.st739{fill:url(#SVGID_742_);}
	.st740{fill:url(#SVGID_743_);}
	.st741{fill:url(#SVGID_744_);}
	.st742{fill:url(#SVGID_745_);}
	.st743{fill:url(#SVGID_746_);}
	.st744{fill:url(#SVGID_747_);}
	.st745{fill:url(#SVGID_748_);}
	.st746{fill:url(#SVGID_749_);}
	.st747{fill:url(#SVGID_750_);}
	.st748{fill:url(#SVGID_751_);}
	.st749{fill:url(#SVGID_752_);}
	.st750{fill:url(#SVGID_753_);}
	.st751{fill:url(#SVGID_754_);}
	.st752{fill:url(#SVGID_755_);}
	.st753{fill:url(#SVGID_756_);}
	.st754{fill:url(#SVGID_757_);}
	.st755{fill:url(#SVGID_758_);}
	.st756{fill:url(#SVGID_759_);}
	.st757{fill:url(#SVGID_760_);}
	.st758{fill:url(#SVGID_761_);}
	.st759{fill:url(#SVGID_762_);}
	.st760{fill:url(#SVGID_763_);}
	.st761{fill:url(#SVGID_764_);}
	.st762{fill:url(#SVGID_765_);}
	.st763{fill:url(#SVGID_766_);}
	.st764{fill:url(#SVGID_767_);}
	.st765{fill:url(#SVGID_768_);}
	.st766{fill:url(#SVGID_769_);}
	.st767{fill:url(#SVGID_770_);}
	.st768{fill:url(#SVGID_771_);}
	.st769{fill:url(#SVGID_772_);}
	.st770{fill:url(#SVGID_773_);}
	.st771{fill:url(#SVGID_774_);}
	.st772{fill:url(#SVGID_775_);}
	.st773{fill:url(#SVGID_776_);}
	.st774{fill:url(#SVGID_777_);}
	.st775{fill:url(#SVGID_778_);}
	.st776{fill:url(#SVGID_779_);}
	.st777{fill:url(#SVGID_780_);}
	.st778{fill:url(#SVGID_781_);}
	.st779{fill:url(#SVGID_782_);}
	.st780{fill:url(#SVGID_783_);}
	.st781{fill:url(#SVGID_784_);}
	.st782{fill:url(#SVGID_785_);}
	.st783{fill:url(#SVGID_786_);}
	.st784{fill:url(#SVGID_787_);}
	.st785{fill:url(#SVGID_788_);}
	.st786{fill:url(#SVGID_789_);}
	.st787{fill:url(#SVGID_790_);}
	.st788{fill:url(#SVGID_791_);}
	.st789{fill:url(#SVGID_792_);}
	.st790{fill:url(#SVGID_793_);}
	.st791{fill:url(#SVGID_794_);}
	.st792{fill:url(#SVGID_795_);}
	.st793{fill:url(#SVGID_796_);}
	.st794{fill:url(#SVGID_797_);}
	.st795{fill:url(#SVGID_798_);}
	.st796{fill:url(#SVGID_799_);}
	.st797{fill:url(#SVGID_800_);}
	.st798{fill:url(#SVGID_801_);}
	.st799{fill:url(#SVGID_802_);}
	.st800{fill:url(#SVGID_803_);}
	.st801{fill:url(#SVGID_804_);}
	.st802{fill:url(#SVGID_805_);}
	.st803{fill:url(#SVGID_806_);}
	.st804{fill:url(#SVGID_807_);}
	.st805{fill:url(#SVGID_808_);}
	.st806{fill:url(#SVGID_809_);}
	.st807{fill:url(#SVGID_810_);}
	.st808{fill:url(#SVGID_811_);}
	.st809{fill:url(#SVGID_812_);}
	.st810{fill:url(#SVGID_813_);}
	.st811{fill:url(#SVGID_814_);}
	.st812{fill:url(#SVGID_815_);}
	.st813{fill:url(#SVGID_816_);}
	.st814{fill:url(#SVGID_817_);}
	.st815{fill:url(#SVGID_818_);}
	.st816{fill:url(#SVGID_819_);}
	.st817{fill:url(#SVGID_820_);}
	.st818{fill:url(#SVGID_821_);}
	.st819{fill:url(#SVGID_822_);}
	.st820{fill:url(#SVGID_823_);}
	.st821{fill:url(#SVGID_824_);}
	.st822{fill:url(#SVGID_825_);}
	.st823{fill:url(#SVGID_826_);}
	.st824{fill:url(#SVGID_827_);}
	.st825{fill:url(#SVGID_828_);}
	.st826{fill:url(#SVGID_829_);}
	.st827{fill:url(#SVGID_830_);}
	.st828{fill:url(#SVGID_831_);}
	.st829{fill:url(#SVGID_832_);}
	.st830{fill:url(#SVGID_833_);}
	.st831{fill:url(#SVGID_834_);}
	.st832{fill:url(#SVGID_835_);}
	.st833{fill:url(#SVGID_836_);}
	.st834{fill:url(#SVGID_837_);}
	.st835{fill:url(#SVGID_838_);}
	.st836{fill:url(#SVGID_839_);}
	.st837{fill:url(#SVGID_840_);}
	.st838{fill:url(#SVGID_841_);}
	.st839{fill:url(#SVGID_842_);}
	.st840{fill:url(#SVGID_843_);}
	.st841{fill:url(#SVGID_844_);}
	.st842{fill:url(#SVGID_845_);}
	.st843{fill:url(#SVGID_846_);}
	.st844{fill:url(#SVGID_847_);}
	.st845{fill:url(#SVGID_848_);}
	.st846{fill:url(#SVGID_849_);}
	.st847{fill:url(#SVGID_850_);}
	.st848{fill:url(#SVGID_851_);}
	.st849{fill:url(#SVGID_852_);}
	.st850{fill:url(#SVGID_853_);}
	.st851{fill:url(#SVGID_854_);}
	.st852{fill:url(#SVGID_855_);}
	.st853{fill:url(#SVGID_856_);}
	.st854{fill:url(#SVGID_857_);}
	.st855{fill:url(#SVGID_858_);}
	.st856{fill:url(#SVGID_859_);}
	.st857{fill:url(#SVGID_860_);}
	.st858{fill:url(#SVGID_861_);}
	.st859{fill:url(#SVGID_862_);}
	.st860{fill:url(#SVGID_863_);}
	.st861{fill:url(#SVGID_864_);}
	.st862{fill:url(#SVGID_865_);}
	.st863{fill:url(#SVGID_866_);}
	.st864{fill:url(#SVGID_867_);}
	.st865{fill:url(#SVGID_868_);}
	.st866{fill:url(#SVGID_869_);}
	.st867{fill:url(#SVGID_870_);}
	.st868{fill:url(#SVGID_871_);}
	.st869{fill:url(#SVGID_872_);}
	.st870{fill:url(#SVGID_873_);}
	.st871{fill:url(#SVGID_874_);}
	.st872{fill:url(#SVGID_875_);}
	.st873{fill:url(#SVGID_876_);}
	.st874{fill:url(#SVGID_877_);}
	.st875{fill:url(#SVGID_878_);}
	.st876{fill:url(#SVGID_879_);}
	.st877{fill:url(#SVGID_880_);}
	.st878{fill:url(#SVGID_881_);}
	.st879{fill:url(#SVGID_882_);}
	.st880{fill:url(#SVGID_883_);}
	.st881{fill:url(#SVGID_884_);}
	.st882{fill:url(#SVGID_885_);}
	.st883{fill:url(#SVGID_886_);}
	.st884{fill:url(#SVGID_887_);}
	.st885{fill:url(#SVGID_888_);}
	.st886{fill:url(#SVGID_889_);}
	.st887{fill:url(#SVGID_890_);}
	.st888{fill:url(#SVGID_891_);}
	.st889{fill:url(#SVGID_892_);}
	.st890{fill:url(#SVGID_893_);}
	.st891{fill:url(#SVGID_894_);}
	.st892{fill:url(#SVGID_895_);}
	.st893{fill:url(#SVGID_896_);}
	.st894{fill:url(#SVGID_897_);}
	.st895{fill:url(#SVGID_898_);}
	.st896{fill:url(#SVGID_899_);}
	.st897{fill:url(#SVGID_900_);}
	.st898{fill:url(#SVGID_901_);}
	.st899{fill:url(#SVGID_902_);}
	.st900{fill:url(#SVGID_903_);}
	.st901{fill:url(#SVGID_904_);}
	.st902{fill:url(#SVGID_905_);}
	.st903{fill:url(#SVGID_906_);}
	.st904{fill:url(#SVGID_907_);}
	.st905{fill:url(#SVGID_908_);}
	.st906{fill:url(#SVGID_909_);}
	.st907{fill:url(#SVGID_910_);}
	.st908{fill:url(#SVGID_911_);}
	.st909{fill:url(#SVGID_912_);}
	.st910{fill:url(#SVGID_913_);}
	.st911{fill:url(#SVGID_914_);}
	.st912{fill:url(#SVGID_915_);}
	.st913{fill:url(#SVGID_916_);}
	.st914{fill:url(#SVGID_917_);}
	.st915{fill:url(#SVGID_918_);}
	.st916{fill:url(#SVGID_919_);}
	.st917{fill:url(#SVGID_920_);}
	.st918{fill:url(#SVGID_921_);}
	.st919{fill:url(#SVGID_922_);}
	.st920{fill:url(#SVGID_923_);}
	.st921{fill:url(#SVGID_924_);}
	.st922{fill:url(#SVGID_925_);}
	.st923{fill:url(#SVGID_926_);}
	.st924{fill:url(#SVGID_927_);}
	.st925{fill:url(#SVGID_928_);}
	.st926{fill:url(#SVGID_929_);}
	.st927{fill:url(#SVGID_930_);}
	.st928{fill:url(#SVGID_931_);}
	.st929{fill:url(#SVGID_932_);}
	.st930{fill:url(#SVGID_933_);}
	.st931{fill:url(#SVGID_934_);}
	.st932{fill:url(#SVGID_935_);}
	.st933{fill:url(#SVGID_936_);}
	.st934{fill:url(#SVGID_937_);}
	.st935{fill:url(#SVGID_938_);}
	.st936{fill:url(#SVGID_939_);}
	.st937{fill:url(#SVGID_940_);}
	.st938{fill:url(#SVGID_941_);}
	.st939{fill:url(#SVGID_942_);}
	.st940{fill:url(#SVGID_943_);}
	.st941{fill:url(#SVGID_944_);}
	.st942{clip-path:url(#SVGID_946_);}
	.st943{clip-path:url(#SVGID_948_);}
	.st944{clip-path:url(#SVGID_951_);}
	.st945{fill:url(#SVGID_952_);}
	.st946{fill:url(#SVGID_953_);}
	.st947{fill:url(#SVGID_954_);}
	.st948{fill:url(#SVGID_955_);}
	.st949{fill:url(#SVGID_956_);}
	.st950{fill:url(#SVGID_957_);}
	.st951{fill:url(#SVGID_958_);}
	.st952{fill:url(#SVGID_959_);}
	.st953{fill:url(#SVGID_960_);}
	.st954{fill:url(#SVGID_961_);}
	.st955{fill:url(#SVGID_962_);}
	.st956{fill:url(#SVGID_963_);}
	.st957{fill:url(#SVGID_964_);}
	.st958{fill:url(#SVGID_965_);}
	.st959{fill:url(#SVGID_966_);}
	.st960{fill:url(#SVGID_967_);}
	.st961{fill:url(#SVGID_968_);}
	.st962{fill:url(#SVGID_969_);}
	.st963{fill:url(#SVGID_970_);}
	.st964{fill:url(#SVGID_971_);}
	.st965{fill:url(#SVGID_972_);}
	.st966{fill:url(#SVGID_973_);}
	.st967{fill:url(#SVGID_974_);}
	.st968{fill:url(#SVGID_975_);}
	.st969{fill:url(#SVGID_976_);}
	.st970{fill:url(#SVGID_977_);}
	.st971{fill:url(#SVGID_978_);}
	.st972{fill:url(#SVGID_979_);}
	.st973{fill:url(#SVGID_980_);}
	.st974{fill:url(#SVGID_981_);}
	.st975{fill:url(#SVGID_982_);}
	.st976{fill:url(#SVGID_983_);}
	.st977{fill:url(#SVGID_984_);}
	.st978{fill:url(#SVGID_985_);}
	.st979{fill:url(#SVGID_986_);}
	.st980{fill:url(#SVGID_987_);}
	.st981{fill:url(#SVGID_988_);}
	.st982{fill:url(#SVGID_989_);}
	.st983{fill:url(#SVGID_990_);}
	.st984{fill:url(#SVGID_991_);}
	.st985{fill:url(#SVGID_992_);}
	.st986{fill:url(#SVGID_993_);}
	.st987{fill:url(#SVGID_994_);}
	.st988{fill:url(#SVGID_995_);}
	.st989{fill:url(#SVGID_996_);}
	.st990{fill:url(#SVGID_997_);}
	.st991{fill:url(#SVGID_998_);}
	.st992{fill:url(#SVGID_999_);}
	.st993{fill:url(#SVGID_1000_);}
	.st994{fill:url(#SVGID_1001_);}
	.st995{fill:url(#SVGID_1002_);}
	.st996{fill:url(#SVGID_1003_);}
	.st997{fill:url(#SVGID_1004_);}
	.st998{fill:url(#SVGID_1005_);}
	.st999{fill:url(#SVGID_1006_);}
	.st1000{fill:url(#SVGID_1007_);}
	.st1001{fill:url(#SVGID_1008_);}
	.st1002{fill:url(#SVGID_1009_);}
	.st1003{fill:url(#SVGID_1010_);}
	.st1004{fill:url(#SVGID_1011_);}
	.st1005{fill:url(#SVGID_1012_);}
	.st1006{fill:url(#SVGID_1013_);}
	.st1007{clip-path:url(#SVGID_951_);fill:url(#SVGID_1014_);}
	.st1008{clip-path:url(#SVGID_1017_);}
	.st1009{fill:url(#SVGID_1018_);}
	.st1010{fill:url(#SVGID_1019_);}
	.st1011{fill:url(#SVGID_1020_);}
	.st1012{fill:url(#SVGID_1021_);}
	.st1013{fill:url(#SVGID_1022_);}
	.st1014{fill:url(#SVGID_1023_);}
	.st1015{fill:url(#SVGID_1024_);}
	.st1016{fill:url(#SVGID_1025_);}
	.st1017{fill:url(#SVGID_1026_);}
	.st1018{fill:url(#SVGID_1027_);}
	.st1019{fill:url(#SVGID_1028_);}
	.st1020{fill:url(#SVGID_1029_);}
	.st1021{fill:url(#SVGID_1030_);}
	.st1022{fill:url(#SVGID_1031_);}
	.st1023{fill:url(#SVGID_1032_);}
	.st1024{fill:url(#SVGID_1033_);}
	.st1025{fill:url(#SVGID_1034_);}
	.st1026{fill:url(#SVGID_1035_);}
	.st1027{fill:url(#SVGID_1036_);}
	.st1028{fill:url(#SVGID_1037_);}
	.st1029{fill:url(#SVGID_1038_);}
	.st1030{fill:url(#SVGID_1039_);}
	.st1031{fill:url(#SVGID_1040_);}
	.st1032{fill:url(#SVGID_1041_);}
	.st1033{fill:url(#SVGID_1042_);}
	.st1034{fill:url(#SVGID_1043_);}
	.st1035{fill:url(#SVGID_1044_);}
	.st1036{fill:url(#SVGID_1045_);}
	.st1037{fill:url(#SVGID_1046_);}
	.st1038{fill:url(#SVGID_1047_);}
	.st1039{fill:url(#SVGID_1048_);}
	.st1040{fill:url(#SVGID_1049_);}
	.st1041{fill:url(#SVGID_1050_);}
	.st1042{fill:url(#SVGID_1051_);}
	.st1043{fill:url(#SVGID_1052_);}
	.st1044{fill:url(#SVGID_1053_);}
	.st1045{fill:url(#SVGID_1054_);}
	.st1046{fill:url(#SVGID_1055_);}
	.st1047{fill:url(#SVGID_1056_);}
	.st1048{fill:url(#SVGID_1057_);}
	.st1049{fill:url(#SVGID_1058_);}
	.st1050{fill:url(#SVGID_1059_);}
	.st1051{fill:url(#SVGID_1060_);}
	.st1052{fill:url(#SVGID_1061_);}
	.st1053{fill:url(#SVGID_1062_);}
	.st1054{fill:url(#SVGID_1063_);}
	.st1055{fill:url(#SVGID_1064_);}
	.st1056{fill:url(#SVGID_1065_);}
	.st1057{fill:url(#SVGID_1066_);}
	.st1058{fill:url(#SVGID_1067_);}
	.st1059{fill:url(#SVGID_1068_);}
	.st1060{fill:url(#SVGID_1069_);}
	.st1061{fill:url(#SVGID_1070_);}
	.st1062{fill:url(#SVGID_1071_);}
	.st1063{fill:url(#SVGID_1072_);}
	.st1064{fill:url(#SVGID_1073_);}
	.st1065{fill:url(#SVGID_1074_);}
	.st1066{fill:url(#SVGID_1075_);}
	.st1067{fill:url(#SVGID_1076_);}
	.st1068{fill:url(#SVGID_1077_);}
	.st1069{fill:url(#SVGID_1078_);}
	.st1070{fill:url(#SVGID_1079_);}
	.st1071{clip-path:url(#SVGID_1017_);fill:url(#SVGID_1080_);}
	.st1072{fill:url(#SVGID_1081_);}
	.st1073{fill:url(#SVGID_1082_);}
	.st1074{fill:url(#SVGID_1083_);}
	.st1075{fill:url(#SVGID_1084_);}
	.st1076{clip-path:url(#SVGID_1086_);}
	.st1077{clip-path:url(#SVGID_1086_);fill:none;}
	.st1078{clip-path:url(#SVGID_1088_);}
	.st1079{clip-path:url(#SVGID_1088_);fill:none;}
	.st1080{fill:url(#SVGID_1089_);}
	.st1081{fill:url(#SVGID_1090_);}
	.st1082{clip-path:url(#SVGID_1092_);}
	.st1083{clip-path:url(#SVGID_1094_);}
	.st1084{clip-path:url(#SVGID_1096_);}
	.st1085{clip-path:url(#SVGID_1096_);fill:#FFFFFF;}
	.st1086{clip-path:url(#SVGID_1098_);}
	.st1087{clip-path:url(#SVGID_1098_);fill:#FFFFFF;}
	.st1088{fill:url(#SVGID_1099_);}
	.st1089{fill:url(#SVGID_1100_);}
	.st1090{fill:url(#SVGID_1101_);}
	.st1091{fill:url(#SVGID_1102_);}
	.st1092{fill:url(#SVGID_1103_);}
	.st1093{fill:url(#SVGID_1104_);}
	.st1094{fill:url(#SVGID_1105_);}
	.st1095{fill:url(#SVGID_1106_);}
	.st1096{fill:url(#SVGID_1107_);}
	.st1097{fill:url(#SVGID_1108_);}
	.st1098{fill:url(#SVGID_1109_);}
	.st1099{fill:url(#SVGID_1110_);}
	.st1100{fill:url(#SVGID_1111_);}
	.st1101{fill:url(#SVGID_1112_);}
	.st1102{fill:url(#SVGID_1113_);}
	.st1103{fill:url(#SVGID_1114_);}
	.st1104{fill:url(#SVGID_1115_);}
	.st1105{fill:url(#SVGID_1116_);}
	.st1106{fill:url(#SVGID_1117_);}
	.st1107{fill:url(#SVGID_1118_);}
	.st1108{fill:url(#SVGID_1119_);}
	.st1109{fill:url(#SVGID_1120_);}
	.st1110{fill:url(#SVGID_1121_);}
	.st1111{fill:url(#SVGID_1122_);}
	.st1112{fill:url(#SVGID_1123_);}
	.st1113{fill:url(#SVGID_1124_);}
	.st1114{fill:url(#SVGID_1125_);}
	.st1115{fill:url(#SVGID_1126_);}
	.st1116{fill:url(#SVGID_1127_);}
	.st1117{fill:url(#SVGID_1128_);}
	.st1118{fill:url(#SVGID_1129_);}
	.st1119{fill:url(#SVGID_1130_);}
	.st1120{fill:url(#SVGID_1131_);}
	.st1121{fill:url(#SVGID_1132_);}
	.st1122{fill:url(#SVGID_1133_);}
	.st1123{fill:url(#SVGID_1134_);}
	.st1124{fill:url(#SVGID_1135_);}
	.st1125{fill:url(#SVGID_1136_);}
	.st1126{fill:#FFFFFF;stroke:#133345;stroke-width:2;stroke-miterlimit:10;}
	.st1127{clip-path:url(#SVGID_1138_);}
	.st1128{clip-path:url(#SVGID_1140_);}
	.st1129{fill:url(#SVGID_1141_);}
	.st1130{fill:#CC0000;}
	.st1131{fill:#C6202C;}
</style>
<g>
	<g>
		<g>
			<path class="st531" d="M0,244.8l38.2-54.1c20.1,20.1,51.2,36.9,89.4,36.9c24.7,0,39.9-9.6,39.9-23.1
				c0-38.2-158.6-7.6-158.6-115.4c0-47,39.9-88.9,111.6-88.9c44.9,0,83.9,13.4,113.7,39l-39.4,51.6c-23.5-19.3-54.1-28.9-81.8-28.9
				c-21,0-30.2,8.4-30.2,20.1c0,35.7,158.2,9.6,158.2,113.7c0,56.2-41.5,93.5-116.6,93.5C67.5,289.3,28.1,271.7,0,244.8z"/>
			<path class="st531" d="M841.9,284.3V102.2L771,284.3h-31.9l-70.5-182.1v182.1h-72.2V4.5h100.3l58.3,151.9L813.8,4.5h100.3v279.8
				H841.9z"/>
			<path class="st531" d="M1154.5,284.3l-13.8-40.3h-110.3l-13.8,40.3h-81.8L1039.9,4.5h90.6l105.7,279.8H1154.5z M1085.2,75.8
				l-35.7,105.3h71.3L1085.2,75.8z"/>
		</g>
		<g>
			<g>
				<g>
					<path class="st531" d="M557.9,145.3c0,3.2-0.1,6.4-0.3,9.7c-1.3,19.6-6.4,38.4-15.1,55.8c-8.4,16.8-19.9,31.7-34.1,44.1
						c-14.2,12.5-30.4,21.9-48.2,28.1c-18.4,6.4-37.7,9-57.3,7.7c-19.6-1.3-38.4-6.4-55.8-15.1c-16.8-8.4-31.7-19.9-44.1-34.1
						c-12.5-14.2-21.9-30.4-28.1-48.2c-6.4-18.4-9-37.7-7.7-57.3c1.3-19.6,6.4-38.4,15.1-55.8c8.4-16.8,19.9-31.7,34.1-44.1
						c14.2-12.5,30.4-21.9,48.2-28.1c18.4-6.4,37.7-9,57.3-7.7l0,0.2l0-0.2c19.6,1.3,38.4,6.4,55.8,15.1
						c16.8,8.4,31.7,19.9,44.1,34.1c12.5,14.2,21.9,30.4,28.1,48.2C555.2,113.1,557.9,129.1,557.9,145.3z M267.2,145.8
						c0,16.2,2.7,32.2,8,47.5c6.2,17.7,15.6,33.9,28,48.1c12.4,14.2,27.2,25.6,44,34c17.4,8.7,36.1,13.8,55.6,15.1
						c19.6,1.3,38.8-1.3,57.1-7.7c17.7-6.2,33.9-15.6,48.1-28c14.2-12.4,25.6-27.2,34-44c8.7-17.4,13.8-36.1,15.1-55.6
						c1.3-19.6-1.3-38.8-7.7-57.1c-6.2-17.7-15.6-33.9-28-48.1c-12.4-14.2-27.2-25.6-44-34C460.1,7,441.3,2,421.8,0.7
						C402.2-0.6,383,2,364.7,8.4c-17.7,6.2-33.9,15.6-48.1,28c-14.2,12.4-25.6,27.2-34,44c-8.7,17.4-13.8,36.1-15.1,55.6
						C267.3,139.3,267.2,142.5,267.2,145.8z"/>
				</g>
				<g>
					<path class="st531" d="M553.8,146.4c0,3.1-0.1,6.3-0.3,9.5c-1.3,19.2-6.2,37.6-14.8,54.7c-8.3,16.5-19.5,31-33.5,43.3
						c-13.9,12.2-29.8,21.5-47.2,27.6c-18,6.3-36.9,8.8-56.1,7.6c-19.2-1.3-37.6-6.2-54.7-14.8c-16.5-8.3-31-19.5-43.3-33.5
						c-12.2-13.9-21.5-29.8-27.6-47.2c-6.3-18-8.8-36.9-7.6-56.1c1.3-19.2,6.2-37.6,14.8-54.7c8.3-16.5,19.5-31,33.5-43.3
						c13.9-12.2,29.8-21.5,47.2-27.6c18-6.3,36.9-8.8,56.1-7.6c19.2,1.3,37.6,6.2,54.7,14.8c16.5,8.3,31,19.5,43.3,33.5
						c12.2,13.9,21.5,29.8,27.6,47.2C551.2,114.8,553.8,130.5,553.8,146.4z M268.9,146.8c0,15.9,2.6,31.5,7.9,46.5
						c6,17.4,15.3,33.2,27.5,47.1c12.2,13.9,26.7,25.1,43.1,33.4c17,8.5,35.4,13.5,54.5,14.7c19.2,1.2,38-1.3,56-7.6
						c17.4-6,33.2-15.3,47.1-27.5c13.9-12.2,25.1-26.7,33.4-43.1c8.5-17,13.5-35.4,14.7-54.5c1.2-19.2-1.3-38-7.6-56
						c-6-17.4-15.3-33.2-27.5-47.1c-12.2-13.9-26.7-25.1-43.1-33.4c-17-8.5-35.4-13.5-54.5-14.7c-19.2-1.2-38,1.3-56,7.6
						c-17.4,6-33.2,15.3-47.1,27.5c-13.9,12.2-25.1,26.7-33.4,43.1c-8.5,17-13.5,35.4-14.7,54.5C269,140.5,268.9,143.7,268.9,146.8z
						"/>
				</g>
				<g>
					<path class="st531" d="M549.7,147.5c0,3.1-0.1,6.2-0.3,9.3c-1.2,18.8-6.1,36.9-14.5,53.6c-8.1,16.2-19.1,30.4-32.8,42.4
						c-13.6,12-29.2,21.1-46.3,27c-17.7,6.2-36.2,8.7-55,7.4c-18.8-1.2-36.9-6.1-53.6-14.5c-16.2-8.1-30.4-19.1-42.4-32.8
						c-12-13.6-21.1-29.2-27-46.3c-6.2-17.7-8.7-36.2-7.4-55c1.2-18.8,6.1-36.9,14.5-53.6c8.1-16.2,19.1-30.4,32.8-42.4
						c13.6-12,29.2-21.1,46.3-27c17.7-6.2,36.2-8.7,55-7.4c18.8,1.2,36.9,6.1,53.6,14.5c16.2,8.1,30.4,19.1,42.4,32.8
						c12,13.6,21.1,29.2,27,46.3C547.2,116.6,549.7,131.9,549.7,147.5z M270.6,147.9c0,15.6,2.6,30.9,7.7,45.6
						c5.9,17,15,32.5,26.9,46.1c11.9,13.6,26.2,24.6,42.3,32.7c16.7,8.4,34.6,13.2,53.4,14.4c18.8,1.2,37.2-1.3,54.8-7.4
						c17-5.9,32.5-15,46.1-26.9c13.6-11.9,24.6-26.2,32.7-42.3c8.4-16.7,13.2-34.6,14.4-53.4c1.2-18.8-1.3-37.2-7.4-54.8
						c-5.9-17-15-32.5-26.9-46.1c-11.9-13.6-26.2-24.6-42.3-32.7C455.8,14.8,437.8,9.9,419,8.7c-18.8-1.2-37.2,1.3-54.8,7.4
						c-17,5.9-32.5,15-46.1,26.9c-13.6,11.9-24.6,26.2-32.7,42.3c-8.4,16.7-13.2,34.6-14.4,53.4
						C270.8,141.8,270.6,144.8,270.6,147.9z"/>
				</g>
				<g>
					<path class="st531" d="M545.7,148.6c0,3-0.1,6-0.3,9.1c-1.2,18.4-6,36.1-14.2,52.5c-7.9,15.8-18.7,29.8-32.1,41.5
						c-13.4,11.7-28.6,20.6-45.3,26.4c-17.3,6-35.4,8.5-53.9,7.3c-18.4-1.2-36.1-6-52.5-14.2c-15.8-7.9-29.8-18.7-41.5-32.1
						c-11.7-13.4-20.6-28.6-26.4-45.3c-6-17.3-8.5-35.4-7.3-53.9c1.2-18.4,6-36.1,14.2-52.5c7.9-15.8,18.7-29.8,32.1-41.5
						s28.6-20.6,45.3-26.4c17.3-6,35.4-8.5,53.9-7.3c18.4,1.2,36.1,6,52.5,14.2c15.8,7.9,29.8,18.7,41.5,32.1
						c11.7,13.4,20.6,28.6,26.4,45.3C543.1,118.3,545.7,133.3,545.7,148.6z M272.4,149c0,15.2,2.5,30.2,7.5,44.6
						c5.8,16.7,14.7,31.8,26.4,45.2s25.6,24.1,41.4,32c16.3,8.2,33.9,12.9,52.3,14.1c18.4,1.2,36.4-1.2,53.7-7.2
						c16.7-5.8,31.8-14.7,45.2-26.4c13.3-11.7,24.1-25.6,32-41.4c8.2-16.3,12.9-33.9,14.1-52.3c1.2-18.4-1.2-36.4-7.2-53.7
						c-5.8-16.7-14.7-31.8-26.4-45.2c-11.7-13.3-25.6-24.1-41.4-32c-16.3-8.2-33.9-12.9-52.3-14.1c-18.4-1.2-36.4,1.2-53.7,7.2
						c-16.7,5.8-31.8,14.7-45.2,26.4c-13.3,11.7-24.1,25.6-32,41.4c-8.2,16.3-12.9,33.9-14.1,52.3C272.5,143,272.4,146,272.4,149z"
						/>
				</g>
				<g>
					<path class="st531" d="M541.6,149.7c0,3-0.1,5.9-0.3,8.9c-1.2,18.1-5.8,35.3-13.9,51.4c-7.8,15.5-18.3,29.2-31.4,40.6
						c-13.1,11.5-28,20.2-44.4,25.9c-16.9,5.9-34.7,8.3-52.7,7.1c-18.1-1.2-35.3-5.8-51.4-13.9c-15.5-7.8-29.2-18.3-40.6-31.4
						c-11.5-13.1-20.2-28-25.9-44.4c-5.9-16.9-8.3-34.7-7.1-52.7c1.2-18.1,5.8-35.3,13.9-51.4c7.8-15.5,18.3-29.2,31.4-40.6
						c13.1-11.5,28-20.2,44.4-25.9c16.9-5.9,34.7-8.3,52.7-7.1c18.1,1.2,35.3,5.8,51.4,13.9c15.5,7.8,29.2,18.3,40.6,31.4
						c11.5,13.1,20.2,28,25.9,44.4C539.1,120,541.6,134.7,541.6,149.7z M274.1,150.1c0,14.9,2.5,29.6,7.4,43.7
						c5.7,16.3,14.4,31.2,25.8,44.2c11.4,13,25.1,23.6,40.5,31.3c16,8,33.2,12.7,51.2,13.8c18,1.2,35.7-1.2,52.5-7.1
						c16.3-5.7,31.2-14.4,44.2-25.8s23.6-25.1,31.3-40.5c8-16,12.7-33.2,13.8-51.2c1.2-18-1.2-35.7-7.1-52.5
						c-5.7-16.3-14.4-31.2-25.8-44.2c-11.4-13-25.1-23.6-40.5-31.3c-16-8-33.2-12.7-51.2-13.8c-18-1.2-35.7,1.2-52.5,7.1
						c-16.3,5.7-31.2,14.4-44.2,25.8S296,74.6,288.2,90.1c-8,16-12.7,33.2-13.8,51.2C274.2,144.2,274.1,147.1,274.1,150.1z"/>
				</g>
				<g>
					<path class="st531" d="M537.5,150.8c0,2.9-0.1,5.8-0.3,8.7c-1.1,17.7-5.7,34.6-13.6,50.3c-7.6,15.2-17.9,28.5-30.7,39.8
						c-12.8,11.2-27.4,19.8-43.4,25.3c-16.6,5.8-33.9,8.1-51.6,7c-17.7-1.1-34.6-5.7-50.3-13.6c-15.2-7.6-28.5-17.9-39.8-30.7
						c-11.2-12.8-19.8-27.4-25.3-43.4c-5.8-16.6-8.1-33.9-7-51.6c1.1-17.7,5.7-34.6,13.6-50.3c7.6-15.2,17.9-28.5,30.7-39.8
						c12.8-11.2,27.4-19.8,43.4-25.3c16.6-5.8,33.9-8.1,51.6-7c17.7,1.1,34.6,5.7,50.3,13.6c15.2,7.6,28.5,17.9,39.8,30.7
						c11.2,12.8,19.8,27.4,25.3,43.4C535.1,121.7,537.5,136.1,537.5,150.8z M275.8,151.2c0,14.6,2.4,28.9,7.2,42.7
						c5.6,15.9,14,30.5,25.2,43.2c11.2,12.7,24.5,23,39.6,30.6c15.6,7.8,32.5,12.4,50,13.5c17.6,1.1,34.9-1.2,51.4-6.9
						c15.9-5.6,30.5-14,43.2-25.2c12.7-11.2,23-24.5,30.6-39.6c7.8-15.6,12.4-32.5,13.5-50c1.1-17.6-1.2-34.9-6.9-51.4
						c-5.6-15.9-14-30.5-25.2-43.2c-11.2-12.7-24.5-23-39.6-30.6c-15.6-7.8-32.5-12.4-50-13.5c-17.6-1.1-34.9,1.2-51.4,6.9
						c-15.9,5.6-30.5,14-43.2,25.2c-12.7,11.2-23,24.5-30.6,39.6c-7.8,15.6-12.4,32.5-13.5,50C275.9,145.4,275.8,148.3,275.8,151.2z
						"/>
				</g>
				<g>
					<path class="st531" d="M533.4,151.9c0,2.8-0.1,5.7-0.3,8.5c-1.1,17.3-5.6,33.8-13.3,49.2c-7.4,14.8-17.6,27.9-30.1,38.9
						c-12.5,11-26.8,19.3-42.5,24.8c-16.2,5.6-33.2,7.9-50.5,6.8c-17.3-1.1-33.8-5.6-49.2-13.3c-14.8-7.4-27.9-17.6-38.9-30.1
						c-11-12.5-19.3-26.8-24.8-42.5c-5.6-16.2-7.9-33.2-6.8-50.5c1.1-17.3,5.6-33.8,13.3-49.2c7.4-14.8,17.6-27.9,30.1-38.9
						c12.5-11,26.8-19.3,42.5-24.8c16.2-5.6,33.2-7.9,50.5-6.8c17.3,1.1,33.8,5.6,49.2,13.3c14.8,7.4,27.9,17.6,38.9,30.1
						c11,12.5,19.3,26.8,24.8,42.5C531.1,123.5,533.4,137.6,533.4,151.9z M277.5,152.3c0,14.3,2.4,28.3,7.1,41.8
						c5.4,15.6,13.7,29.8,24.7,42.3c10.9,12.5,24,22.5,38.7,29.9c15.3,7.7,31.7,12.1,48.9,13.2c17.2,1.1,34.1-1.2,50.2-6.8
						c15.6-5.4,29.8-13.7,42.3-24.7c12.5-10.9,22.5-24,29.9-38.7c7.7-15.3,12.1-31.7,13.2-48.9c1.1-17.2-1.2-34.1-6.8-50.2
						c-5.4-15.6-13.7-29.8-24.7-42.3c-10.9-12.5-24-22.5-38.7-29.9c-15.3-7.7-31.7-12.1-48.9-13.2c-17.2-1.1-34.1,1.2-50.2,6.8
						c-15.6,5.4-29.8,13.7-42.3,24.7c-12.5,10.9-22.5,24-29.9,38.7c-7.7,15.3-12.1,31.7-13.2,48.9
						C277.6,146.6,277.5,149.4,277.5,152.3z"/>
				</g>
				<g>
					<path class="st531" d="M529.4,153c0,2.8-0.1,5.5-0.3,8.3c-1.1,16.9-5.5,33-13,48c-7.3,14.5-17.2,27.3-29.4,38
						s-26.2,18.9-41.5,24.2c-15.8,5.5-32.4,7.8-49.3,6.7c-16.9-1.1-33-5.5-48-13c-14.5-7.3-27.3-17.2-38-29.4
						c-10.7-12.2-18.9-26.2-24.2-41.5c-5.5-15.8-7.8-32.4-6.7-49.3c1.1-16.9,5.5-33,13-48c7.3-14.5,17.2-27.3,29.4-38
						c12.2-10.7,26.2-18.9,41.5-24.2c15.8-5.5,32.4-7.8,49.3-6.7c16.9,1.1,33,5.5,48,13c14.5,7.3,27.3,17.2,38,29.4
						c10.7,12.2,18.9,26.2,24.2,41.5C527,125.2,529.4,139,529.4,153z M279.3,153.3c0,13.9,2.3,27.6,6.9,40.8
						c5.3,15.2,13.4,29.1,24.1,41.3c10.7,12.2,23.4,22,37.8,29.2c14.9,7.5,31,11.8,47.8,12.9c16.8,1.1,33.3-1.1,49.1-6.6
						c15.2-5.3,29.1-13.4,41.3-24.1c12.2-10.7,22-23.4,29.2-37.8c7.5-14.9,11.8-31,12.9-47.8c1.1-16.8-1.1-33.3-6.6-49.1
						c-5.3-15.2-13.4-29.1-24.1-41.3c-10.7-12.2-23.4-22-37.8-29.2c-14.9-7.5-31-11.8-47.8-12.9c-16.8-1.1-33.3,1.1-49.1,6.6
						c-15.2,5.3-29.1,13.4-41.3,24.1c-12.2,10.7-22,23.4-29.2,37.8c-7.5,14.9-11.8,31-12.9,47.8
						C279.4,147.8,279.3,150.6,279.3,153.3z"/>
				</g>
				<g>
					<path class="st531" d="M525.3,154.1c0,2.7-0.1,5.4-0.3,8.1c-1.1,16.5-5.3,32.3-12.7,46.9c-7.1,14.2-16.8,26.6-28.7,37.1
						c-12,10.5-25.6,18.5-40.5,23.7c-15.5,5.4-31.7,7.6-48.2,6.5c-16.5-1.1-32.3-5.3-46.9-12.7c-14.2-7.1-26.6-16.8-37.1-28.7
						c-10.5-12-18.5-25.6-23.7-40.5c-5.4-15.5-7.6-31.7-6.5-48.2c1.1-16.5,5.3-32.3,12.7-46.9c7.1-14.2,16.8-26.6,28.7-37.1
						c12-10.5,25.6-18.5,40.5-23.7c15.5-5.4,31.7-7.6,48.2-6.5c16.5,1.1,32.3,5.3,46.9,12.7c14.2,7.1,26.6,16.8,37.1,28.7
						c10.5,12,18.5,25.6,23.7,40.5C523,126.9,525.3,140.4,525.3,154.1z M281,154.4c0,13.6,2.3,27,6.7,39.9
						c5.2,14.9,13.1,28.4,23.5,40.3c10.4,11.9,22.9,21.5,36.9,28.6c14.6,7.3,30.3,11.6,46.7,12.6c16.4,1.1,32.5-1.1,47.9-6.5
						c14.9-5.2,28.4-13.1,40.3-23.5c11.9-10.4,21.5-22.9,28.6-36.9c7.3-14.6,11.6-30.3,12.6-46.7c1.1-16.4-1.1-32.5-6.5-47.9
						c-5.2-14.9-13.1-28.4-23.5-40.3c-10.4-11.9-22.9-21.5-36.9-28.6c-14.6-7.3-30.3-11.6-46.7-12.6c-16.4-1.1-32.5,1.1-47.9,6.5
						c-14.9,5.2-28.4,13.1-40.3,23.5c-11.9,10.4-21.5,22.9-28.6,36.9c-7.3,14.6-11.6,30.3-12.6,46.7C281.1,149,281,151.7,281,154.4z
						"/>
				</g>
				<g>
					<path class="st531" d="M521.2,155.2c0,2.6-0.1,5.3-0.3,7.9c-1,16.1-5.2,31.5-12.4,45.8c-6.9,13.8-16.4,26-28,36.3
						c-11.7,10.2-25,18-39.6,23.1c-15.1,5.3-30.9,7.4-47.1,6.4c-16.1-1-31.5-5.2-45.8-12.4c-13.8-6.9-26-16.4-36.3-28
						c-10.2-11.7-18-25-23.1-39.6c-5.3-15.1-7.4-30.9-6.4-47.1c1-16.1,5.2-31.5,12.4-45.8c6.9-13.8,16.4-26,28-36.3
						c11.7-10.2,25-18,39.6-23.1c15.1-5.3,30.9-7.4,47.1-6.4c16.1,1,31.5,5.2,45.8,12.4c13.8,6.9,26,16.4,36.3,28
						c10.2,11.7,18,25,23.1,39.6C519,128.7,521.2,141.8,521.2,155.2z M282.7,155.5c0,13.3,2.2,26.3,6.6,38.9
						c5.1,14.5,12.8,27.8,23,39.4c10.2,11.6,22.3,21,36.1,27.9c14.2,7.1,29.6,11.3,45.6,12.3c16,1,31.8-1.1,46.8-6.3
						c14.5-5.1,27.8-12.8,39.4-23c11.6-10.2,21-22.3,27.9-36.1c7.1-14.2,11.3-29.6,12.3-45.6c1-16-1.1-31.8-6.3-46.8
						c-5.1-14.5-12.8-27.8-23-39.4c-10.2-11.6-22.3-21-36.1-27.9c-14.2-7.1-29.6-11.3-45.6-12.3c-16-1-31.8,1.1-46.8,6.3
						c-14.5,5.1-27.8,12.8-39.4,23c-11.6,10.2-21,22.3-27.9,36.1c-7.1,14.2-11.3,29.6-12.3,45.6
						C282.8,150.3,282.7,152.9,282.7,155.5z"/>
				</g>
				<g>
					<path class="st531" d="M517.1,156.3c0,2.6-0.1,5.2-0.3,7.7c-1,15.7-5.1,30.8-12.1,44.7c-6.8,13.5-16,25.4-27.4,35.4
						c-11.4,10-24.4,17.6-38.6,22.5c-14.8,5.1-30.2,7.2-45.9,6.2c-15.7-1-30.8-5.1-44.7-12.1c-13.5-6.8-25.4-16-35.4-27.4
						c-10-11.4-17.6-24.4-22.5-38.6c-5.1-14.8-7.2-30.2-6.2-45.9c1-15.7,5.1-30.8,12.1-44.7c6.8-13.5,16-25.4,27.4-35.4
						c11.4-10,24.4-17.6,38.6-22.5c14.8-5.1,30.2-7.2,45.9-6.2c15.7,1,30.8,5.1,44.7,12.1c13.5,6.8,25.4,16,35.4,27.4
						c10,11.4,17.6,24.4,22.5,38.6C515,130.4,517.1,143.2,517.1,156.3z M284.4,156.6c0,13,2.1,25.7,6.4,37.9
						c4.9,14.2,12.5,27.1,22.4,38.4c9.9,11.3,21.8,20.5,35.2,27.2c13.9,7,28.8,11,44.5,12c15.6,1,31-1.1,45.6-6.2
						c14.2-4.9,27.1-12.5,38.4-22.4c11.3-9.9,20.5-21.8,27.2-35.2c7-13.9,11-28.8,12-44.5c1-15.6-1.1-31-6.2-45.6
						c-4.9-14.2-12.5-27.1-22.4-38.4c-9.9-11.3-21.8-20.5-35.2-27.2c-13.9-7-28.8-11-44.5-12c-15.6-1-31,1.1-45.6,6.2
						c-14.2,4.9-27.1,12.5-38.4,22.4c-11.3,9.9-20.5,21.8-27.2,35.2c-7,13.9-11,28.8-12,44.5C284.5,151.5,284.4,154,284.4,156.6z"/>
				</g>
				<g>
					<path class="st531" d="M513,157.4c0,2.5-0.1,5-0.2,7.6c-1,15.3-5,30-11.8,43.6c-6.6,13.2-15.6,24.8-26.7,34.5
						c-11.1,9.8-23.8,17.1-37.7,22c-14.4,5-29.5,7-44.8,6c-15.3-1-30-5-43.6-11.8c-13.2-6.6-24.8-15.6-34.5-26.7
						c-9.8-11.1-17.1-23.8-22-37.7c-5-14.4-7-29.5-6-44.8c1-15.3,5-30,11.8-43.6c6.6-13.2,15.6-24.8,26.7-34.5
						c11.1-9.8,23.8-17.1,37.7-22c14.4-5,29.5-7,44.8-6c15.3,1,30,5,43.6,11.8c13.2,6.6,24.8,15.6,34.5,26.7
						c9.8,11.1,17.1,23.8,22,37.7C510.9,132.1,513,144.6,513,157.4z M286.2,157.7c0,12.6,2.1,25,6.3,37
						c4.8,13.8,12.2,26.4,21.8,37.4c9.7,11,21.2,20,34.3,26.5c13.5,6.8,28.1,10.7,43.3,11.7c15.2,1,30.2-1,44.5-6
						c13.8-4.8,26.4-12.2,37.4-21.8c11-9.7,20-21.2,26.5-34.3c6.8-13.5,10.7-28.1,11.7-43.3c1-15.2-1-30.2-6-44.5
						c-4.8-13.8-12.2-26.4-21.8-37.4c-9.7-11-21.2-20-34.3-26.5c-13.5-6.8-28.1-10.7-43.3-11.7c-15.2-1-30.2,1-44.5,6
						c-13.8,4.8-26.4,12.2-37.4,21.8c-11,9.7-20,21.2-26.5,34.3c-6.8,13.5-10.7,28.1-11.7,43.3C286.2,152.7,286.2,155.2,286.2,157.7
						z"/>
				</g>
				<g>
					<path class="st531" d="M509,158.5c0,2.4-0.1,4.9-0.2,7.4c-1,14.9-4.8,29.2-11.5,42.5c-6.4,12.8-15.2,24.1-26,33.6
						c-10.8,9.5-23.2,16.7-36.7,21.4c-14,4.9-28.7,6.9-43.6,5.9c-14.9-1-29.2-4.8-42.5-11.5c-12.8-6.4-24.1-15.2-33.6-26
						c-9.5-10.8-16.7-23.2-21.4-36.7c-4.9-14-6.9-28.7-5.9-43.6c1-14.9,4.8-29.2,11.5-42.5c6.4-12.8,15.2-24.1,26-33.6
						c10.8-9.5,23.2-16.7,36.7-21.4c14-4.9,28.7-6.9,43.6-5.9c14.9,1,29.2,4.8,42.5,11.5c12.8,6.4,24.1,15.2,33.6,26
						c9.5,10.8,16.7,23.2,21.4,36.7C506.9,133.9,509,146.1,509,158.5z M287.9,158.8c0,12.3,2,24.4,6.1,36
						c4.7,13.4,11.8,25.7,21.3,36.5c9.4,10.8,20.7,19.4,33.4,25.8c13.2,6.6,27.4,10.5,42.2,11.4c14.8,1,29.4-1,43.3-5.9
						c13.4-4.7,25.7-11.8,36.5-21.3c10.8-9.4,19.4-20.7,25.8-33.4c6.6-13.2,10.5-27.4,11.4-42.2c1-14.8-1-29.4-5.9-43.3
						c-4.7-13.4-11.8-25.7-21.3-36.5c-9.4-10.8-20.7-19.4-33.4-25.8c-13.2-6.6-27.4-10.5-42.2-11.4c-14.8-1-29.4,1-43.3,5.9
						c-13.4,4.7-25.7,11.8-36.5,21.3c-10.8,9.4-19.4,20.7-25.8,33.4c-6.6,13.2-10.5,27.4-11.4,42.2
						C288,153.9,287.9,156.3,287.9,158.8z"/>
				</g>
				<g>
					<path class="st531" d="M504.9,159.5c0,2.4-0.1,4.8-0.2,7.2c-0.9,14.6-4.7,28.5-11.2,41.4c-6.3,12.5-14.8,23.5-25.3,32.8
						c-10.5,9.3-22.6,16.3-35.8,20.9c-13.7,4.8-28,6.7-42.5,5.7c-14.6-0.9-28.5-4.7-41.4-11.2c-12.5-6.3-23.5-14.8-32.8-25.3
						c-9.3-10.5-16.3-22.6-20.9-35.8c-4.8-13.7-6.7-28-5.7-42.5c0.9-14.6,4.7-28.5,11.2-41.4c6.3-12.5,14.8-23.5,25.3-32.8
						c10.5-9.3,22.6-16.3,35.8-20.9c13.7-4.8,28-6.7,42.5-5.7c14.6,0.9,28.5,4.7,41.4,11.2c12.5,6.3,23.5,14.8,32.8,25.3
						c9.3,10.5,16.3,22.6,20.9,35.8C502.9,135.6,504.9,147.5,504.9,159.5z M289.6,159.9c0,12,2,23.8,5.9,35.1
						c4.6,13.1,11.5,25,20.7,35.5s20.1,18.9,32.5,25.1c12.8,6.4,26.7,10.2,41.1,11.1c14.4,0.9,28.6-1,42.2-5.7
						c13.1-4.6,25-11.5,35.5-20.7c10.5-9.2,18.9-20.1,25.1-32.5c6.4-12.8,10.2-26.7,11.1-41.1c0.9-14.4-1-28.6-5.7-42.2
						c-4.6-13.1-11.5-25-20.7-35.5c-9.2-10.5-20.1-18.9-32.5-25.1c-12.8-6.4-26.7-10.2-41.1-11.1c-14.4-0.9-28.6,1-42.2,5.7
						c-13.1,4.6-25,11.5-35.5,20.7c-10.5,9.2-18.9,20.1-25.1,32.5c-6.4,12.8-10.2,26.7-11.1,41.1
						C289.7,155.1,289.6,157.5,289.6,159.9z"/>
				</g>
				<g>
					<path class="st531" d="M500.8,160.6c0,2.3-0.1,4.6-0.2,7c-0.9,14.2-4.6,27.7-10.9,40.3c-6.1,12.2-14.4,22.9-24.7,31.9
						c-10.3,9-22,15.8-34.8,20.3c-13.3,4.6-27.2,6.5-41.4,5.6c-14.2-0.9-27.7-4.6-40.3-10.9c-12.2-6.1-22.9-14.4-31.9-24.7
						c-9-10.3-15.8-22-20.3-34.8c-4.6-13.3-6.5-27.2-5.6-41.4c0.9-14.2,4.6-27.7,10.9-40.3c6.1-12.2,14.4-22.9,24.7-31.9
						c10.3-9,22-15.8,34.8-20.3c13.3-4.6,27.2-6.5,41.4-5.6c14.2,0.9,27.7,4.6,40.3,10.9c12.2,6.1,22.9,14.4,31.9,24.7
						c9,10.3,15.8,22,20.3,34.8C498.9,137.3,500.8,148.9,500.8,160.6z M291.3,160.9c0,11.7,1.9,23.1,5.8,34.1
						c4.4,12.7,11.2,24.4,20.2,34.5c8.9,10.2,19.6,18.4,31.6,24.5c12.5,6.3,25.9,9.9,40,10.8c14.1,0.9,27.9-1,41-5.5
						c12.7-4.4,24.4-11.2,34.5-20.2c10.2-8.9,18.4-19.6,24.5-31.6c6.3-12.5,9.9-25.9,10.8-40c0.9-14.1-1-27.9-5.5-41
						C489.8,113.8,483,102.2,474,92c-8.9-10.2-19.6-18.4-31.6-24.5c-12.5-6.3-25.9-9.9-40-10.8c-14.1-0.9-27.9,1-41,5.5
						c-12.7,4.4-24.4,11.2-34.5,20.2c-10.2,8.9-18.4,19.6-24.5,31.6c-6.3,12.5-9.9,25.9-10.8,40
						C291.4,156.3,291.3,158.6,291.3,160.9z"/>
				</g>
			</g>
			<g>
				<g>
					<path class="st531" d="M496.7,161.9c0,1,0,2,0,3c-0.4,13.7-3.5,27-9.3,39.5c-5.7,12.6-13.8,23.6-23.9,32.8
						c-9.8,8.9-21,15.8-33.5,20.4c-12.4,4.6-25.5,6.8-38.7,6.4c-13.7-0.4-27-3.5-39.5-9.3c-12.6-5.7-23.6-13.8-32.8-23.9
						c-8.9-9.8-15.8-21-20.4-33.5c-4.6-12.4-6.8-25.5-6.4-38.7c0.4-13.7,3.5-27,9.3-39.5c5.7-12.6,13.8-23.6,23.9-32.8
						c9.8-8.9,21-15.8,33.5-20.4c12.4-4.6,25.5-6.8,38.7-6.4c13.7,0.4,27,3.5,39.5,9.3c12.6,5.7,23.6,13.8,32.8,23.9
						c8.9,9.8,15.8,21,20.4,33.5C494.6,137.7,496.7,149.7,496.7,161.9z M293,161.9c0,12.1,2.1,23.9,6.4,35.3
						c4.6,12.3,11.4,23.5,20.3,33.2c9.2,10,20.1,18,32.6,23.7c12.4,5.7,25.6,8.8,39.2,9.2c13.1,0.4,26-1.7,38.3-6.3
						c12.3-4.6,23.5-11.4,33.2-20.3c10-9.2,18-20.1,23.7-32.6c5.7-12.4,8.8-25.6,9.2-39.2c0.4-13.1-1.7-26-6.3-38.3
						c-4.6-12.3-11.4-23.5-20.3-33.2c-9.2-10-20.1-18-32.6-23.7c-12.4-5.7-25.6-8.8-39.2-9.2c-13.1-0.4-26,1.7-38.3,6.3
						c-12.3,4.6-23.5,11.4-33.2,20.3c-10,9.2-18,20.1-23.7,32.6c-5.7,12.4-8.8,25.6-9.2,39.2C293.1,159.9,293,160.9,293,161.9z"/>
				</g>
				<g>
					<path class="st531" d="M495.7,161.8c0,0.3,0,0.6,0,0.9c-0.1,13-2.7,25.7-7.7,37.6c-5.1,12.4-12.7,23.5-22.3,33
						c-9.6,9.5-20.9,16.8-33.3,21.7c-12.1,4.8-24.8,7.1-37.8,7c-13-0.1-25.7-2.7-37.6-7.7c-12.4-5.1-23.5-12.7-33-22.3
						c-9.5-9.6-16.8-20.9-21.7-33.3c-4.8-12.1-7.1-24.8-7-37.8c0.1-13,2.7-25.7,7.7-37.6c5.1-12.4,12.7-23.5,22.3-33
						c9.6-9.5,20.9-16.8,33.3-21.7c12.1-4.8,24.8-7.1,37.8-7c13,0.1,25.7,2.7,37.6,7.7c12.4,5.1,23.5,12.7,33,22.3
						c9.5,9.6,16.8,20.9,21.7,33.3C493.4,136.7,495.7,149.1,495.7,161.8z M465.2,232.7c9.6-9.4,17-20.4,22.1-32.7
						c4.9-11.9,7.5-24.4,7.6-37.3c0.1-12.9-2.2-25.5-7-37.4c-4.9-12.4-12.1-23.5-21.5-33.1c-9.4-9.6-20.4-17-32.7-22.1
						c-11.9-4.9-24.4-7.5-37.3-7.6c-12.9-0.1-25.5,2.2-37.4,7c-12.4,4.9-23.5,12.1-33.1,21.5c-9.6,9.4-17,20.4-22.1,32.7
						c-4.9,11.9-7.5,24.4-7.6,37.3c-0.1,12.9,2.2,25.5,7,37.4c4.9,12.4,12.1,23.5,21.5,33.1c9.4,9.6,20.4,17,32.7,22.1
						c11.9,4.9,24.4,7.5,37.3,7.6c12.9,0.1,25.5-2.2,37.4-7C444.5,249.4,455.6,242.1,465.2,232.7z"/>
				</g>
				<g>
					<path class="st531" d="M494.7,161.8c0,0.3,0,0.6,0,0.9c-0.1,12.7-2.6,25.2-7.5,36.9c-5,12.1-12.4,23-21.8,32.3
						s-20.4,16.4-32.7,21.3c-11.8,4.7-24.2,7-37,6.9c-12.7-0.1-25.2-2.6-36.9-7.5c-12.1-5-23-12.4-32.3-21.8s-16.4-20.4-21.3-32.7
						c-4.7-11.8-7-24.2-6.9-37c0.1-12.7,2.6-25.2,7.5-36.9c5-12.1,12.4-23,21.8-32.3c9.5-9.3,20.4-16.4,32.7-21.3
						c11.8-4.7,24.2-7,37-6.9c12.7,0.1,25.2,2.6,36.9,7.5c12.1,5,23,12.4,32.3,21.8c9.3,9.5,16.4,20.4,21.3,32.7
						C492.4,137.2,494.7,149.4,494.7,161.8z M299.2,161.9c0,12.3,2.3,24.4,6.8,35.8c4.8,12.1,11.9,23,21.1,32.4
						c9.2,9.4,20,16.7,32,21.7c11.6,4.8,23.9,7.3,36.6,7.4c12.6,0.1,25-2.2,36.7-6.8c12.1-4.8,23-11.9,32.4-21.1
						c9.4-9.2,16.7-20,21.7-32c4.8-11.6,7.3-23.9,7.4-36.6c0.1-12.6-2.2-25-6.8-36.7c-4.8-12.1-11.9-23-21.1-32.4
						c-9.2-9.4-20-16.7-32-21.7c-11.6-4.8-23.9-7.3-36.6-7.4c-12.6-0.1-25,2.2-36.7,6.8c-12.1,4.8-23,11.9-32.4,21.1
						c-9.4,9.2-16.7,20-21.7,32c-4.8,11.6-7.3,23.9-7.4,36.6C299.2,161.3,299.2,161.6,299.2,161.9z"/>
				</g>
				<g>
					<path class="st531" d="M493.8,161.8c0,0.3,0,0.6,0,0.9c-0.1,12.5-2.6,24.6-7.3,36.1c-4.9,11.9-12.1,22.5-21.4,31.6
						c-9.3,9.1-20,16.1-32,20.8c-11.6,4.6-23.7,6.8-36.2,6.7c-12.5-0.1-24.6-2.6-36.1-7.3c-11.9-4.9-22.5-12.1-31.6-21.4
						c-9.1-9.3-16.1-20-20.8-32c-4.6-11.6-6.8-23.7-6.7-36.2c0.1-12.5,2.6-24.6,7.3-36.1c4.9-11.9,12.1-22.5,21.4-31.6
						c9.3-9.1,20-16.1,32-20.8c11.6-4.6,23.7-6.8,36.2-6.7c12.5,0.1,24.6,2.6,36.1,7.3c11.9,4.9,22.5,12.1,31.6,21.4
						c9.1,9.3,16.1,20,20.8,32C491.5,137.7,493.8,149.6,493.8,161.8z M302.3,161.9c0,12.1,2.2,23.9,6.7,35.1
						c4.7,11.9,11.6,22.5,20.7,31.7c9,9.2,19.6,16.3,31.4,21.2c11.4,4.7,23.4,7.2,35.8,7.3c12.4,0.1,24.5-2.1,35.9-6.7
						c11.9-4.7,22.5-11.6,31.7-20.7c9.2-9,16.3-19.6,21.2-31.4c4.7-11.4,7.2-23.4,7.3-35.8c0.1-12.4-2.1-24.5-6.7-35.9
						c-4.7-11.9-11.6-22.5-20.7-31.7c-9-9.2-19.6-16.3-31.4-21.2c-11.4-4.7-23.4-7.2-35.8-7.3c-12.4-0.1-24.5,2.1-35.9,6.7
						c-11.9,4.7-22.5,11.6-31.7,20.7c-9.2,9-16.3,19.6-21.2,31.4c-4.7,11.4-7.2,23.4-7.3,35.8C302.3,161.3,302.3,161.6,302.3,161.9z
						"/>
				</g>
				<g>
					<path class="st531" d="M492.8,161.8c0,0.3,0,0.6,0,0.8c-0.1,12.2-2.5,24.1-7.2,35.3c-4.8,11.6-11.9,22-20.9,30.9
						c-9.1,8.9-19.6,15.8-31.3,20.4c-11.3,4.5-23.2,6.7-35.5,6.6c-12.2-0.1-24.1-2.5-35.3-7.2c-11.6-4.8-22-11.9-30.9-20.9
						c-8.9-9.1-15.8-19.6-20.4-31.3c-4.5-11.3-6.7-23.2-6.6-35.5c0.1-12.2,2.5-24.1,7.2-35.3c4.8-11.6,11.9-22,20.9-30.9
						c9.1-8.9,19.6-15.8,31.3-20.4c11.3-4.5,23.2-6.7,35.5-6.6c12.2,0.1,24.1,2.5,35.3,7.2c11.6,4.8,22,11.9,30.9,20.9
						c8.9,9.1,15.8,19.6,20.4,31.3C490.6,138.2,492.8,149.9,492.8,161.8z M464.1,228.4c9-8.8,16-19.2,20.8-30.7
						c4.6-11.1,7-22.9,7.1-35.1c0.1-12.1-2.1-24-6.5-35.2c-4.6-11.6-11.4-22.1-20.2-31c-8.8-9-19.2-16-30.7-20.8
						c-11.1-4.6-22.9-7-35.1-7.1c-12.1-0.1-24,2.1-35.2,6.5c-11.6,4.6-22.1,11.4-31,20.2c-9,8.8-16,19.2-20.8,30.7
						c-4.6,11.1-7,22.9-7.1,35.1c-0.1,12.1,2.1,24,6.5,35.2c4.6,11.6,11.4,22.1,20.2,31c8.8,9,19.2,16,30.7,20.8
						c11.1,4.6,22.9,7,35.1,7.1c12.1,0.1,24-2.1,35.2-6.5C444.7,244,455.1,237.2,464.1,228.4z"/>
				</g>
				<g>
					<path class="st531" d="M491.8,161.8c0,0.3,0,0.5,0,0.8c-0.1,11.9-2.5,23.6-7,34.6c-4.7,11.4-11.6,21.6-20.5,30.3
						c-8.9,8.7-19.2,15.4-30.6,19.9c-11.1,4.4-22.7,6.5-34.7,6.4c-11.9-0.1-23.6-2.5-34.6-7c-11.4-4.7-21.6-11.6-30.3-20.5
						c-8.7-8.9-15.4-19.2-19.9-30.6c-4.4-11.1-6.5-22.7-6.4-34.7c0.1-11.9,2.5-23.6,7-34.6c4.7-11.4,11.6-21.6,20.5-30.3
						c8.9-8.7,19.2-15.4,30.6-19.9c11.1-4.4,22.7-6.5,34.7-6.4c11.9,0.1,23.6,2.5,34.6,7c11.4,4.7,21.6,11.6,30.3,20.5
						c8.7,8.9,15.4,19.2,19.9,30.6C489.6,138.7,491.8,150.1,491.8,161.8z M308.5,161.8c0,11.6,2.1,22.9,6.4,33.6
						c4.5,11.4,11.2,21.6,19.8,30.4c8.6,8.8,18.7,15.6,30,20.3c10.9,4.5,22.4,6.9,34.3,7s23.4-2,34.4-6.4
						c11.4-4.5,21.6-11.2,30.4-19.8c8.8-8.6,15.6-18.7,20.3-30c4.5-10.9,6.9-22.4,7-34.3c0.1-11.9-2-23.4-6.4-34.4
						c-4.5-11.4-11.2-21.6-19.8-30.4c-8.6-8.8-18.7-15.6-30-20.3c-10.9-4.5-22.4-6.9-34.3-7c-11.9-0.1-23.4,2-34.4,6.4
						c-11.4,4.5-21.6,11.2-30.4,19.8c-8.8,8.6-15.6,18.7-20.3,30c-4.5,10.9-6.9,22.4-7,34.3C308.5,161.3,308.5,161.6,308.5,161.8z"
						/>
				</g>
				<g>
					<path class="st531" d="M490.8,161.8c0,0.3,0,0.5,0,0.8c-0.1,11.7-2.4,23.1-6.9,33.8c-4.6,11.1-11.4,21.1-20,29.6
						c-8.7,8.5-18.7,15.1-29.9,19.5c-10.8,4.3-22.2,6.4-33.9,6.3c-11.7-0.1-23.1-2.4-33.8-6.9c-11.1-4.6-21.1-11.4-29.6-20
						c-8.5-8.7-15.1-18.7-19.5-29.9c-4.3-10.8-6.4-22.2-6.3-33.9c0.1-11.7,2.4-23.1,6.9-33.8c4.6-11.1,11.4-21.1,20-29.6
						c8.7-8.5,18.7-15.1,29.9-19.5c10.8-4.3,22.2-6.4,33.9-6.3c11.7,0.1,23.1,2.4,33.8,6.9c11.1,4.6,21.1,11.4,29.6,20
						c8.5,8.7,15.1,18.7,19.5,29.9C488.7,139.2,490.8,150.4,490.8,161.8z M311.6,161.8c0,11.3,2.1,22.4,6.3,32.9
						c4.4,11.1,10.9,21.1,19.4,29.7c8.4,8.6,18.3,15.3,29.4,19.9c10.7,4.4,21.9,6.7,33.5,6.8c11.6,0.1,22.9-2,33.6-6.2
						c11.1-4.4,21.1-10.9,29.7-19.4c8.6-8.4,15.3-18.3,19.9-29.4c4.4-10.7,6.7-21.9,6.8-33.5c0-0.3,0-0.5,0-0.8
						c0-11.3-2.1-22.4-6.3-32.9c-4.4-11.1-10.9-21.1-19.4-29.7c-8.4-8.6-18.3-15.3-29.4-19.9c-10.7-4.4-21.9-6.7-33.5-6.8
						c-11.6-0.1-22.9,2-33.6,6.2c-11.1,4.4-21.1,10.9-29.7,19.4c-8.6,8.4-15.3,18.3-19.9,29.4c-4.4,10.7-6.7,21.9-6.8,33.5
						C311.6,161.3,311.6,161.6,311.6,161.8z"/>
				</g>
				<g>
					<path class="st531" d="M489.8,161.8c0,0.3,0,0.5,0,0.8c-0.1,11.4-2.4,22.5-6.7,33c-4.5,10.9-11.1,20.6-19.6,28.9
						c-8.5,8.3-18.3,14.7-29.2,19.1c-10.6,4.2-21.7,6.2-33.1,6.2c-11.4-0.1-22.5-2.4-33-6.7c-10.9-4.5-20.6-11.1-28.9-19.6
						c-8.3-8.5-14.7-18.3-19.1-29.2c-4.2-10.6-6.2-21.7-6.2-33.1c0.1-11.4,2.4-22.5,6.7-33c4.5-10.9,11.1-20.6,19.6-28.9
						c8.5-8.3,18.3-14.7,29.2-19.1c10.6-4.2,21.7-6.2,33.1-6.2c11.4,0.1,22.5,2.4,33,6.7c10.9,4.5,20.6,11.1,28.9,19.6
						c8.3,8.5,14.7,18.3,19.1,29.2C487.8,139.8,489.8,150.6,489.8,161.8z M463.1,224c8.4-8.3,14.9-17.9,19.4-28.7
						c4.3-10.4,6.6-21.4,6.7-32.8c0.1-11.3-2-22.4-6.1-32.9c-4.3-10.9-10.7-20.6-18.9-29c-8.3-8.4-17.9-14.9-28.7-19.4
						c-10.4-4.3-21.4-6.6-32.8-6.7c-11.3-0.1-22.4,2-32.9,6.1c-10.9,4.3-20.6,10.7-29,18.9c-8.4,8.3-14.9,17.9-19.4,28.7
						c-4.3,10.4-6.6,21.4-6.7,32.8c-0.1,11.3,2,22.4,6.1,32.9c4.3,10.9,10.7,20.6,18.9,29c8.3,8.4,17.9,14.9,28.7,19.4
						c10.4,4.3,21.4,6.6,32.8,6.7c11.3,0.1,22.4-2,32.9-6.1C444.9,238.6,454.7,232.3,463.1,224z"/>
				</g>
				<g>
					<path class="st531" d="M488.8,161.8c0,0.3,0,0.5,0,0.8c-0.1,11.2-2.3,22-6.6,32.3c-4.4,10.6-10.8,20.1-19.1,28.2
						c-8.3,8.1-17.9,14.4-28.6,18.6c-10.3,4.1-21.2,6.1-32.4,6c-11.2-0.1-22-2.3-32.3-6.6c-10.6-4.4-20.1-10.8-28.2-19.1
						c-8.1-8.3-14.4-17.9-18.6-28.6c-4.1-10.3-6.1-21.2-6-32.4c0.1-11.2,2.3-22,6.6-32.3c4.4-10.6,10.8-20.1,19.1-28.2
						c8.3-8.1,17.9-14.4,28.6-18.6c10.3-4.1,21.2-6.1,32.4-6c11.2,0.1,22,2.3,32.3,6.6c10.6,4.4,20.1,10.8,28.2,19.1
						c8.1,8.3,14.4,17.9,18.6,28.6C486.8,140.3,488.8,150.9,488.8,161.8z M462.7,222.6c8.2-8.1,14.6-17.5,19-28
						c4.2-10.2,6.4-20.9,6.5-32c0.1-11.1-1.9-21.9-6-32.1c-4.2-10.6-10.4-20.2-18.5-28.4c-8.1-8.2-17.5-14.6-28-19
						c-10.2-4.2-20.9-6.4-32-6.5c-11.1-0.1-21.9,1.9-32.1,6c-10.6,4.2-20.2,10.4-28.4,18.5c-8.2,8.1-14.6,17.5-19,28
						c-4.2,10.2-6.4,20.9-6.5,32c-0.1,11.1,1.9,21.9,6,32.1c4.2,10.6,10.4,20.2,18.5,28.4c8.1,8.2,17.5,14.6,28,19
						c10.2,4.2,20.9,6.4,32,6.5c11.1,0.1,21.9-1.9,32.1-6C445,236.9,454.5,230.6,462.7,222.6z"/>
				</g>
				<g>
					<path class="st531" d="M487.8,161.8c0,0.2,0,0.5,0,0.7c-0.1,10.9-2.3,21.5-6.4,31.5c-4.3,10.4-10.6,19.6-18.6,27.6
						c-8.1,7.9-17.5,14-27.9,18.2c-10.1,4-20.7,6-31.6,5.9c-10.9-0.1-21.5-2.3-31.5-6.4c-10.4-4.3-19.6-10.6-27.6-18.6
						c-7.9-8.1-14-17.4-18.2-27.9c-4-10.1-6-20.7-5.9-31.6c0.1-10.9,2.3-21.5,6.4-31.5c4.3-10.4,10.6-19.6,18.6-27.6
						c8.1-7.9,17.4-14,27.9-18.2c10.1-4,20.7-6,31.6-5.9c10.9,0.1,21.5,2.3,31.5,6.4c10.4,4.3,19.6,10.6,27.6,18.6
						c7.9,8.1,14,17.4,18.2,27.9C485.9,140.8,487.8,151.1,487.8,161.8z M320.8,161.8c0,10.6,2,20.9,5.8,30.6
						c4.1,10.4,10.2,19.7,18,27.7c7.9,8,17.1,14.2,27.4,18.5c9.9,4.1,20.5,6.3,31.3,6.4c10.8,0.1,21.4-1.9,31.4-5.8
						c10.4-4.1,19.7-10.2,27.7-18c8-7.9,14.2-17.1,18.5-27.4c4.1-9.9,6.3-20.5,6.4-31.3c0.1-10.8-1.9-21.4-5.8-31.4
						c-4.1-10.4-10.2-19.7-18-27.7c-7.9-8-17.1-14.2-27.4-18.5c-9.9-4.1-20.5-6.3-31.3-6.4c-10.8-0.1-21.4,1.9-31.4,5.8
						c-10.4,4.1-19.7,10.2-27.7,18c-8,7.9-14.2,17.1-18.5,27.4c-4.1,9.9-6.3,20.5-6.4,31.3C320.8,161.3,320.8,161.5,320.8,161.8z"/>
				</g>
				<g>
					<path class="st531" d="M486.9,161.7c0,0.2,0,0.5,0,0.7c-0.1,10.6-2.2,21-6.3,30.7c-4.2,10.1-10.3,19.2-18.2,26.9
						c-7.9,7.7-17,13.7-27.2,17.7c-9.8,3.9-20.2,5.8-30.8,5.7c-10.6-0.1-21-2.2-30.7-6.3c-10.1-4.2-19.2-10.3-26.9-18.2
						c-7.7-7.9-13.7-17-17.7-27.2c-3.9-9.8-5.8-20.2-5.7-30.8c0.1-10.6,2.2-21,6.3-30.7c4.2-10.1,10.3-19.2,18.2-26.9
						c7.9-7.7,17-13.7,27.2-17.7c9.8-3.9,20.2-5.8,30.8-5.7c10.6,0.1,21,2.2,30.7,6.3c10.1,4.2,19.2,10.3,26.9,18.2
						c7.7,7.9,13.7,17,17.7,27.2C484.9,141.3,486.9,151.4,486.9,161.7z M462,219.7c7.8-7.7,13.9-16.7,18.1-26.7
						c4-9.7,6.1-20,6.2-30.5c0.1-10.5-1.8-20.8-5.7-30.6c-4-10.1-9.9-19.2-17.6-27c-7.7-7.8-16.7-13.9-26.7-18.1
						c-9.7-4-20-6.1-30.5-6.2c-10.5-0.1-20.8,1.8-30.6,5.7c-10.1,4-19.2,9.9-27,17.6c-7.8,7.7-13.9,16.7-18.1,26.7
						c-4,9.7-6.1,20-6.2,30.5c-0.1,10.5,1.8,20.8,5.7,30.6c4,10.1,9.9,19.2,17.6,27c7.7,7.8,16.7,13.9,26.7,18.1
						c9.7,4,20,6.1,30.5,6.2c10.5,0.1,20.8-1.8,30.6-5.7C445.1,233.3,454.2,227.4,462,219.7L462,219.7z"/>
				</g>
				<g>
					<path class="st531" d="M485.9,161.7c0,0.2,0,0.5,0,0.7c-0.1,10.4-2.1,20.4-6.1,29.9c-4.1,9.9-10.1,18.7-17.7,26.2
						c-7.7,7.5-16.6,13.4-26.5,17.3c-9.6,3.8-19.7,5.7-30,5.6c-10.4-0.1-20.4-2.1-29.9-6.1c-9.9-4.1-18.7-10.1-26.2-17.7
						C341.8,210,336,201,332,191.1c-3.8-9.6-5.7-19.7-5.6-30c0.1-10.4,2.1-20.4,6.1-29.9c4.1-9.9,10.1-18.7,17.7-26.2
						c7.7-7.5,16.6-13.4,26.5-17.3c9.6-3.8,19.7-5.7,30-5.6c10.4,0.1,20.4,2.1,29.9,6.1c9.9,4.1,18.7,10.1,26.2,17.7
						c7.5,7.7,13.4,16.6,17.3,26.5C484,141.8,485.9,151.6,485.9,161.7z M327,161.8c0,10,1.9,19.8,5.5,29.1
						c3.9,9.9,9.7,18.7,17.2,26.3c7.5,7.6,16.3,13.6,26,17.6c9.5,3.9,19.5,6,29.7,6.1c10.3,0.1,20.3-1.8,29.8-5.5
						c9.9-3.9,18.7-9.7,26.3-17.2c7.6-7.5,13.6-16.3,17.6-26c3.9-9.5,6-19.5,6.1-29.7c0.1-10.3-1.8-20.3-5.5-29.8
						c-3.9-9.9-9.7-18.7-17.2-26.3c-7.5-7.6-16.3-13.6-26-17.6c-9.5-3.9-19.5-6-29.7-6.1c-10.3-0.1-20.3,1.8-29.8,5.5
						c-9.9,3.9-18.7,9.7-26.3,17.2c-7.6,7.5-13.6,16.3-17.6,26c-3.9,9.5-6,19.5-6.1,29.7C327,161.3,327,161.5,327,161.8z"/>
				</g>
				<g>
					<path class="st531" d="M484.9,161.7c0,0.2,0,0.5,0,0.7c-0.1,10.1-2.1,19.9-5.9,29.2c-4,9.6-9.8,18.2-17.3,25.5
						c-7.5,7.3-16.2,13-25.8,16.8c-9.3,3.7-19.2,5.5-29.3,5.4c-10.1-0.1-19.9-2.1-29.2-5.9c-9.6-4-18.2-9.8-25.5-17.3
						c-7.3-7.5-13-16.2-16.8-25.8c-3.7-9.3-5.5-19.2-5.4-29.3c0.1-10.1,2.1-19.9,5.9-29.2c4-9.6,9.8-18.2,17.3-25.5
						c7.5-7.3,16.2-13,25.8-16.8c9.3-3.7,19.2-5.5,29.3-5.4c10.1,0.1,19.9,2.1,29.2,5.9c9.6,4,18.2,9.8,25.5,17.3
						c7.3,7.5,13,16.2,16.8,25.8C483.1,142.3,484.9,151.9,484.9,161.7z M330.1,161.8c0,9.8,1.8,19.3,5.4,28.4
						c3.8,9.6,9.4,18.2,16.7,25.7c7.3,7.4,15.8,13.2,25.4,17.2c9.2,3.8,19,5.8,29,5.9c10,0.1,19.8-1.7,29.1-5.4
						c9.6-3.8,18.2-9.4,25.7-16.7c7.4-7.3,13.2-15.8,17.2-25.4c3.8-9.2,5.8-19,5.9-29c0.1-10-1.7-19.8-5.4-29.1
						c-3.8-9.6-9.4-18.2-16.7-25.7c-7.3-7.4-15.8-13.2-25.4-17.2c-9.2-3.8-19-5.8-29-5.9c-10-0.1-19.8,1.7-29.1,5.4
						c-9.6,3.8-18.2,9.4-25.7,16.7c-7.4,7.3-13.2,15.8-17.2,25.4c-3.8,9.2-5.8,19-5.9,29C330.1,161.3,330.1,161.5,330.1,161.8z"/>
				</g>
				<g>
					<path class="st531" d="M483.9,161.7c0,0.2,0,0.4,0,0.7c-0.1,9.8-2,19.4-5.8,28.4c-3.9,9.3-9.5,17.7-16.8,24.9
						c-7.3,7.2-15.7,12.7-25.2,16.4c-9.1,3.6-18.7,5.4-28.5,5.3c-9.8-0.1-19.4-2-28.4-5.8c-9.3-3.9-17.7-9.5-24.9-16.8
						c-7.2-7.3-12.7-15.7-16.4-25.2c-3.6-9.1-5.4-18.7-5.3-28.5c0.1-9.8,2-19.4,5.8-28.4c3.9-9.3,9.5-17.7,16.8-24.9
						s15.7-12.7,25.2-16.4c9.1-3.6,18.7-5.4,28.5-5.3c9.8,0.1,19.4,2,28.4,5.8c9.3,3.9,17.7,9.5,24.9,16.8
						c7.2,7.3,12.7,15.7,16.4,25.2C482.1,142.8,483.9,152.1,483.9,161.7z M461,215.3c7.2-7.1,12.9-15.4,16.7-24.7
						c3.7-9,5.7-18.5,5.7-28.2c0.1-9.8-1.7-19.3-5.3-28.3c-3.7-9.4-9.2-17.8-16.3-25c-7.1-7.2-15.4-12.9-24.7-16.7
						c-9-3.7-18.5-5.7-28.2-5.7c-9.8-0.1-19.3,1.7-28.3,5.3c-9.4,3.7-17.8,9.2-25,16.3c-7.2,7.1-12.9,15.4-16.7,24.7
						c-3.7,9-5.7,18.5-5.7,28.2c-0.1,9.8,1.7,19.3,5.3,28.3c3.7,9.4,9.2,17.8,16.3,25s15.4,12.9,24.7,16.7c9,3.7,18.5,5.7,28.2,5.7
						c9.8,0.1,19.3-1.7,28.3-5.3C445.3,227.9,453.7,222.4,461,215.3z"/>
				</g>
				<g>
					<path class="st531" d="M482.9,161.7c0,0.2,0,0.4,0,0.7c-0.1,9.6-2,18.9-5.6,27.6c-3.8,9.1-9.3,17.2-16.4,24.2
						c-7.1,7-15.3,12.3-24.5,15.9c-8.8,3.5-18.2,5.2-27.7,5.1c-9.6-0.1-18.9-2-27.6-5.6c-9.1-3.8-17.2-9.3-24.2-16.4
						c-7-7.1-12.3-15.3-15.9-24.5c-3.5-8.8-5.2-18.2-5.1-27.7c0.1-9.6,2-18.9,5.6-27.6c3.8-9.1,9.3-17.2,16.4-24.2
						c7.1-7,15.3-12.3,24.5-15.9c8.8-3.5,18.2-5.2,27.7-5.1c9.6,0.1,18.9,2,27.6,5.6c9.1,3.8,17.2,9.3,24.2,16.4
						c7,7.1,12.3,15.3,15.9,24.5C481.2,143.3,482.9,152.4,482.9,161.7z M336.2,161.7c0,9.3,1.7,18.3,5.1,26.9
						c3.6,9.1,8.9,17.3,15.9,24.3c6.9,7,15,12.5,24,16.3c8.7,3.6,18,5.5,27.5,5.6c9.5,0.1,18.8-1.6,27.6-5.1
						c9.1-3.6,17.3-8.9,24.3-15.9c7-6.9,12.5-15,16.3-24c3.6-8.7,5.5-18,5.6-27.5c0.1-9.5-1.6-18.8-5.1-27.6
						c-3.6-9.1-8.9-17.3-15.9-24.3c-6.9-7-15-12.5-24-16.3c-8.7-3.6-18-5.5-27.5-5.6c-9.5-0.1-18.8,1.6-27.6,5.1
						c-9.1,3.6-17.3,8.9-24.3,15.9c-7,6.9-12.5,15-16.3,24c-3.6,8.7-5.5,18-5.6,27.5C336.2,161.3,336.2,161.5,336.2,161.7z"/>
				</g>
				<g>
					<path class="st531" d="M481.9,161.7c0,0.2,0,0.4,0,0.6c-0.1,9.3-1.9,18.3-5.5,26.9c-3.7,8.8-9,16.8-15.9,23.5
						c-6.9,6.8-14.9,12-23.8,15.5c-8.6,3.4-17.7,5.1-27,5c-9.3-0.1-18.3-1.9-26.9-5.5c-8.8-3.7-16.8-9-23.5-15.9
						c-6.8-6.9-12-14.9-15.5-23.8c-3.4-8.6-5.1-17.7-5-27c0.1-9.3,1.9-18.3,5.5-26.9c3.7-8.8,9-16.8,15.9-23.5
						c6.9-6.8,14.9-12,23.8-15.5c8.6-3.4,17.7-5.1,27-5c9.3,0.1,18.3,1.9,26.9,5.5c8.8,3.7,16.8,9,23.5,15.9
						c6.8,6.9,12,14.9,15.5,23.8C480.3,143.8,481.9,152.6,481.9,161.7z M339.3,161.7c0,9,1.7,17.8,5,26.2
						c3.5,8.9,8.7,16.8,15.4,23.7c6.7,6.8,14.6,12.2,23.4,15.8c8.5,3.5,17.5,5.4,26.7,5.4c9.2,0.1,18.3-1.6,26.8-5
						c8.9-3.5,16.8-8.7,23.7-15.4c6.8-6.7,12.2-14.6,15.8-23.4c3.5-8.5,5.4-17.5,5.4-26.7c0.1-9.2-1.6-18.3-5-26.8
						c-3.5-8.9-8.7-16.8-15.4-23.7c-6.7-6.8-14.6-12.2-23.4-15.8c-8.5-3.5-17.5-5.4-26.7-5.4c-9.2-0.1-18.3,1.6-26.8,5
						c-8.9,3.5-16.8,8.7-23.7,15.4c-6.8,6.7-12.2,14.6-15.8,23.4c-3.5,8.5-5.4,17.5-5.4,26.7C339.3,161.3,339.3,161.5,339.3,161.7z"
						/>
				</g>
			</g>
		</g>
	</g>
	<g>
		<path class="st1131" d="M1264.2,159.2h52.1c39.1,0,67.2,23.5,67.2,62s-28.1,62.2-67,62.2h-52.3V159.2z M1316.3,255.5
			c21.8,0,34.4-15.8,34.4-34.2c0-19.2-11.5-34.1-34.2-34.1h-20.3v68.3H1316.3z"/>
		<path class="st1131" d="M1399.5,159.2h91v27h-59v20.7h57.7v27.2h-57.7v22.3h59v27h-91V159.2z"/>
		<path class="st1131" d="M1560.9,241.7l-27,41.7h-38l43.4-63.7l-40.6-60.5h37.8l24.4,38.9l24-38.9h38l-40.4,60.3l43.2,63.8h-37.8
			L1560.9,241.7z"/>
	</g>
</g>
</svg>
