<?xml version="1.0" encoding="utf-8"?>
<!-- Generator: Adobe Illustrator 25.2.3, SVG Export Plug-In . SVG Version: 6.00 Build 0)  -->
<svg version="1.1" id="Layer_1" xmlns="http://www.w3.org/2000/svg" xmlns:xlink="http://www.w3.org/1999/xlink" x="0px" y="0px"
	 viewBox="0 0 512 512" style="enable-background:new 0 0 512 512;" xml:space="preserve">
<style type="text/css">
	.st0{fill:#1D3B4B;}
</style>
<g id="Layer_2_1_">
	<g id="Color_Icon">
		<g id="_02.YouTube">
			<polygon class="st0" points="220.5,214.7 291.5,256 220.5,297.3 			"/>
			<path class="st0" d="M471.6,0H40.4C18.1,0,0,18.1,0,40.4v431.2C0,493.9,18.1,512,40.4,512h431.2c22.3,0,40.4-18.1,40.4-40.4V40.4
				C512,18.1,493.9,0,471.6,0z M390.7,301.3c0,28.1-22.8,51-51,51H172.2c-28.1,0-51-22.8-50.9-51v-90.7c0-28.1,22.8-51,51-51h167.6
				c28.1,0,51,22.8,50.9,51V301.3z"/>
		</g>
	</g>
</g>
</svg>
