<?xml version="1.0" encoding="utf-8"?>
<!-- Generator: Adobe Illustrator 25.2.3, SVG Export Plug-In . SVG Version: 6.00 Build 0)  -->
<svg version="1.1" id="Layer_1" xmlns="http://www.w3.org/2000/svg" xmlns:xlink="http://www.w3.org/1999/xlink" x="0px" y="0px"
	 viewBox="0 0 512 161.2" style="enable-background:new 0 0 512 161.2;" xml:space="preserve">
<style type="text/css">
	.st0{fill:#C5C5C5;}
</style>
<path class="st0" d="M68.7,0.1c20.5,20.2,41.9,41.9,62.4,62.3c20.9-20.7,41.6-41.7,62.5-62.4c20.8,20.8,41.5,41.6,62.4,62.3
	c20.9-20.7,41.6-41.5,62.4-62.3c20.9,20.7,41.5,41.7,62.4,62.4c20.6-20.4,41.9-42,62.4-62.3c1.5,0.6,2.8,2.4,4,3.5
	c21.5,21.7,43.3,43.2,64.7,65v1.6c-4,4.1-8.1,8.1-12.1,12.1C481,63.6,462.3,44.8,443.6,26c-20.9,20.7-41.5,41.7-62.5,62.3
	c-21-20.8-41.7-41.8-62.8-62.5c-20.8,20.8-41.4,41.8-62.3,62.4c-20.9-20.6-41.5-41.6-62.3-62.4c-21.1,20.7-41.8,41.8-62.8,62.5
	C109.9,67.7,89.4,46.6,68.4,26C49.6,44.7,31,63.6,12.1,82.2c-4-4.1-8.2-8-12.1-12.2v-1.5C21.4,46.8,43.2,25.3,64.7,3.6
	C65.8,2.6,67.2,0.5,68.7,0.1z"/>
<path class="st0" d="M68.3,72.9c3.2,2.6,6,5.8,9,8.7c18,17.9,35.8,35.9,53.8,53.7c20.9-20.7,41.5-41.5,62.2-62.3
	c21.1,20.6,41.6,41.7,62.6,62.3c21-20.6,41.6-41.8,62.6-62.3c20.8,20.8,41.4,41.7,62.2,62.3c21-20.7,41.7-41.9,62.8-62.5
	c22.6,23.1,45.6,45.6,68.3,68.6v1.8c-4,4.1-8.1,8-12.1,12.1c-19.1-18.8-37.8-37.9-56.8-56.7c-3.7,4.1-7.8,7.8-11.5,11.9
	c-3.5,3.9-7.5,7.1-11.1,10.9c-3.9,3.8-7.3,8-11.2,11.8c-9.6,9.2-18.6,18.9-28.2,28.2c-21-20.8-41.7-41.8-62.8-62.6
	c-20.8,20.7-41.5,41.6-62.3,62.4c-20.8-20.7-41.5-41.6-62.2-62.4c-21.1,20.7-41.8,41.8-62.8,62.6c-9.4-9-18.3-18.6-27.7-27.7
	c-5.2-4.8-9.5-10.4-14.8-15.2c-6.9-6.2-12.9-13.3-19.6-19.7c-4.4,3.9-8.4,8.4-12.7,12.5c-14.7,14.7-29.3,29.5-44.2,44.1
	c-4-4-8.2-8-12.1-12.1v-1.8C22.7,118.5,45.7,95.8,68.3,72.9z"/>
</svg>
